# Rhino

mtllib beam-260316.mtl
g Bar_virtual indicator_support
o object_1
usemtl Plastic White
v -0.96948820352554321 25.653543472290039 -2.0826771259307861
v -0.96948820352554321 25.653543472290039 -1.787401556968689
v -0.96948820352554321 24 -2.0826771259307861
v -0.96948820352554321 24 -1.787401556968689
v -0.96948820352554321 24 -2.0826771259307861
v -0.96948820352554321 24 -1.787401556968689
v 0.96751970052719116 24 -2.0826771259307861
v 0.96751970052719116 24 -1.787401556968689
v 0.96751970052719116 24 -2.0826771259307861
v 0.96751970052719116 24 -1.787401556968689
v 0.96751970052719116 25.653543472290039 -2.0826771259307861
v 0.96751970052719116 25.653543472290039 -1.787401556968689
v 0.96751970052719116 25.653543472290039 -2.0826771259307861
v 0.96751970052719116 25.653543472290039 -1.787401556968689
v 0.67224407196044922 25.653543472290039 -2.0826771259307861
v 0.67224407196044922 25.653543472290039 -1.787401556968689
v 0.67224407196044922 25.653543472290039 -2.0826771259307861
v 0.67224407196044922 25.653543472290039 -1.787401556968689
v 0.67224407196044922 24.866142272949219 -2.0826771259307861
v 0.67224407196044922 24.866142272949219 -1.787401556968689
v 0.67224407196044922 24.866142272949219 -2.0826771259307861
v 0.67224407196044922 24.866142272949219 -1.787401556968689
v -0.67421257495880127 24.866142272949219 -2.0826771259307861
v -0.67421257495880127 24.866142272949219 -1.787401556968689
v -0.67421257495880127 24.866142272949219 -2.0826771259307861
v -0.67421257495880127 24.866142272949219 -1.787401556968689
v -0.67421257495880127 25.653543472290039 -2.0826771259307861
v -0.67421257495880127 25.653543472290039 -1.787401556968689
v -0.67421257495880127 25.653543472290039 -2.0826771259307861
v -0.67421257495880127 25.653543472290039 -1.787401556968689
v -0.96948820352554321 25.653543472290039 -2.0826771259307861
v -0.96948820352554321 25.653543472290039 -1.787401556968689
v -0.96948820352554321 25.653543472290039 -2.0826771259307861
v -0.96948820352554321 24 -2.0826771259307861
v 0.96751970052719116 24 -2.0826771259307861
v 0.96751970052719116 25.653543472290039 -2.0826771259307861
v 0.67224407196044922 25.653543472290039 -2.0826771259307861
v 0.67224407196044922 24.866142272949219 -2.0826771259307861
v -0.67421257495880127 24.866142272949219 -2.0826771259307861
v -0.67421257495880127 25.653543472290039 -2.0826771259307861
v -0.96948820352554321 25.653543472290039 -1.787401556968689
v -0.96948820352554321 24 -1.787401556968689
v 0.96751970052719116 24 -1.787401556968689
v 0.96751970052719116 25.653543472290039 -1.787401556968689
v 0.67224407196044922 25.653543472290039 -1.787401556968689
v 0.67224407196044922 24.866142272949219 -1.787401556968689
v -0.67421257495880127 24.866142272949219 -1.787401556968689
v -0.67421257495880127 25.653543472290039 -1.787401556968689
vt 0 0
vt 0 0.54098331928253174
vt 0.18884892761707306 0
vt 0.18884892761707306 0.54098331928253174
vt 0.18884892761707306 0
vt 0.18884892761707306 0.54098331928253174
vt 0.41007193922996521 0
vt 0.41007193922996521 0.54098331928253174
vt 0.41007193922996521 0
vt 0.41007193922996521 0.54098331928253174
vt 0.59892088174819946 0
vt 0.59892088174819946 0.54098331928253174
vt 0.59892088174819946 0
vt 0.59892088174819946 0.54098331928253174
vt 0.63264387845993042 0
vt 0.63264387845993042 0.54098331928253174
vt 0.63264387845993042 0
vt 0.63264387845993042 0.54098331928253174
vt 0.7225719690322876 0
vt 0.7225719690322876 0.54098331928253174
vt 0.7225719690322876 0
vt 0.7225719690322876 0.54098331928253174
vt 0.87634891271591187 0
vt 0.87634891271591187 0.54098331928253174
vt 0.87634891271591187 0
vt 0.87634891271591187 0.54098331928253174
vt 0.96627700328826904 0
vt 0.96627700328826904 0.54098331928253174
vt 0.96627700328826904 0
vt 0.96627700328826904 0.54098331928253174
vt 1 0
vt 1 0.54098331928253174
vt 0.22122302651405334 1
vt 0.22122302651405334 0.54098385572433472
vt 0 0.54098385572433472
vt 0 1
vt 0.033723022788763046 1
vt 0.033723022788763046 0.78142088651657104
vt 0.1875 0.78142088651657104
vt 0.1875 1
vt 0.22122302651405334 0.54098385572433472
vt 0.22122302651405334 1
vt 0 1
vt 0 0.54098385572433472
vt 0.033723022788763046 0.54098385572433472
vt 0.033723022788763046 0.75956296920776367
vt 0.1875 0.75956296920776367
vt 0.1875 0.54098385572433472
vn -1 0 0
vn -1 0 0
vn -1 0 0
vn -1 0 0
vn 0 -1 0
vn 0 -1 0
vn 0 -1 0
vn 0 -1 0
vn 1 0 0
vn 1 0 0
vn 1 0 0
vn 1 0 0
vn 0 1 0
vn 0 1 0
vn 0 1 0
vn 0 1 0
vn -1 0 0
vn -1 0 0
vn -1 0 0
vn -1 0 0
vn 0 1 0
vn 0 1 0
vn 0 1 0
vn 0 1 0
vn 1 0 0
vn 1 0 0
vn 1 0 0
vn 1 0 0
vn 0 1 0
vn 0 1 0
vn 0 1 0
vn 0 1 0
vn 0 0 -1
vn 0 0 -1
vn 0 0 -1
vn 0 0 -1
vn 0 0 -1
vn 0 0 -1
vn 0 0 -1
vn 0 0 -1
vn 0 0 1
vn 0 0 1
vn 0 0 1
vn 0 0 1
vn 0 0 1
vn 0 0 1
vn 0 0 1
vn 0 0 1
f 1/1/1 3/3/3 4/4/4 2/2/2
f 5/5/5 7/7/7 8/8/8 6/6/6
f 9/9/9 11/11/11 12/12/12 10/10/10
f 13/13/13 15/15/15 16/16/16 14/14/14
f 17/17/17 19/19/19 20/20/20 18/18/18
f 21/21/21 23/23/23 24/24/24 22/22/22
f 25/25/25 27/27/27 28/28/28 26/26/26
f 29/29/29 31/31/31 32/32/32 30/30/30
f 39/39/39 33/33/33 40/40/40
f 38/38/38 37/37/37 36/36/36
f 38/38/38 34/34/34 39/39/39
f 33/33/33 39/39/39 34/34/34
f 36/36/36 35/35/35 38/38/38
f 34/34/34 38/38/38 35/35/35
f 47/47/47 48/48/48 41/41/41
f 46/46/46 44/44/44 45/45/45
f 46/46/46 47/47/47 42/42/42
f 41/41/41 42/42/42 47/47/47
f 44/44/44 46/46/46 43/43/43
f 42/42/42 43/43/43 46/46/46
o object_2
usemtl Plastic White
v 0.96948820352554321 -25.653543472290039 -2.0826771259307861
v 0.96948820352554321 -25.653543472290039 -1.787401556968689
v 0.96948820352554321 -24 -2.0826771259307861
v 0.96948820352554321 -24 -1.787401556968689
v 0.96948820352554321 -24 -2.0826771259307861
v 0.96948820352554321 -24 -1.787401556968689
v -0.96751970052719116 -24 -2.0826771259307861
v -0.96751970052719116 -24 -1.787401556968689
v -0.96751970052719116 -24 -2.0826771259307861
v -0.96751970052719116 -24 -1.787401556968689
v -0.96751970052719116 -25.653543472290039 -2.0826771259307861
v -0.96751970052719116 -25.653543472290039 -1.787401556968689
v -0.96751970052719116 -25.653543472290039 -2.0826771259307861
v -0.96751970052719116 -25.653543472290039 -1.787401556968689
v -0.67224407196044922 -25.653543472290039 -2.0826771259307861
v -0.67224407196044922 -25.653543472290039 -1.787401556968689
v -0.67224407196044922 -25.653543472290039 -2.0826771259307861
v -0.67224407196044922 -25.653543472290039 -1.787401556968689
v -0.67224407196044922 -24.866142272949219 -2.0826771259307861
v -0.67224407196044922 -24.866142272949219 -1.787401556968689
v -0.67224407196044922 -24.866142272949219 -2.0826771259307861
v -0.67224407196044922 -24.866142272949219 -1.787401556968689
v 0.67421257495880127 -24.866142272949219 -2.0826771259307861
v 0.67421257495880127 -24.866142272949219 -1.787401556968689
v 0.67421257495880127 -24.866142272949219 -2.0826771259307861
v 0.67421257495880127 -24.866142272949219 -1.787401556968689
v 0.67421257495880127 -25.653543472290039 -2.0826771259307861
v 0.67421257495880127 -25.653543472290039 -1.787401556968689
v 0.67421257495880127 -25.653543472290039 -2.0826771259307861
v 0.67421257495880127 -25.653543472290039 -1.787401556968689
v 0.96948820352554321 -25.653543472290039 -2.0826771259307861
v 0.96948820352554321 -25.653543472290039 -1.787401556968689
v 0.96948820352554321 -25.653543472290039 -2.0826771259307861
v 0.96948820352554321 -24 -2.0826771259307861
v -0.96751970052719116 -24 -2.0826771259307861
v -0.96751970052719116 -25.653543472290039 -2.0826771259307861
v -0.67224407196044922 -25.653543472290039 -2.0826771259307861
v -0.67224407196044922 -24.866142272949219 -2.0826771259307861
v 0.67421257495880127 -24.866142272949219 -2.0826771259307861
v 0.67421257495880127 -25.653543472290039 -2.0826771259307861
v 0.96948820352554321 -25.653543472290039 -1.787401556968689
v 0.96948820352554321 -24 -1.787401556968689
v -0.96751970052719116 -24 -1.787401556968689
v -0.96751970052719116 -25.653543472290039 -1.787401556968689
v -0.67224407196044922 -25.653543472290039 -1.787401556968689
v -0.67224407196044922 -24.866142272949219 -1.787401556968689
v 0.67421257495880127 -24.866142272949219 -1.787401556968689
v 0.67421257495880127 -25.653543472290039 -1.787401556968689
vt 0 0
vt 0 0.54098331928253174
vt 0.18884892761707306 0
vt 0.18884892761707306 0.54098331928253174
vt 0.18884892761707306 0
vt 0.18884892761707306 0.54098331928253174
vt 0.41007193922996521 0
vt 0.41007193922996521 0.54098331928253174
vt 0.41007193922996521 0
vt 0.41007193922996521 0.54098331928253174
vt 0.59892088174819946 0
vt 0.59892088174819946 0.54098331928253174
vt 0.59892088174819946 0
vt 0.59892088174819946 0.54098331928253174
vt 0.63264387845993042 0
vt 0.63264387845993042 0.54098331928253174
vt 0.63264387845993042 0
vt 0.63264387845993042 0.54098331928253174
vt 0.7225719690322876 0
vt 0.7225719690322876 0.54098331928253174
vt 0.7225719690322876 0
vt 0.7225719690322876 0.54098331928253174
vt 0.87634891271591187 0
vt 0.87634891271591187 0.54098331928253174
vt 0.87634891271591187 0
vt 0.87634891271591187 0.54098331928253174
vt 0.96627700328826904 0
vt 0.96627700328826904 0.54098331928253174
vt 0.96627700328826904 0
vt 0.96627700328826904 0.54098331928253174
vt 1 0
vt 1 0.54098331928253174
vt 0.22122302651405334 1
vt 0.22122302651405334 0.54098385572433472
vt 0 0.54098385572433472
vt 0 1
vt 0.033723022788763046 1
vt 0.033723022788763046 0.78142088651657104
vt 0.1875 0.78142088651657104
vt 0.1875 1
vt 0.22122302651405334 0.54098385572433472
vt 0.22122302651405334 1
vt 0 1
vt 0 0.54098385572433472
vt 0.033723022788763046 0.54098385572433472
vt 0.033723022788763046 0.75956296920776367
vt 0.1875 0.75956296920776367
vt 0.1875 0.54098385572433472
vn 1 0 0
vn 1 0 0
vn 1 0 0
vn 1 0 0
vn 0 1 0
vn 0 1 0
vn 0 1 0
vn 0 1 0
vn -1 0 0
vn -1 0 0
vn -1 0 0
vn -1 0 0
vn 0 -1 0
vn 0 -1 0
vn 0 -1 0
vn 0 -1 0
vn 1 0 0
vn 1 0 0
vn 1 0 0
vn 1 0 0
vn 0 -1 0
vn 0 -1 0
vn 0 -1 0
vn 0 -1 0
vn -1 0 0
vn -1 0 0
vn -1 0 0
vn -1 0 0
vn 0 -1 0
vn 0 -1 0
vn 0 -1 0
vn 0 -1 0
vn 0 0 -1
vn 0 0 -1
vn 0 0 -1
vn 0 0 -1
vn 0 0 -1
vn 0 0 -1
vn 0 0 -1
vn 0 0 -1
vn 0 0 1
vn 0 0 1
vn 0 0 1
vn 0 0 1
vn 0 0 1
vn 0 0 1
vn 0 0 1
vn 0 0 1
f 49/49/49 51/51/51 52/52/52 50/50/50
f 53/53/53 55/55/55 56/56/56 54/54/54
f 57/57/57 59/59/59 60/60/60 58/58/58
f 61/61/61 63/63/63 64/64/64 62/62/62
f 65/65/65 67/67/67 68/68/68 66/66/66
f 69/69/69 71/71/71 72/72/72 70/70/70
f 73/73/73 75/75/75 76/76/76 74/74/74
f 77/77/77 79/79/79 80/80/80 78/78/78
f 87/87/87 81/81/81 88/88/88
f 86/86/86 85/85/85 84/84/84
f 86/86/86 82/82/82 87/87/87
f 81/81/81 87/87/87 82/82/82
f 84/84/84 83/83/83 86/86/86
f 82/82/82 86/86/86 83/83/83
f 95/95/95 96/96/96 89/89/89
f 94/94/94 92/92/92 93/93/93
f 94/94/94 95/95/95 90/90/90
f 89/89/89 90/90/90 95/95/95
f 92/92/92 94/94/94 91/91/91
f 90/90/90 91/91/91 94/94/94
g Bar_virtual brain
o object_3
usemtl White matte
v -1.4909448623657227 -13.787008285522461 -0.88188976049423218
v -1.4909448623657227 -13.787008285522461 1.5196850299835205
v 1.4830708503723145 -13.787008285522461 -0.88188976049423218
v 1.4830708503723145 -13.787008285522461 1.5196850299835205
v 1.4830708503723145 -13.787008285522461 -0.88188976049423218
v 1.4830708503723145 -13.787008285522461 1.5196850299835205
v 1.4830708503723145 -9.7129917144775391 -0.88188976049423218
v 1.4830708503723145 -9.7129917144775391 1.5196850299835205
v 1.4830708503723145 -9.7129917144775391 -0.88188976049423218
v 1.4830708503723145 -9.7129917144775391 1.5196850299835205
v 0.88307088613510132 -9.7129917144775391 -0.88188976049423218
v 0.88307088613510132 -9.7129917144775391 1.5196850299835205
v -1.4909448623657227 -9.7129917144775391 -0.88188976049423218
v -1.4909448623657227 -9.7129917144775391 1.5196850299835205
v -1.4909448623657227 -9.7129917144775391 -0.88188976049423218
v -1.4909448623657227 -9.7129917144775391 1.5196850299835205
v -1.4909448623657227 -13.187007904052734 -0.88188976049423218
v -1.4909448623657227 -13.187007904052734 1.5196850299835205
v -1.4909448623657227 -13.787008285522461 -0.88188976049423218
v -1.4909448623657227 -13.787008285522461 1.5196850299835205
v -1.4909448623657227 -13.787008285522461 -0.88188976049423218
v 1.4830708503723145 -13.787008285522461 -0.88188976049423218
v 1.4830708503723145 -9.7129917144775391 -0.88188976049423218
v 0.88307088613510132 -9.7129917144775391 -0.88188976049423218
v -1.4909448623657227 -9.7129917144775391 -0.88188976049423218
v -1.4909448623657227 -13.187007904052734 -0.88188976049423218
v -1.4909448623657227 -13.787008285522461 1.5196850299835205
v 1.4830708503723145 -13.787008285522461 1.5196850299835205
v 1.4830708503723145 -9.7129917144775391 1.5196850299835205
v 0.88307088613510132 -9.7129917144775391 1.5196850299835205
v -1.4909448623657227 -9.7129917144775391 1.5196850299835205
v -1.4909448623657227 -13.187007904052734 1.5196850299835205
vt 0 0
vt 0 0.64381325244903564
vt 0.21098200976848602 0
vt 0.21098200976848602 0.64381325244903564
vt 0.21098200976848602 0
vt 0.21098200976848602 0.64381325244903564
vt 0.5 0
vt 0.5 0.64381325244903564
vt 0.5 0
vt 0.5 0.64381325244903564
vt 0.54256504774093628 0
vt 0.54256504774093628 0.64381325244903564
vt 0.71098202466964722 0
vt 0.71098202466964722 0.64381325244903564
vt 0.71098202466964722 0
vt 0.71098202466964722 0.64381325244903564
vt 0.95743495225906372 0
vt 0.95743495225906372 0.64381325244903564
vt 1 0
vt 1 0.64381325244903564
vt 0 0.64381390810012817
vt 0 1
vt 0.28901797533035278 1
vt 0.28901797533035278 0.92814034223556519
vt 0.28901797533035278 0.64381390810012817
vt 0.042565077543258667 0.64381390810012817
vt 0 1
vt 0 0.64381390810012817
vt 0.28901797533035278 0.64381390810012817
vt 0.28901797533035278 0.71567350625991821
vt 0.28901797533035278 1
vt 0.042565077543258667 1
vn 0 -1 0
vn 0 -1 0
vn 0 -1 0
vn 0 -1 0
vn 1 0 0
vn 1 0 0
vn 1 0 0
vn 1 0 0
vn 0 1 0
vn 0 1 0
vn 0 1 0
vn 0 1 0
vn 0 1 0
vn 0 1 0
vn -1 0 0
vn -1 0 0
vn -1 0 0
vn -1 0 0
vn -1 0 0
vn -1 0 0
vn 0 0 -1
vn 0 0 -1
vn 0 0 -1
vn 0 0 -1
vn 0 0 -1
vn 0 0 -1
vn 0 0 1
vn 0 0 1
vn 0 0 1
vn 0 0 1
vn 0 0 1
vn 0 0 1
f 97/97/97 99/99/99 100/100/100 98/98/98
f 101/101/101 103/103/103 104/104/104 102/102/102
f 105/105/105 107/107/107 108/108/108 106/106/106
f 107/107/107 109/109/109 110/110/110 108/108/108
f 111/111/111 113/113/113 114/114/114 112/112/112
f 113/113/113 115/115/115 116/116/116 114/114/114
f 122/122/122 118/118/118 117/117/117
f 120/120/120 118/118/118 122/122/122
f 121/121/121 120/120/120 122/122/122
f 119/119/119 118/118/118 120/120/120
f 128/128/128 123/123/123 124/124/124
f 126/126/126 128/128/128 124/124/124
f 127/127/127 128/128/128 126/126/126
f 125/125/125 126/126/126 124/124/124
g Bar_virtual struts
o object_4
usemtl anodized
v 0.5 -0.5 -1
v 0.5 -0.5 4
v 0.5 0.5 -1
v 0.5 0.5 4
v 0.5 0.5 -1
v 0.5 0.5 4
v -0.5 0.5 -1
v -0.5 0.5 4
v -0.5 0.5 -1
v -0.5 0.5 4
v -0.5 -0.5 -1
v -0.5 -0.5 4
v -0.5 -0.5 -1
v -0.5 -0.5 4
v 0.5 -0.5 -1
v 0.5 -0.5 4
v 0.5 -0.5 -1
v 0.5 0.5 -1
v -0.5 0.5 -1
v -0.5 -0.5 -1
v 0.5 -0.5 4
v 0.5 0.5 4
v -0.5 0.5 4
v -0.5 -0.5 4
vt 0 0
vt 0 1
vt 0.20833316445350647 0
vt 0.20833316445350647 1
vt 0.20833316445350647 0
vt 0.20833316445350647 1
vt 0.41666632890701294 0
vt 0.41666632890701294 1
vt 0.41666632890701294 0
vt 0.41666632890701294 1
vt 0.62499946355819702 0
vt 0.62499946355819702 1
vt 0.62499946355819702 0
vt 0.62499946355819702 1
vt 0.83333265781402588 0
vt 0.83333265781402588 1
vt 0.83333349227905273 0.20000000298023224
vt 1 0.20000000298023224
vt 1 0
vt 0.83333349227905273 0
vt 0.83333349227905273 0.80000001192092896
vt 1 0.80000001192092896
vt 1 1
vt 0.83333349227905273 1
vn 1 0 0
vn 1 0 0
vn 1 0 0
vn 1 0 0
vn 0 1 0
vn 0 1 0
vn 0 1 0
vn 0 1 0
vn -1 0 0
vn -1 0 0
vn -1 0 0
vn -1 0 0
vn 0 -1 0
vn 0 -1 0
vn 0 -1 0
vn 0 -1 0
vn 0 0 -1
vn 0 0 -1
vn 0 0 -1
vn 0 0 -1
vn 0 0 1
vn 0 0 1
vn 0 0 1
vn 0 0 1
f 129/129/129 131/131/131 132/132/132 130/130/130
f 133/133/133 135/135/135 136/136/136 134/134/134
f 137/137/137 139/139/139 140/140/140 138/138/138
f 141/141/141 143/143/143 144/144/144 142/142/142
f 146/146/146 145/145/145 148/148/148
f 148/148/148 147/147/147 146/146/146
f 150/150/150 152/152/152 149/149/149
f 152/152/152 150/150/150 151/151/151
g Bar_virtual surf
o object_5
usemtl Plastic Black
v -1 -20 -2.25
v -8.5 -7.5 -2.25
v 1 -20 -2.25
v 8.5 0 -2.25
v 1 20 -2.25
v -1 20 -2.25
v -6.75 9.25 -2.25
v -8.5 -7.5 -2.25
v -8.5 -7.5 -2.1875
v -1 -20 -2.25
v -1 -20 -2.1875
v -6.75 9.25 -2.25
v -6.75 9.25 -2.1875
v -8.5 -7.5 -2.25
v -8.5 -7.5 -2.1875
v -8.0625 -3.3125 -2.21875
v -8.28125 -5.40625 -2.21875
v -8.0625 -3.3125 -2.234375
v -8.28125 -5.40625 -2.234375
v -8.390625 -6.453125 -2.234375
v -8.28125 -5.40625 -2.2421875
v -8.390625 -6.453125 -2.2421875
v -8.4453125 -6.9765625 -2.2421875
v -8.390625 -6.453125 -2.24609375
v -8.4453125 -6.9765625 -2.24609375
v -8.47265625 -7.23828125 -2.24609375
v -8.4453125 -6.9765625 -2.248046875
v -8.47265625 -7.23828125 -2.248046875
v -8.0625 -3.3125 -2.203125
v -8.28125 -5.40625 -2.203125
v -8.28125 -5.40625 -2.1953125
v -8.390625 -6.453125 -2.203125
v -8.390625 -6.453125 -2.1953125
v -8.390625 -6.453125 -2.19140625
v -8.4453125 -6.9765625 -2.1953125
v -8.4453125 -6.9765625 -2.19140625
v -8.4453125 -6.9765625 -2.189453125
v -8.47265625 -7.23828125 -2.19140625
v -8.47265625 -7.23828125 -2.189453125
v -7.1875 5.0625 -2.21875
v -7.1875 5.0625 -2.203125
v -6.96875 7.15625 -2.21875
v -6.96875 7.15625 -2.203125
v -6.96875 7.15625 -2.1953125
v -6.859375 8.203125 -2.203125
v -6.859375 8.203125 -2.1953125
v -6.859375 8.203125 -2.19140625
v -6.8046875 8.7265625 -2.1953125
v -6.8046875 8.7265625 -2.19140625
v -6.8046875 8.7265625 -2.189453125
v -6.77734375 8.98828125 -2.19140625
v -6.77734375 8.98828125 -2.189453125
v -7.1875 5.0625 -2.234375
v -6.96875 7.15625 -2.234375
v -6.96875 7.15625 -2.2421875
v -6.859375 8.203125 -2.234375
v -6.859375 8.203125 -2.2421875
v -6.859375 8.203125 -2.24609375
v -6.8046875 8.7265625 -2.2421875
v -6.8046875 8.7265625 -2.24609375
v -6.8046875 8.7265625 -2.248046875
v -6.77734375 8.98828125 -2.24609375
v -6.77734375 8.98828125 -2.248046875
v -1 20 -2.25
v -1 20 -2.1875
v -6.75 9.25 -2.25
v -6.75 9.25 -2.1875
v 1 20 -2.25
v 1 20 -2.1875
v -1 20 -2.25
v -1 20 -2.1875
v 8.5 0 -2.25
v 8.5 0 -2.1875
v 1 20 -2.25
v 1 20 -2.1875
v 1 -20 -2.25
v 1 -20 -2.1875
v 8.5 0 -2.25
v 8.5 0 -2.1875
v -1 -20 -2.25
v -1 -20 -2.1875
v 1 -20 -2.25
v 1 -20 -2.1875
v -1 -20 -2.1875
v -8.5 -7.5 -2.1875
v -6.75 9.25 -2.1875
v -1 20 -2.1875
v 1 20 -2.1875
v 8.5 0 -2.1875
v 1 -20 -2.1875
vt 0.67191594839096069 0.0097895609214901924
vt 0.85510587692260742 0.3157133162021637
vt 0.6230652928352356 0.0097895609214901924
vt 0.43987536430358887 0.499267578125
vt 0.6230652928352356 0.98874557018280029
vt 0.67191594839096069 0.98874557018280029
vt 0.81236153841018677 0.72565114498138428
vt 0.0076593137346208096 0
vt 0.0061274510808289051 0
vt 0.0076593137346208096 0.35728871822357178
vt 0.0061274510808289051 0.35728871822357178
vt 0.0091911768540740013 0
vt 0.0076593137346208096 0
vt 0.0091911768540740013 0.41277375817298889
vt 0.0076593137346208096 0.41277375817298889
vt 0.0084252450615167618 0.30958032608032227
vt 0.0084252450615167618 0.36117705702781677
vt 0.0088082104921340942 0.30958032608032227
vt 0.0088082104921340942 0.36117705702781677
vt 0.0088082104921340942 0.38697540760040283
vt 0.0089996932074427605 0.36117705702781677
vt 0.0089996932074427605 0.38697540760040283
vt 0.0089996932074427605 0.39987459778785706
vt 0.0090954350307583809 0.38697540760040283
vt 0.0090954350307583809 0.39987459778785706
vt 0.0090954350307583809 0.40632417798042297
vt 0.0091433059424161911 0.39987459778785706
vt 0.0091433059424161911 0.40632417798042297
vt 0.0080422796308994293 0.30958032608032227
vt 0.0080422796308994293 0.36117705702781677
vt 0.0078507969155907631 0.36117705702781677
vt 0.0080422796308994293 0.38697540760040283
vt 0.0078507969155907631 0.38697540760040283
vt 0.0077550550922751427 0.38697540760040283
vt 0.0078507969155907631 0.39987459778785706
vt 0.0077550550922751427 0.39987459778785706
vt 0.0077071846462786198 0.39987459778785706
vt 0.0077550550922751427 0.40632417798042297
vt 0.0077071846462786198 0.40632417798042297
vt 0.0084252450615167618 0.10319343954324722
vt 0.0080422796308994293 0.10319343954324722
vt 0.0084252450615167618 0.051596719771623611
vt 0.0080422796308994293 0.051596719771623611
vt 0.0078507969155907631 0.051596719771623611
vt 0.0080422796308994293 0.025798359885811806
vt 0.0078507969155907631 0.025798359885811806
vt 0.0077550550922751427 0.025798359885811806
vt 0.0078507969155907631 0.012899179942905903
vt 0.0077550550922751427 0.012899179942905903
vt 0.0077071846462786198 0.012899179942905903
vt 0.0077550550922751427 0.0064495899714529514
vt 0.0077071846462786198 0.0064495899714529514
vt 0.0088082104921340942 0.10319343954324722
vt 0.0088082104921340942 0.051596719771623611
vt 0.0089996932074427605 0.051596719771623611
vt 0.0088082104921340942 0.025798359885811806
vt 0.0089996932074427605 0.025798359885811806
vt 0.0090954350307583809 0.025798359885811806
vt 0.0089996932074427605 0.012899179942905903
vt 0.0090954350307583809 0.012899179942905903
vt 0.0091433059424161911 0.012899179942905903
vt 0.0090954350307583809 0.0064495899714529514
vt 0.0091433059424161911 0.0064495899714529514
vt 0.0061274510808289051 0
vt 0.0045955884270370007 0
vt 0.0061274510808289051 0.29880356788635254
vt 0.0045955884270370007 0.29880356788635254
vt 0.0015318627702072263 0
vt 0 0
vt 0.0015318627702072263 0.049019608646631241
vt 0 0.049019608646631241
vt 0.010723039507865906 0
vt 0.0091911768540740013 0
vt 0.010723039507865906 0.52352964878082275
vt 0.0091911768540740013 0.52352964878082275
vt 0.0045955884270370007 0
vt 0.0030637255404144526 0
vt 0.0045955884270370007 0.52352964878082275
vt 0.0030637255404144526 0.52352964878082275
vt 0.0030637255404144526 0
vt 0.0015318627702072263 0
vt 0.0030637255404144526 0.049019608646631241
vt 0.0015318627702072263 0.049019608646631241
vt 0.24691593647003174 0.0097895609214901924
vt 0.43010589480400085 0.3157133162021637
vt 0.3873615562915802 0.72565114498138428
vt 0.24691593647003174 0.98874557018280029
vt 0.19806529581546783 0.98874557018280029
vt 0.014875357039272785 0.499267578125
vt 0.19806529581546783 0.0097895609214901924
vn 0 0 -1
vn 0 0 -1
vn 0 0 -1
vn 0 0 -1
vn 0 0 -1
vn 0 0 -1
vn 0 0 -1
vn -0.85749292373657227 -0.51449573040008545 0
vn -0.85749292373657227 -0.51449573040008545 0
vn -0.85749292373657227 -0.51449573040008545 0
vn -0.85749292373657227 -0.51449573040008545 0
vn -0.99458646774291992 0.10391201823949814 0
vn -0.99458646774291992 0.10391201823949814 0
vn -0.99458646774291992 0.10391201823949814 0
vn -0.99458646774291992 0.10391201823949814 0
vn -0.99458646774291992 0.10391201823949814 0
vn -0.99458646774291992 0.10391201823949814 0
vn -0.99458646774291992 0.10391201823949814 0
vn -0.99458646774291992 0.10391201823949814 0
vn -0.99458646774291992 0.10391201823949814 0
vn -0.99458646774291992 0.10391201823949814 0
vn -0.99458646774291992 0.10391201823949814 0
vn -0.99458646774291992 0.10391201823949814 0
vn -0.99458646774291992 0.10391201823949814 0
vn -0.99458646774291992 0.10391201823949814 0
vn -0.99458646774291992 0.10391201823949814 0
vn -0.99458646774291992 0.10391201823949814 0
vn -0.99458646774291992 0.10391201823949814 0
vn -0.99458646774291992 0.10391201823949814 0
vn -0.99458646774291992 0.10391201823949814 0
vn -0.99458646774291992 0.10391201823949814 0
vn -0.99458646774291992 0.10391201823949814 0
vn -0.99458646774291992 0.10391201823949814 0
vn -0.99458646774291992 0.10391201823949814 0
vn -0.99458646774291992 0.10391201823949814 0
vn -0.99458646774291992 0.10391201823949814 0
vn -0.99458646774291992 0.10391201823949814 0
vn -0.99458646774291992 0.10391201823949814 0
vn -0.99458646774291992 0.10391201823949814 0
vn -0.99458646774291992 0.10391201823949814 0
vn -0.99458646774291992 0.10391201823949814 0
vn -0.99458646774291992 0.10391201823949814 0
vn -0.99458646774291992 0.10391201823949814 0
vn -0.99458646774291992 0.10391201823949814 0
vn -0.99458646774291992 0.10391201823949814 0
vn -0.99458646774291992 0.10391201823949814 0
vn -0.99458646774291992 0.10391201823949814 0
vn -0.99458646774291992 0.10391201823949814 0
vn -0.99458646774291992 0.10391201823949814 0
vn -0.99458646774291992 0.10391201823949814 0
vn -0.99458646774291992 0.10391201823949814 0
vn -0.99458646774291992 0.10391201823949814 0
vn -0.99458646774291992 0.10391201823949814 0
vn -0.99458646774291992 0.10391201823949814 0
vn -0.99458646774291992 0.10391201823949814 0
vn -0.99458646774291992 0.10391201823949814 0
vn -0.99458646774291992 0.10391201823949814 0
vn -0.99458646774291992 0.10391201823949814 0
vn -0.99458646774291992 0.10391201823949814 0
vn -0.99458646774291992 0.10391201823949814 0
vn -0.99458646774291992 0.10391201823949814 0
vn -0.99458646774291992 0.10391201823949814 0
vn -0.99458646774291992 0.10391201823949814 0
vn -0.88178461790084839 0.47165223956108093 0
vn -0.88178461790084839 0.47165223956108093 0
vn -0.88178461790084839 0.47165223956108093 0
vn -0.88178461790084839 0.47165223956108093 0
vn 0 1 0
vn 0 1 0
vn 0 1 0
vn 0 1 0
vn 0.936329185962677 0.35112345218658447 0
vn 0.936329185962677 0.35112345218658447 0
vn 0.936329185962677 0.35112345218658447 0
vn 0.936329185962677 0.35112345218658447 0
vn 0.936329185962677 -0.35112345218658447 0
vn 0.936329185962677 -0.35112345218658447 0
vn 0.936329185962677 -0.35112345218658447 0
vn 0.936329185962677 -0.35112345218658447 0
vn 0 -1 0
vn 0 -1 0
vn 0 -1 0
vn 0 -1 0
vn 0 0 1
vn 0 0 1
vn 0 0 1
vn 0 0 1
vn 0 0 1
vn 0 0 1
vn 0 0 1
f 153/153/153 159/159/159 155/155/155
f 154/154/154 159/159/159 153/153/153
f 157/157/157 159/159/159 158/158/158
f 159/159/159 157/157/157 156/156/156
f 155/155/155 159/159/159 156/156/156
f 161/161/161 160/160/160 162/162/162 163/163/163
f 202/202/202 204/204/204 203/203/203 201/201/201
f 199/199/199 201/201/201 200/200/200 198/198/198
f 196/196/196 198/198/198 197/197/197 195/195/195
f 193/193/193 195/195/195 194/194/194 192/192/192
f 192/192/192 194/194/194 206/206/206 205/205/205
f 206/206/206 208/208/208 209/209/209 207/207/207
f 209/209/209 211/211/211 212/212/212 210/210/210
f 212/212/212 214/214/214 215/215/215 213/213/213
f 191/191/191 189/189/189 188/188/188 190/190/190
f 188/188/188 186/186/186 185/185/185 187/187/187
f 185/185/185 183/183/183 182/182/182 184/184/184
f 182/182/182 181/181/181 168/168/168 169/169/169
f 169/169/169 168/168/168 170/170/170 171/171/171
f 172/172/172 171/171/171 173/173/173 174/174/174
f 175/175/175 174/174/174 176/176/176 177/177/177
f 178/178/178 177/177/177 179/179/179 180/180/180
f 215/215/215 164/164/164 213/213/213
f 213/213/213 179/179/179 176/176/176 210/210/210
f 214/214/214 164/164/164 215/215/215
f 211/211/211 214/214/214 212/212/212
f 214/214/214 203/203/203 165/165/165 164/164/164
f 212/212/212 213/213/213 210/210/210
f 211/211/211 200/200/200 203/203/203 214/214/214
f 209/209/209 210/210/210 207/207/207
f 210/210/210 176/176/176 173/173/173 207/207/207
f 194/194/194 208/208/208 206/206/206
f 205/205/205 206/206/206 207/207/207
f 197/197/197 208/208/208 194/194/194
f 207/207/207 173/173/173 170/170/170 205/205/205
f 211/211/211 209/209/209 208/208/208
f 179/179/179 213/213/213 164/164/164 166/166/166
f 208/208/208 197/197/197 200/200/200 211/211/211
f 201/201/201 203/203/203 200/200/200
f 202/202/202 165/165/165 204/204/204
f 203/203/203 204/204/204 165/165/165
f 202/202/202 189/189/189 167/167/167 165/165/165
f 202/202/202 201/201/201 199/199/199
f 197/197/197 194/194/194 195/195/195
f 196/196/196 199/199/199 198/198/198
f 193/193/193 181/181/181 183/183/183 196/196/196
f 196/196/196 195/195/195 193/193/193
f 189/189/189 202/202/202 199/199/199 186/186/186
f 193/193/193 192/192/192 168/168/168 181/181/181
f 200/200/200 197/197/197 198/198/198
f 186/186/186 199/199/199 196/196/196 183/183/183
f 192/192/192 205/205/205 170/170/170 168/168/168
f 174/174/174 173/173/173 176/176/176
f 173/173/173 171/171/171 170/170/170
f 180/180/180 179/179/179 166/166/166
f 178/178/178 180/180/180 166/166/166
f 172/172/172 174/174/174 175/175/175
f 175/175/175 187/187/187 184/184/184 172/172/172
f 177/177/177 178/178/178 175/175/175
f 178/178/178 190/190/190 187/187/187 175/175/175
f 166/166/166 167/167/167 190/190/190 178/178/178
f 179/179/179 177/177/177 176/176/176
f 172/172/172 169/169/169 171/171/171
f 184/184/184 182/182/182 169/169/169
f 183/183/183 181/181/181 182/182/182
f 187/187/187 185/185/185 184/184/184
f 186/186/186 183/183/183 185/185/185
f 184/184/184 169/169/169 172/172/172
f 190/190/190 188/188/188 187/187/187
f 189/189/189 186/186/186 188/188/188
f 189/189/189 191/191/191 167/167/167
f 190/190/190 167/167/167 191/191/191
f 217/217/217 216/216/216 218/218/218 219/219/219
f 221/221/221 220/220/220 222/222/222 223/223/223
f 225/225/225 224/224/224 226/226/226 227/227/227
f 229/229/229 228/228/228 230/230/230 231/231/231
f 233/233/233 232/232/232 234/234/234 235/235/235
f 236/236/236 242/242/242 238/238/238
f 237/237/237 236/236/236 238/238/238
f 240/240/240 239/239/239 238/238/238
f 238/238/238 241/241/241 240/240/240
f 242/242/242 241/241/241 238/238/238
o object_6
usemtl Plastic Black
v -1 -20 -2.25
v -8.5 -7.5 -2.25
v -6.75 9.25 -2.25
v -1 20 -2.25
v 1 20 -2.25
v 8.5 0 -2.25
v 1 -20 -2.25
vt 0.0098039219155907631 0.44232988357543945
vt 0.31617647409439087 0.0098039219155907631
vt 0.72671568393707275 0.11072664707899094
vt 0.99019604921340942 0.44232988357543945
vt 0.99019604921340942 0.55767011642456055
vt 0.5 0.99019604921340942
vt 0.0098039219155907631 0.55767011642456055
vn 0 0 -1
vn 0 0 -1
vn 0 0 -1
vn 0 0 -1
vn 0 0 -1
vn 0 0 -1
vn 0 0 -1
f 243/243/243 245/245/245 249/249/249
f 244/244/244 245/245/245 243/243/243
f 247/247/247 245/245/245 246/246/246
f 245/245/245 247/247/247 248/248/248
f 249/249/249 245/245/245 248/248/248
g Bar_virtual struts
o object_7
usemtl anodized
v 0.5 -25 -1
v 0.5 -22 -1
v -0.5 -25 -1
v -0.5 -22 -1
v -0.5 -25 -1
v -0.5 -22 -1
v -0.5 -25 0
v -0.5 -22 0
v -0.5 -25 0
v -0.5 -22 0
v 0.5 -25 0
v 0.5 -22 0
v 0.5 -25 0
v 0.5 -22 0
v 0.5 -25 -1
v 0.5 -22 -1
v 0.5 -25 -1
v -0.5 -25 -1
v -0.5 -25 0
v 0.5 -25 0
v 0.5 -22 -1
v -0.5 -22 -1
v -0.5 -22 0
v 0.5 -22 0
vt 0 0
vt 0 0.79999935626983643
vt 0.25 0
vt 0.25 0.79999935626983643
vt 0.25 0
vt 0.25 0.79999935626983643
vt 0.5 0
vt 0.5 0.79999935626983643
vt 0.5 0
vt 0.5 0.79999935626983643
vt 0.75 0
vt 0.75 0.79999935626983643
vt 0.75 0
vt 0.75 0.79999935626983643
vt 1 0
vt 1 0.79999935626983643
vt 0 1
vt 0.25 1
vt 0.25 0.80000013113021851
vt 0 0.80000013113021851
vt 0.75 0.80000013113021851
vt 1 0.80000013113021851
vt 1 1
vt 0.75 1
vn 0 0 -1
vn 0 0 -1
vn 0 0 -1
vn 0 0 -1
vn -1 0 0
vn -1 0 0
vn -1 0 0
vn -1 0 0
vn 0 0 1
vn 0 0 1
vn 0 0 1
vn 0 0 1
vn 1 0 0
vn 1 0 0
vn 1 0 0
vn 1 0 0
vn 0 -1 0
vn 0 -1 0
vn 0 -1 0
vn 0 -1 0
vn 0 1 0
vn 0 1 0
vn 0 1 0
vn 0 1 0
f 250/250/250 252/252/252 253/253/253 251/251/251
f 254/254/254 256/256/256 257/257/257 255/255/255
f 258/258/258 260/260/260 261/261/261 259/259/259
f 262/262/262 264/264/264 265/265/265 263/263/263
f 267/267/267 266/266/266 269/269/269
f 269/269/269 268/268/268 267/267/267
f 271/271/271 273/273/273 270/270/270
f 273/273/273 271/271/271 272/272/272
o object_8
usemtl anodized
v 0.5 25 -1
v 0.5 22 -1
v 0.5 25 0
v 0.5 22 0
v 0.5 25 0
v 0.5 22 0
v -0.5 25 0
v -0.5 22 0
v -0.5 25 0
v -0.5 22 0
v -0.5 25 -1
v -0.5 22 -1
v -0.5 25 -1
v -0.5 22 -1
v 0.5 25 -1
v 0.5 22 -1
v 0.5 25 -1
v 0.5 25 0
v -0.5 25 0
v -0.5 25 -1
v 0.5 22 -1
v 0.5 22 0
v -0.5 22 0
v -0.5 22 -1
vt 0 0
vt 0 0.79999935626983643
vt 0.25 0
vt 0.25 0.79999935626983643
vt 0.25 0
vt 0.25 0.79999935626983643
vt 0.5 0
vt 0.5 0.79999935626983643
vt 0.5 0
vt 0.5 0.79999935626983643
vt 0.75 0
vt 0.75 0.79999935626983643
vt 0.75 0
vt 0.75 0.79999935626983643
vt 1 0
vt 1 0.79999935626983643
vt 0.25 1
vt 0.25 0.80000013113021851
vt 0 0.80000013113021851
vt 0 1
vt 1 0.80000013113021851
vt 1 1
vt 0.75 1
vt 0.75 0.80000013113021851
vn 1 0 0
vn 1 0 0
vn 1 0 0
vn 1 0 0
vn 0 0 1
vn 0 0 1
vn 0 0 1
vn 0 0 1
vn -1 0 0
vn -1 0 0
vn -1 0 0
vn -1 0 0
vn 0 0 -1
vn 0 0 -1
vn 0 0 -1
vn 0 0 -1
vn 0 1 0
vn 0 1 0
vn 0 1 0
vn 0 1 0
vn 0 -1 0
vn 0 -1 0
vn 0 -1 0
vn 0 -1 0
f 274/274/274 276/276/276 277/277/277 275/275/275
f 278/278/278 280/280/280 281/281/281 279/279/279
f 282/282/282 284/284/284 285/285/285 283/283/283
f 286/286/286 288/288/288 289/289/289 287/287/287
f 290/290/290 293/293/293 292/292/292
f 292/292/292 291/291/291 290/290/290
f 294/294/294 296/296/296 297/297/297
f 296/296/296 294/294/294 295/295/295
o object_9
usemtl anodized
v 0.5 24 -2
v 0.5 -24 -2
v 0.5 24 -1
v 0.5 -24 -1
v 0.5 24 -1
v 0.5 -24 -1
v -0.5 24 -1
v -0.5 -24 -1
v -0.5 24 -1
v -0.5 -24 -1
v -0.5 24 -2
v -0.5 -24 -2
v -0.5 24 -2
v -0.5 -24 -2
v 0.5 24 -2
v 0.5 -24 -2
v 0.5 24 -2
v 0.5 24 -1
v -0.5 24 -1
v -0.5 24 -2
v 0.5 -24 -2
v 0.5 -24 -1
v -0.5 -24 -1
v -0.5 -24 -2
vt 0 0
vt 0 1
vt 0.20833316445350647 0
vt 0.20833316445350647 1
vt 0.20833316445350647 0
vt 0.20833316445350647 1
vt 0.41666632890701294 0
vt 0.41666632890701294 1
vt 0.41666632890701294 0
vt 0.41666632890701294 1
vt 0.62499946355819702 0
vt 0.62499946355819702 1
vt 0.62499946355819702 0
vt 0.62499946355819702 1
vt 0.83333265781402588 0
vt 0.83333265781402588 1
vt 1 0.02083333395421505
vt 1 0
vt 0.83333349227905273 0
vt 0.83333349227905273 0.02083333395421505
vt 1 0.97916668653488159
vt 1 1
vt 0.83333349227905273 1
vt 0.83333349227905273 0.97916668653488159
vn 1 0 0
vn 1 0 0
vn 1 0 0
vn 1 0 0
vn 0 0 1
vn 0 0 1
vn 0 0 1
vn 0 0 1
vn -1 0 0
vn -1 0 0
vn -1 0 0
vn -1 0 0
vn 0 0 -1
vn 0 0 -1
vn 0 0 -1
vn 0 0 -1
vn 0 1 0
vn 0 1 0
vn 0 1 0
vn 0 1 0
vn 0 -1 0
vn 0 -1 0
vn 0 -1 0
vn 0 -1 0
f 298/298/298 300/300/300 301/301/301 299/299/299
f 302/302/302 304/304/304 305/305/305 303/303/303
f 306/306/306 308/308/308 309/309/309 307/307/307
f 310/310/310 312/312/312 313/313/313 311/311/311
f 314/314/314 317/317/317 316/316/316
f 316/316/316 315/315/315 314/314/314
f 318/318/318 320/320/320 321/321/321
f 320/320/320 318/318/318 319/319/319
g Bar_virtual plates
o object_10
usemtl anodized
v 0.6875 -24 -2
v 0.5 -24 -2
v 0.6875 -24 0
v 0.5 -24 0
v 0.6875 -24 0
v 0.5 -24 0
v 0.6875 -22 0
v 0.5 -22 0
v 0.6875 -22 0
v 0.5 -22 0
v 0.6875 -22 -2
v 0.5 -22 -2
v 0.6875 -22 -2
v 0.5 -22 -2
v 0.6875 -24 -2
v 0.5 -24 -2
v 0.6875 -24 -2
v 0.6875 -24 0
v 0.6875 -22 0
v 0.6875 -22 -2
v 0.5 -24 -2
v 0.5 -24 0
v 0.5 -22 0
v 0.5 -22 -2
vt 0 0
vt 0 0.5223878026008606
vt 0.25 0
vt 0.25 0.5223878026008606
vt 0.25 0
vt 0.25 0.5223878026008606
vt 0.5 0
vt 0.5 0.5223878026008606
vt 0.5 0
vt 0.5 0.5223878026008606
vt 0.75 0
vt 0.75 0.5223878026008606
vt 0.75 0
vt 0.75 0.5223878026008606
vt 1 0
vt 1 0.5223878026008606
vt 0 1
vt 0.25 1
vt 0.25 0.5223882794380188
vt 0 0.5223882794380188
vt 0.75 0.5223882794380188
vt 1 0.5223882794380188
vt 1 1
vt 0.75 1
vn 0 -1 0
vn 0 -1 0
vn 0 -1 0
vn 0 -1 0
vn 0 0 1
vn 0 0 1
vn 0 0 1
vn 0 0 1
vn 0 1 0
vn 0 1 0
vn 0 1 0
vn 0 1 0
vn 0 0 -1
vn 0 0 -1
vn 0 0 -1
vn 0 0 -1
vn 1 0 0
vn 1 0 0
vn 1 0 0
vn 1 0 0
vn -1 0 0
vn -1 0 0
vn -1 0 0
vn -1 0 0
f 322/322/322 324/324/324 325/325/325 323/323/323
f 326/326/326 328/328/328 329/329/329 327/327/327
f 330/330/330 332/332/332 333/333/333 331/331/331
f 334/334/334 336/336/336 337/337/337 335/335/335
f 341/341/341 339/339/339 338/338/338
f 339/339/339 341/341/341 340/340/340
f 345/345/345 342/342/342 343/343/343
f 343/343/343 344/344/344 345/345/345
o object_11
usemtl anodized
v -0.6875 22 0
v -0.5 22 0
v -0.6875 22 -2
v -0.5 22 -2
v -0.6875 22 -2
v -0.5 22 -2
v -0.6875 24 -2
v -0.5 24 -2
v -0.6875 24 -2
v -0.5 24 -2
v -0.6875 24 0
v -0.5 24 0
v -0.6875 24 0
v -0.5 24 0
v -0.6875 22 0
v -0.5 22 0
v -0.6875 22 0
v -0.6875 22 -2
v -0.6875 24 -2
v -0.6875 24 0
v -0.5 22 0
v -0.5 22 -2
v -0.5 24 -2
v -0.5 24 0
vt 0 0
vt 0 0.5223878026008606
vt 0.25 0
vt 0.25 0.5223878026008606
vt 0.25 0
vt 0.25 0.5223878026008606
vt 0.5 0
vt 0.5 0.5223878026008606
vt 0.5 0
vt 0.5 0.5223878026008606
vt 0.75 0
vt 0.75 0.5223878026008606
vt 0.75 0
vt 0.75 0.5223878026008606
vt 1 0
vt 1 0.5223878026008606
vt 0 1
vt 0.25 1
vt 0.25 0.5223882794380188
vt 0 0.5223882794380188
vt 0.75 0.5223882794380188
vt 1 0.5223882794380188
vt 1 1
vt 0.75 1
vn 0 -1 0
vn 0 -1 0
vn 0 -1 0
vn 0 -1 0
vn 0 0 -1
vn 0 0 -1
vn 0 0 -1
vn 0 0 -1
vn 0 1 0
vn 0 1 0
vn 0 1 0
vn 0 1 0
vn 0 0 1
vn 0 0 1
vn 0 0 1
vn 0 0 1
vn -1 0 0
vn -1 0 0
vn -1 0 0
vn -1 0 0
vn 1 0 0
vn 1 0 0
vn 1 0 0
vn 1 0 0
f 346/346/346 348/348/348 349/349/349 347/347/347
f 350/350/350 352/352/352 353/353/353 351/351/351
f 354/354/354 356/356/356 357/357/357 355/355/355
f 358/358/358 360/360/360 361/361/361 359/359/359
f 365/365/365 363/363/363 362/362/362
f 363/363/363 365/365/365 364/364/364
f 369/369/369 366/366/366 367/367/367
f 367/367/367 368/368/368 369/369/369
o object_12
usemtl anodized
v 0.6875 1.5 -2
v 0.5 1.5 -2
v 0.6875 -1.5 -2
v 0.5 -1.5 -2
v 0.6875 -1.5 -2
v 0.5 -1.5 -2
v 0.6875 -1.5 -1
v 0.5 -1.5 -1
v 0.6875 -1.5 -1
v 0.5 -1.5 -1
v 0.6875 -0.5 1
v 0.5 -0.5 1
v 0.6875 -0.5 1
v 0.5 -0.5 1
v 0.6875 0.5 1
v 0.5 0.5 1
v 0.6875 0.5 1
v 0.5 0.5 1
v 0.6875 1.5 -1
v 0.5 1.5 -1
v 0.6875 1.5 -1
v 0.5 1.5 -1
v 0.6875 1.5 -2
v 0.5 1.5 -2
v 0.6875 1.5 -2
v 0.6875 -1.5 -2
v 0.6875 -1.5 -1
v 0.6875 -0.5 1
v 0.6875 0.5 1
v 0.6875 1.5 -1
v 0.5 1.5 -2
v 0.5 -1.5 -2
v 0.5 -1.5 -1
v 0.5 -0.5 1
v 0.5 0.5 1
v 0.5 1.5 -1
vt 0 0
vt 0 0.5151512622833252
vt 0.28647449612617493 0
vt 0.28647449612617493 0.5151512622833252
vt 0.28647449612617493 0
vt 0.28647449612617493 0.5151512622833252
vt 0.38196602463722229 0
vt 0.38196602463722229 0.5151512622833252
vt 0.38196602463722229 0
vt 0.38196602463722229 0.5151512622833252
vt 0.59549152851104736 0
vt 0.59549152851104736 0.5151512622833252
vt 0.59549152851104736 0
vt 0.59549152851104736 0.5151512622833252
vt 0.69098299741744995 0
vt 0.69098299741744995 0.5151512622833252
vt 0.69098299741744995 0
vt 0.69098299741744995 0.5151512622833252
vt 0.90450847148895264 0
vt 0.90450847148895264 0.5151512622833252
vt 0.90450847148895264 0
vt 0.90450847148895264 0.5151512622833252
vt 1 0
vt 1 0.5151512622833252
vt 0 0.5151517391204834
vt 0 1
vt 0.095491506159305573 1
vt 0.28647449612617493 0.83838391304016113
vt 0.28647449612617493 0.67676782608032227
vt 0.095491506159305573 0.5151517391204834
vt 0 1
vt 0 0.5151517391204834
vt 0.095491506159305573 0.5151517391204834
vt 0.28647449612617493 0.67676782608032227
vt 0.28647449612617493 0.83838391304016113
vt 0.095491506159305573 1
vn 0 0 -1
vn 0 0 -1
vn 0 0 -1
vn 0 0 -1
vn 0 -1 0
vn 0 -1 0
vn 0 -1 0
vn 0 -1 0
vn 0 -0.89442718029022217 0.44721359014511108
vn 0 -0.89442718029022217 0.44721359014511108
vn 0 -0.89442718029022217 0.44721359014511108
vn 0 -0.89442718029022217 0.44721359014511108
vn 0 0 1
vn 0 0 1
vn 0 0 1
vn 0 0 1
vn 0 0.89442718029022217 0.44721359014511108
vn 0 0.89442718029022217 0.44721359014511108
vn 0 0.89442718029022217 0.44721359014511108
vn 0 0.89442718029022217 0.44721359014511108
vn 0 1 0
vn 0 1 0
vn 0 1 0
vn 0 1 0
vn 1 0 0
vn 1 0 0
vn 1 0 0
vn 1 0 0
vn 1 0 0
vn 1 0 0
vn -1 0 0
vn -1 0 0
vn -1 0 0
vn -1 0 0
vn -1 0 0
vn -1 0 0
f 370/370/370 372/372/372 373/373/373 371/371/371
f 374/374/374 376/376/376 377/377/377 375/375/375
f 378/378/378 380/380/380 381/381/381 379/379/379
f 382/382/382 384/384/384 385/385/385 383/383/383
f 386/386/386 388/388/388 389/389/389 387/387/387
f 390/390/390 392/392/392 393/393/393 391/391/391
f 394/394/394 396/396/396 395/395/395
f 397/397/397 396/396/396 399/399/399
f 396/396/396 394/394/394 399/399/399
f 398/398/398 397/397/397 399/399/399
f 400/400/400 401/401/401 402/402/402
f 403/403/403 405/405/405 402/402/402
f 402/402/402 405/405/405 400/400/400
f 404/404/404 405/405/405 403/403/403
o object_13
usemtl anodized
v -0.6875 1.5 -2
v -0.5 1.5 -2
v -0.6875 1.5 -1
v -0.5 1.5 -1
v -0.6875 1.5 -1
v -0.5 1.5 -1
v -0.6875 0.5 1
v -0.5 0.5 1
v -0.6875 0.5 1
v -0.5 0.5 1
v -0.6875 -0.5 1
v -0.5 -0.5 1
v -0.6875 -0.5 1
v -0.5 -0.5 1
v -0.6875 -1.5 -1
v -0.5 -1.5 -1
v -0.6875 -1.5 -1
v -0.5 -1.5 -1
v -0.6875 -1.5 -2
v -0.5 -1.5 -2
v -0.6875 -1.5 -2
v -0.5 -1.5 -2
v -0.6875 1.5 -2
v -0.5 1.5 -2
v -0.6875 1.5 -2
v -0.6875 1.5 -1
v -0.6875 0.5 1
v -0.6875 -0.5 1
v -0.6875 -1.5 -1
v -0.6875 -1.5 -2
v -0.5 1.5 -2
v -0.5 1.5 -1
v -0.5 0.5 1
v -0.5 -0.5 1
v -0.5 -1.5 -1
v -0.5 -1.5 -2
vt 0 0
vt 0 0.5151512622833252
vt 0.095491506159305573 0
vt 0.095491506159305573 0.5151512622833252
vt 0.095491506159305573 0
vt 0.095491506159305573 0.5151512622833252
vt 0.30901700258255005 0
vt 0.30901700258255005 0.5151512622833252
vt 0.30901700258255005 0
vt 0.30901700258255005 0.5151512622833252
vt 0.40450850129127502 0
vt 0.40450850129127502 0.5151512622833252
vt 0.40450850129127502 0
vt 0.40450850129127502 0.5151512622833252
vt 0.6180340051651001 0
vt 0.6180340051651001 0.5151512622833252
vt 0.6180340051651001 0
vt 0.6180340051651001 0.5151512622833252
vt 0.71352547407150269 0
vt 0.71352547407150269 0.5151512622833252
vt 0.71352547407150269 0
vt 0.71352547407150269 0.5151512622833252
vt 1 0
vt 1 0.5151512622833252
vt 0 1
vt 0.095491506159305573 1
vt 0.28647449612617493 0.83838391304016113
vt 0.28647449612617493 0.67676782608032227
vt 0.095491506159305573 0.5151517391204834
vt 0 0.5151517391204834
vt 0 0.5151517391204834
vt 0.095491506159305573 0.5151517391204834
vt 0.28647449612617493 0.67676782608032227
vt 0.28647449612617493 0.83838391304016113
vt 0.095491506159305573 1
vt 0 1
vn 0 1 0
vn 0 1 0
vn 0 1 0
vn 0 1 0
vn 0 0.89442718029022217 0.44721359014511108
vn 0 0.89442718029022217 0.44721359014511108
vn 0 0.89442718029022217 0.44721359014511108
vn 0 0.89442718029022217 0.44721359014511108
vn 0 0 1
vn 0 0 1
vn 0 0 1
vn 0 0 1
vn 0 -0.89442718029022217 0.44721359014511108
vn 0 -0.89442718029022217 0.44721359014511108
vn 0 -0.89442718029022217 0.44721359014511108
vn 0 -0.89442718029022217 0.44721359014511108
vn 0 -1 0
vn 0 -1 0
vn 0 -1 0
vn 0 -1 0
vn 0 0 -1
vn 0 0 -1
vn 0 0 -1
vn 0 0 -1
vn -1 0 0
vn -1 0 0
vn -1 0 0
vn -1 0 0
vn -1 0 0
vn -1 0 0
vn 1 0 0
vn 1 0 0
vn 1 0 0
vn 1 0 0
vn 1 0 0
vn 1 0 0
f 406/406/406 408/408/408 409/409/409 407/407/407
f 410/410/410 412/412/412 413/413/413 411/411/411
f 414/414/414 416/416/416 417/417/417 415/415/415
f 418/418/418 420/420/420 421/421/421 419/419/419
f 422/422/422 424/424/424 425/425/425 423/423/423
f 426/426/426 428/428/428 429/429/429 427/427/427
f 434/434/434 431/431/431 430/430/430
f 432/432/432 431/431/431 433/433/433
f 430/430/430 435/435/435 434/434/434
f 433/433/433 431/431/431 434/434/434
f 440/440/440 436/436/436 437/437/437
f 438/438/438 439/439/439 437/437/437
f 436/436/436 440/440/440 441/441/441
f 439/439/439 440/440/440 437/437/437
g Bar_virtual pin
o object_14
usemtl anodized
v -2.5 -25 -4.875
v -2.5 -25 0.125
v 2.5 -25 -4.875
v 2.5 -25 0.125
v -2.375 -25 -4.75
v -2.375 -25 0
v 2.375 -25 -4.75
v 2.375 -25 0
v 2.5 -25 -4.875
v 2.5 -22 -4.875
v -2.5 -25 -4.875
v -2.5 -22 -4.875
v 2.5 -25 0.125
v 2.5 -22 0.125
v 2.5 -25 -4.875
v 2.5 -22 -4.875
v -2.5 -25 0.125
v -2.5 -22 0.125
v 2.5 -25 0.125
v 2.5 -22 0.125
v -2.5 -25 -4.875
v -2.5 -22 -4.875
v -2.5 -25 0.125
v -2.5 -22 0.125
v -2.375 -25 0
v -2.375 -22 0
v -2.375 -25 -4.75
v -2.375 -22 -4.75
v 2.375 -25 0
v 2.375 -22 0
v -2.375 -25 0
v -2.375 -22 0
v 2.375 -25 -4.75
v 2.375 -22 -4.75
v 2.375 -25 0
v 2.375 -22 0
v -2.375 -25 -4.75
v -2.375 -22 -4.75
v 2.375 -25 -4.75
v 2.375 -22 -4.75
v -2.5 -22 -4.875
v -2.5 -22 0.125
v 2.5 -22 -4.875
v 2.5 -22 0.125
v -2.375 -22 -4.75
v -2.375 -22 0
v 2.375 -22 0
v 2.375 -22 -4.75
vt 0.99853515625 0.453125
vt 0.6875 0.453125
vt 0.99853515625 0.765625
vt 0.6875 0.765625
vt 0.99075925350189209 0.4609375
vt 0.69527584314346313 0.4609375
vt 0.99075925350189209 0.7578125
vt 0.69527584314346313 0.7578125
vt 0.53125 0
vt 0.34375 0
vt 0.53125 0.31103515625
vt 0.34375 0.31103515625
vt 0.1875 0
vt 0 0
vt 0.1875 0.31103515625
vt 0 0.31103515625
vt 0 0.609375
vt 0 0.796875
vt 0.31103515625 0.609375
vt 0.31103515625 0.796875
vt 0 0.3125
vt 0 0.5
vt 0.31103515625 0.3125
vt 0.31103515625 0.5
vt 0.68603515625 0.3125
vt 0.5 0.3125
vt 0.68603515625 0.60791015625
vt 0.5 0.60791015625
vt 0.49853515625 0.3125
vt 0.3125 0.3125
vt 0.49853515625 0.60791015625
vt 0.3125 0.60791015625
vt 0.68603515625 0.609375
vt 0.5 0.609375
vt 0.68603515625 0.90478515625
vt 0.5 0.90478515625
vt 0.49853515625 0.609375
vt 0.3125 0.609375
vt 0.49853515625 0.90478515625
vt 0.3125 0.90478515625
vt 0.99853515625 0
vt 0.6875 0
vt 0.99853515625 0.3125
vt 0.6875 0.3125
vt 0.99075925350189209 0.0078125
vt 0.69527584314346313 0.0078125
vt 0.69527584314346313 0.3046875
vt 0.99075925350189209 0.3046875
vn 0 -1 0
vn 0 -1 0
vn 0 -1 0
vn 0 -1 0
vn 0 -1 0
vn 0 -1 0
vn 0 -1 0
vn 0 -1 0
vn 0 0 -1
vn 0 0 -1
vn 0 0 -1
vn 0 0 -1
vn 1 0 0
vn 1 0 0
vn 1 0 0
vn 1 0 0
vn 0 0 1
vn 0 0 1
vn 0 0 1
vn 0 0 1
vn -1 0 0
vn -1 0 0
vn -1 0 0
vn -1 0 0
vn 1 0 0
vn 1 0 0
vn 1 0 0
vn 1 0 0
vn 0 0 -1
vn 0 0 -1
vn 0 0 -1
vn 0 0 -1
vn -1 0 0
vn -1 0 0
vn -1 0 0
vn -1 0 0
vn 0 0 1
vn 0 0 1
vn 0 0 1
vn 0 0 1
vn 0 1 0
vn 0 1 0
vn 0 1 0
vn 0 1 0
vn 0 1 0
vn 0 1 0
vn 0 1 0
vn 0 1 0
f 443/443/443 442/442/442 446/446/446 447/447/447
f 442/442/442 444/444/444 448/448/448 446/446/446
f 447/447/447 449/449/449 445/445/445 443/443/443
f 444/444/444 445/445/445 449/449/449 448/448/448
f 451/451/451 450/450/450 452/452/452 453/453/453
f 455/455/455 454/454/454 456/456/456 457/457/457
f 459/459/459 458/458/458 460/460/460 461/461/461
f 463/463/463 462/462/462 464/464/464 465/465/465
f 467/467/467 466/466/466 468/468/468 469/469/469
f 471/471/471 470/470/470 472/472/472 473/473/473
f 475/475/475 474/474/474 476/476/476 477/477/477
f 479/479/479 478/478/478 480/480/480 481/481/481
f 483/483/483 487/487/487 486/486/486 482/482/482
f 482/482/482 486/486/486 489/489/489 484/484/484
f 487/487/487 483/483/483 485/485/485 488/488/488
f 484/484/484 489/489/489 488/488/488 485/485/485
o object_15
usemtl anodized
v 2.5 25 -4.875
v 2.5 25 0.125
v -2.5 25 -4.875
v -2.5 25 0.125
v 2.375 25 -4.75
v 2.375 25 0
v -2.375 25 -4.75
v -2.375 25 0
v -2.5 25 -4.875
v -2.5 22 -4.875
v 2.5 25 -4.875
v 2.5 22 -4.875
v -2.5 25 0.125
v -2.5 22 0.125
v -2.5 25 -4.875
v -2.5 22 -4.875
v 2.5 25 0.125
v 2.5 22 0.125
v -2.5 25 0.125
v -2.5 22 0.125
v 2.5 25 -4.875
v 2.5 22 -4.875
v 2.5 25 0.125
v 2.5 22 0.125
v 2.375 25 0
v 2.375 22 0
v 2.375 25 -4.75
v 2.375 22 -4.75
v -2.375 25 0
v -2.375 22 0
v 2.375 25 0
v 2.375 22 0
v -2.375 25 -4.75
v -2.375 22 -4.75
v -2.375 25 0
v -2.375 22 0
v 2.375 25 -4.75
v 2.375 22 -4.75
v -2.375 25 -4.75
v -2.375 22 -4.75
v 2.5 22 -4.875
v 2.5 22 0.125
v -2.5 22 -4.875
v -2.5 22 0.125
v 2.375 22 -4.75
v 2.375 22 0
v -2.375 22 0
v -2.375 22 -4.75
vt 0.99853515625 0.453125
vt 0.6875 0.453125
vt 0.99853515625 0.765625
vt 0.6875 0.765625
vt 0.99075925350189209 0.4609375
vt 0.69527584314346313 0.4609375
vt 0.99075925350189209 0.7578125
vt 0.69527584314346313 0.7578125
vt 0.53125 0
vt 0.34375 0
vt 0.53125 0.31103515625
vt 0.34375 0.31103515625
vt 0.1875 0
vt 0 0
vt 0.1875 0.31103515625
vt 0 0.31103515625
vt 0 0.609375
vt 0 0.796875
vt 0.31103515625 0.609375
vt 0.31103515625 0.796875
vt 0 0.3125
vt 0 0.5
vt 0.31103515625 0.3125
vt 0.31103515625 0.5
vt 0.68603515625 0.3125
vt 0.5 0.3125
vt 0.68603515625 0.60791015625
vt 0.5 0.60791015625
vt 0.49853515625 0.3125
vt 0.3125 0.3125
vt 0.49853515625 0.60791015625
vt 0.3125 0.60791015625
vt 0.68603515625 0.609375
vt 0.5 0.609375
vt 0.68603515625 0.90478515625
vt 0.5 0.90478515625
vt 0.49853515625 0.609375
vt 0.3125 0.609375
vt 0.49853515625 0.90478515625
vt 0.3125 0.90478515625
vt 0.99853515625 0
vt 0.6875 0
vt 0.99853515625 0.3125
vt 0.6875 0.3125
vt 0.99075925350189209 0.0078125
vt 0.69527584314346313 0.0078125
vt 0.69527584314346313 0.3046875
vt 0.99075925350189209 0.3046875
vn 0 1 0
vn 0 1 0
vn 0 1 0
vn 0 1 0
vn 0 1 0
vn 0 1 0
vn 0 1 0
vn 0 1 0
vn 0 0 -1
vn 0 0 -1
vn 0 0 -1
vn 0 0 -1
vn -1 0 0
vn -1 0 0
vn -1 0 0
vn -1 0 0
vn 0 0 1
vn 0 0 1
vn 0 0 1
vn 0 0 1
vn 1 0 0
vn 1 0 0
vn 1 0 0
vn 1 0 0
vn -1 0 0
vn -1 0 0
vn -1 0 0
vn -1 0 0
vn 0 0 -1
vn 0 0 -1
vn 0 0 -1
vn 0 0 -1
vn 1 0 0
vn 1 0 0
vn 1 0 0
vn 1 0 0
vn 0 0 1
vn 0 0 1
vn 0 0 1
vn 0 0 1
vn 0 -1 0
vn 0 -1 0
vn 0 -1 0
vn 0 -1 0
vn 0 -1 0
vn 0 -1 0
vn 0 -1 0
vn 0 -1 0
f 491/491/491 490/490/490 494/494/494 495/495/495
f 490/490/490 492/492/492 496/496/496 494/494/494
f 495/495/495 497/497/497 493/493/493 491/491/491
f 492/492/492 493/493/493 497/497/497 496/496/496
f 499/499/499 498/498/498 500/500/500 501/501/501
f 503/503/503 502/502/502 504/504/504 505/505/505
f 507/507/507 506/506/506 508/508/508 509/509/509
f 511/511/511 510/510/510 512/512/512 513/513/513
f 515/515/515 514/514/514 516/516/516 517/517/517
f 519/519/519 518/518/518 520/520/520 521/521/521
f 523/523/523 522/522/522 524/524/524 525/525/525
f 527/527/527 526/526/526 528/528/528 529/529/529
f 531/531/531 535/535/535 534/534/534 530/530/530
f 530/530/530 534/534/534 537/537/537 532/532/532
f 535/535/535 531/531/531 533/533/533 536/536/536
f 532/532/532 537/537/537 536/536/536 533/533/533
g Bar_virtual pin_collar
o object_16
usemtl anodized
v 0.75 23.5 -6.75
v 0.75 23.5 -5.625
v 0.6937674880027771 23.784933090209961 -6.75
v 0.6937674880027771 23.784933090209961 -5.625
v 0.52477771043777466 24.035825729370117 -6.75
v 0.52477771043777466 24.035825729370117 -5.625
v 0.2725871205329895 24.198709487915039 -6.75
v 0.2725871205329895 24.198709487915039 -5.625
v -9.0556540044417488E-10 24.25 -6.75
v -9.0556540044417488E-10 24.25 -5.625
v -0.28493282198905945 24.193767547607422 -6.75
v -0.28493282198905945 24.193767547607422 -5.625
v -0.53582495450973511 24.024778366088867 -6.75
v -0.53582495450973511 24.024778366088867 -5.625
v -0.69871044158935547 23.772586822509766 -6.75
v -0.69871044158935547 23.772586822509766 -5.625
v -0.75 23.5 -6.75
v -0.75 23.5 -5.625
v -0.6937674880027771 23.215066909790039 -6.75
v -0.6937674880027771 23.215066909790039 -5.625
v -0.52477771043777466 22.964174270629883 -6.75
v -0.52477771043777466 22.964174270629883 -5.625
v -0.2725871205329895 22.801290512084961 -6.75
v -0.2725871205329895 22.801290512084961 -5.625
v -9.0556540044417488E-10 22.75 -6.75
v -9.0556540044417488E-10 22.75 -5.625
v 0.28493282198905945 22.806232452392578 -6.75
v 0.28493282198905945 22.806232452392578 -5.625
v 0.53582495450973511 22.975221633911133 -6.75
v 0.53582495450973511 22.975221633911133 -5.625
v 0.69871044158935547 23.227413177490234 -6.75
v 0.69871044158935547 23.227413177490234 -5.625
v 0.75 23.5 -6.75
v 0.75 23.5 -5.625
v 0.75 23.5 -6.75
v 0.6937674880027771 23.784933090209961 -6.75
v 0.52477771043777466 24.035825729370117 -6.75
v 0.2725871205329895 24.198709487915039 -6.75
v -9.0556540044417488E-10 24.25 -6.75
v -0.28493282198905945 24.193767547607422 -6.75
v -0.53582495450973511 24.024778366088867 -6.75
v -0.69871044158935547 23.772586822509766 -6.75
v -0.75 23.5 -6.75
v -0.6937674880027771 23.215066909790039 -6.75
v -0.52477771043777466 22.964174270629883 -6.75
v -0.2725871205329895 22.801290512084961 -6.75
v -9.0556540044417488E-10 22.75 -6.75
v 0.28493282198905945 22.806232452392578 -6.75
v 0.53582495450973511 22.975221633911133 -6.75
v 0.69871044158935547 23.227413177490234 -6.75
v -1.125 23.5 -3.75
v -1.125 23.5 -5.625
v -1.0406512022018433 23.927398681640625 -3.75
v -1.0406512022018433 23.927398681640625 -5.625
v -0.7871665358543396 24.303737640380859 -3.75
v -0.7871665358543396 24.303737640380859 -5.625
v -0.40888068079948425 24.548065185546875 -3.75
v -0.40888068079948425 24.548065185546875 -5.625
v -9.0556540044417488E-10 24.625 -3.75
v -9.0556540044417488E-10 24.625 -5.625
v 0.42739921808242798 24.540651321411133 -3.75
v 0.42739921808242798 24.540651321411133 -5.625
v 0.80373740196228027 24.287166595458984 -3.75
v 0.80373740196228027 24.287166595458984 -5.625
v 1.0480656623840332 23.908880233764648 -3.75
v 1.0480656623840332 23.908880233764648 -5.625
v 1.125 23.5 -3.75
v 1.125 23.5 -5.625
v 1.0406512022018433 23.072601318359375 -3.75
v 1.0406512022018433 23.072601318359375 -5.625
v 0.7871665358543396 22.696262359619141 -3.75
v 0.7871665358543396 22.696262359619141 -5.625
v 0.40888068079948425 22.451934814453125 -3.75
v 0.40888068079948425 22.451934814453125 -5.625
v -9.0556540044417488E-10 22.375 -3.75
v -9.0556540044417488E-10 22.375 -5.625
v -0.42739921808242798 22.459348678588867 -3.75
v -0.42739921808242798 22.459348678588867 -5.625
v -0.80373740196228027 22.712833404541016 -3.75
v -0.80373740196228027 22.712833404541016 -5.625
v -1.0480656623840332 23.091119766235352 -3.75
v -1.0480656623840332 23.091119766235352 -5.625
v -1.125 23.5 -3.75
v -1.125 23.5 -5.625
v -1.125 23.5 -4.6875
v -1.125 23.5 -4.6875
v -1.125 23.5 -3.75
v -1.0406512022018433 23.927398681640625 -3.75
v -0.7871665358543396 24.303737640380859 -3.75
v -0.40888068079948425 24.548065185546875 -3.75
v -9.0556540044417488E-10 24.625 -3.75
v 0.42739921808242798 24.540651321411133 -3.75
v 0.80373740196228027 24.287166595458984 -3.75
v 1.0480656623840332 23.908880233764648 -3.75
v 1.125 23.5 -3.75
v 1.0406512022018433 23.072601318359375 -3.75
v 0.7871665358543396 22.696262359619141 -3.75
v 0.40888068079948425 22.451934814453125 -3.75
v -9.0556540044417488E-10 22.375 -3.75
v -0.42739921808242798 22.459348678588867 -3.75
v -0.80373740196228027 22.712833404541016 -3.75
v -1.0480656623840332 23.091119766235352 -3.75
v 0.75 23.5 -5.625
v 0.6937674880027771 23.784933090209961 -5.625
v 0.52477771043777466 24.035825729370117 -5.625
v 0.2725871205329895 24.198709487915039 -5.625
v -9.0556540044417488E-10 24.25 -5.625
v -0.28493282198905945 24.193767547607422 -5.625
v -0.53582495450973511 24.024778366088867 -5.625
v -0.69871044158935547 23.772586822509766 -5.625
v -0.75 23.5 -5.625
v -0.6937674880027771 23.215066909790039 -5.625
v -0.52477771043777466 22.964174270629883 -5.625
v -0.2725871205329895 22.801290512084961 -5.625
v -9.0556540044417488E-10 22.75 -5.625
v 0.28493282198905945 22.806232452392578 -5.625
v 0.53582495450973511 22.975221633911133 -5.625
v 0.69871044158935547 23.227413177490234 -5.625
v -1.125 23.5 -5.625
v -1.0406512022018433 23.927398681640625 -5.625
v -0.7871665358543396 24.303737640380859 -5.625
v -0.40888068079948425 24.548065185546875 -5.625
v -9.0556540044417488E-10 24.625 -5.625
v 0.42739921808242798 24.540651321411133 -5.625
v 0.80373740196228027 24.287166595458984 -5.625
v 1.0480656623840332 23.908880233764648 -5.625
v 1.125 23.5 -5.625
v 1.0406512022018433 23.072601318359375 -5.625
v 0.7871665358543396 22.696262359619141 -5.625
v 0.40888068079948425 22.451934814453125 -5.625
v -9.0556540044417488E-10 22.375 -5.625
v -0.42739921808242798 22.459348678588867 -5.625
v -0.80373740196228027 22.712833404541016 -5.625
v -1.0480656623840332 23.091119766235352 -5.625
vt 0.44853514432907104 0
vt 0.30000001192092896 0
vt 0.44853514432907104 0.040528912097215652
vt 0.30000001192092896 0.040528912097215652
vt 0.44853514432907104 0.079529188573360443
vt 0.30000001192092896 0.079529188573360443
vt 0.44853514432907104 0.11830628663301468
vt 0.30000001192092896 0.11830628663301468
vt 0.44853514432907104 0.15708337724208832
vt 0.30000001192092896 0.15708337724208832
vt 0.44853514432907104 0.19761230051517487
vt 0.30000001192092896 0.19761230051517487
vt 0.44853514432907104 0.23661257326602936
vt 0.30000001192092896 0.23661257326602936
vt 0.44853514432907104 0.27538967132568359
vt 0.30000001192092896 0.27538967132568359
vt 0.44853514432907104 0.31416675448417664
vt 0.30000001192092896 0.31416675448417664
vt 0.44853514432907104 0.35469567775726318
vt 0.30000001192092896 0.35469567775726318
vt 0.44853514432907104 0.39369595050811768
vt 0.30000001192092896 0.39369595050811768
vt 0.44853514432907104 0.43247306346893311
vt 0.30000001192092896 0.43247306346893311
vt 0.44853514432907104 0.47125014662742615
vt 0.30000001192092896 0.47125014662742615
vt 0.44853514432907104 0.5117790699005127
vt 0.30000001192092896 0.5117790699005127
vt 0.44853514432907104 0.55077934265136719
vt 0.30000001192092896 0.55077934265136719
vt 0.44853514432907104 0.58955645561218262
vt 0.30000001192092896 0.58955645561218262
vt 0.44853514432907104 0.62833350896835327
vt 0.30000001192092896 0.62833350896835327
vt 0.64999997615814209 0.10000000149011612
vt 0.6425023078918457 0.1379910409450531
vt 0.61997038125991821 0.17144332826137543
vt 0.58634495735168457 0.19316139817237854
vt 0.55000001192092896 0.20000000298023224
vt 0.51200896501541138 0.19250233471393585
vt 0.47855666279792786 0.16997036337852478
vt 0.45683860778808594 0.13634493947029114
vt 0.44999998807907104 0.10000000149011612
vt 0.45749765634536743 0.06200895830988884
vt 0.4800296425819397 0.028556674718856812
vt 0.51365506649017334 0.0068386094644665718
vt 0.55000001192092896 0
vt 0.58799105882644653 0.0074976719915866852
vt 0.62144333124160767 0.030029643326997757
vt 0.64316141605377197 0.063655048608779907
vt 0.99853515625 0
vt 0.75 0
vt 0.99853515625 0.06069888174533844
vt 0.75 0.06069888174533844
vt 0.99853515625 0.11910837143659592
vt 0.75 0.11910837143659592
vt 0.99853515625 0.17718362808227539
vt 0.75 0.17718362808227539
vt 0.99853515625 0.23525886237621307
vt 0.75 0.23525886237621307
vt 0.99853515625 0.29595774412155151
vt 0.75 0.29595774412155151
vt 0.99853515625 0.35436725616455078
vt 0.75 0.35436725616455078
vt 0.99853515625 0.41244247555732727
vt 0.75 0.41244247555732727
vt 0.99853515625 0.47051772475242615
vt 0.75 0.47051772475242615
vt 0.99853515625 0.53121662139892578
vt 0.75 0.53121662139892578
vt 0.99853515625 0.58962607383728027
vt 0.75 0.58962607383728027
vt 0.99853515625 0.64770138263702393
vt 0.75 0.64770138263702393
vt 0.99853515625 0.70577657222747803
vt 0.75 0.70577657222747803
vt 0.99853515625 0.76647549867630005
vt 0.75 0.76647549867630005
vt 0.99853515625 0.82488495111465454
vt 0.75 0.82488495111465454
vt 0.99853515625 0.88296025991439819
vt 0.75 0.88296025991439819
vt 0.99853515625 0.94103544950485229
vt 0.75 0.94103544950485229
vt 0.874267578125 0
vt 0.874267578125 0.94103544950485229
vt 0.14926758408546448 0.30000001192092896
vt 0.092559270560741425 0.28875350952148438
vt 0.042625855654478073 0.25495553016662598
vt 0.010207826271653175 0.2045174241065979
vt 0 0.15000000596046448
vt 0.011191593483090401 0.09301343560218811
vt 0.044824521988630295 0.042835012078285217
vt 0.095016352832317352 0.01025791373103857
vt 0.14926758408546448 0
vt 0.20597589015960693 0.011246507987380028
vt 0.25590929388999939 0.045044463127851486
vt 0.28832733631134033 0.095482572913169861
vt 0.29853516817092896 0.15000000596046448
vt 0.28734356164932251 0.20698657631874084
vt 0.25371062755584717 0.25716498494148254
vt 0.20351879298686981 0.28974208235740662
vt 0.69877928495407104 0.52700012922286987
vt 0.69131821393966675 0.48900908231735229
vt 0.66889625787734985 0.45555678009986877
vt 0.63543504476547241 0.43383872509002686
vt 0.59926760196685791 0.42700013518333435
vt 0.56146204471588135 0.43449780344963074
vt 0.52817308902740479 0.45702975988388062
vt 0.5065610408782959 0.49065515398979187
vt 0.499755859375 0.52700012922286987
vt 0.5072169303894043 0.56499117612838745
vt 0.52963888645172119 0.59844344854354858
vt 0.56310009956359863 0.62016153335571289
vt 0.59926760196685791 0.62700009346008301
vt 0.6370730996131897 0.61950242519378662
vt 0.67036205530166626 0.59697049856185913
vt 0.69197410345077515 0.56334507465362549
vt 0.44999998807907104 0.52700012922286987
vt 0.46119159460067749 0.47001355886459351
vt 0.49482452869415283 0.41983512043952942
vt 0.54501634836196899 0.38725802302360535
vt 0.59926760196685791 0.3770001232624054
vt 0.65597587823867798 0.38824662566184998
vt 0.70590931177139282 0.42204457521438599
vt 0.73832732439041138 0.47248268127441406
vt 0.74853515625 0.52700012922286987
vt 0.73734354972839355 0.58398669958114624
vt 0.70371061563491821 0.63416510820388794
vt 0.65351879596710205 0.66674220561981201
vt 0.59926760196685791 0.67700010538101196
vt 0.54255926609039307 0.66575360298156738
vt 0.49262586236000061 0.63195568323135376
vt 0.46020781993865967 0.58151751756668091
vn 1 0 0
vn 1 0 0
vn 0.92502325773239136 0.37991040945053101 0
vn 0.92502325773239136 0.37991040945053101 0
vn 0.69970357418060303 0.71443325281143188 0
vn 0.69970357418060303 0.71443325281143188 0
vn 0.36344948410987854 0.93161392211914063 0
vn 0.36344948410987854 0.93161392211914063 0
vn 0 1 0
vn 0 1 0
vn -0.37991040945053101 0.92502325773239136 0
vn -0.37991040945053101 0.92502325773239136 0
vn -0.71443325281143188 0.69970357418060303 0
vn -0.71443325281143188 0.69970357418060303 0
vn -0.93161392211914063 0.36344948410987854 0
vn -0.93161392211914063 0.36344948410987854 0
vn -1 0 0
vn -1 0 0
vn -0.92502325773239136 -0.37991040945053101 0
vn -0.92502325773239136 -0.37991040945053101 0
vn -0.69970357418060303 -0.71443325281143188 0
vn -0.69970357418060303 -0.71443325281143188 0
vn -0.36344948410987854 -0.93161392211914063 0
vn -0.36344948410987854 -0.93161392211914063 0
vn 0 -1 0
vn 0 -1 0
vn 0.37991040945053101 -0.92502325773239136 0
vn 0.37991040945053101 -0.92502325773239136 0
vn 0.71443325281143188 -0.69970357418060303 0
vn 0.71443325281143188 -0.69970357418060303 0
vn 0.93161392211914063 -0.36344948410987854 0
vn 0.93161392211914063 -0.36344948410987854 0
vn 1 0 0
vn 1 0 0
vn 0 0 -1
vn 0 0 -1
vn 0 0 -1
vn 0 0 -1
vn 0 0 -1
vn 0 0 -1
vn 0 0 -1
vn 0 0 -1
vn 0 0 -1
vn 0 0 -1
vn 0 0 -1
vn 0 0 -1
vn 0 0 -1
vn 0 0 -1
vn 0 0 -1
vn 0 0 -1
vn -1 0 0
vn -1 0 0
vn -0.92502325773239136 0.37991040945053101 0
vn -0.92502325773239136 0.37991040945053101 0
vn -0.69970357418060303 0.71443325281143188 0
vn -0.69970357418060303 0.71443325281143188 0
vn -0.36344948410987854 0.93161392211914063 0
vn -0.36344948410987854 0.93161392211914063 0
vn 0 1 0
vn 0 1 0
vn 0.37991040945053101 0.92502325773239136 0
vn 0.37991040945053101 0.92502325773239136 0
vn 0.71443325281143188 0.69970357418060303 0
vn 0.71443325281143188 0.69970357418060303 0
vn 0.93161392211914063 0.36344948410987854 0
vn 0.93161392211914063 0.36344948410987854 0
vn 1 0 0
vn 1 0 0
vn 0.92502325773239136 -0.37991040945053101 0
vn 0.92502325773239136 -0.37991040945053101 0
vn 0.69970357418060303 -0.71443325281143188 0
vn 0.69970357418060303 -0.71443325281143188 0
vn 0.36344948410987854 -0.93161392211914063 0
vn 0.36344948410987854 -0.93161392211914063 0
vn 0 -1 0
vn 0 -1 0
vn -0.37991040945053101 -0.92502325773239136 0
vn -0.37991040945053101 -0.92502325773239136 0
vn -0.71443325281143188 -0.69970357418060303 0
vn -0.71443325281143188 -0.69970357418060303 0
vn -0.93161392211914063 -0.36344948410987854 0
vn -0.93161392211914063 -0.36344948410987854 0
vn -1 0 0
vn -1 0 0
vn -1 0 0
vn -1 0 0
vn 0 0 1
vn 0 0 1
vn 0 0 1
vn 0 0 1
vn 0 0 1
vn 0 0 1
vn 0 0 1
vn 0 0 1
vn 0 0 1
vn 0 0 1
vn 0 0 1
vn 0 0 1
vn 0 0 1
vn 0 0 1
vn 0 0 1
vn 0 0 1
vn 0 0 -1
vn 0 0 -1
vn 0 0 -1
vn 0 0 -1
vn 0 0 -1
vn 0 0 -1
vn 0 0 -1
vn 0 0 -1
vn 0 0 -1
vn 0 0 -1
vn 0 0 -1
vn 0 0 -1
vn 0 0 -1
vn 0 0 -1
vn 0 0 -1
vn 0 0 -1
vn 0 0 -1
vn 0 0 -1
vn 0 0 -1
vn 0 0 -1
vn 0 0 -1
vn 0 0 -1
vn 0 0 -1
vn 0 0 -1
vn 0 0 -1
vn 0 0 -1
vn 0 0 -1
vn 0 0 -1
vn 0 0 -1
vn 0 0 -1
vn 0 0 -1
vn 0 0 -1
f 540/540/540 541/541/541 539/539/539 538/538/538
f 544/544/544 545/545/545 543/543/543 542/542/542
f 542/542/542 543/543/543 541/541/541 540/540/540
f 548/548/548 549/549/549 547/547/547 546/546/546
f 552/552/552 553/553/553 551/551/551 550/550/550
f 550/550/550 551/551/551 549/549/549 548/548/548
f 546/546/546 547/547/547 545/545/545 544/544/544
f 554/554/554 555/555/555 553/553/553 552/552/552
f 558/558/558 559/559/559 557/557/557 556/556/556
f 562/562/562 563/563/563 561/561/561 560/560/560
f 560/560/560 561/561/561 559/559/559 558/558/558
f 566/566/566 567/567/567 565/565/565 564/564/564
f 570/570/570 571/571/571 569/569/569 568/568/568
f 568/568/568 569/569/569 567/567/567 566/566/566
f 564/564/564 565/565/565 563/563/563 562/562/562
f 556/556/556 557/557/557 555/555/555 554/554/554
f 587/587/587 586/586/586 585/585/585
f 584/584/584 587/587/587 585/585/585
f 587/587/587 583/583/583 573/573/573
f 583/583/583 587/587/587 584/584/584
f 583/583/583 582/582/582 581/581/581
f 581/581/581 580/580/580 583/583/583
f 572/572/572 587/587/587 573/573/573
f 576/576/576 574/574/574 573/573/573
f 574/574/574 576/576/576 575/575/575
f 579/579/579 576/576/576 573/573/573
f 580/580/580 579/579/579 583/583/583
f 579/579/579 578/578/578 577/577/577
f 579/579/579 577/577/577 576/576/576
f 573/573/573 583/583/583 579/579/579
f 622/622/622 588/588/588 590/590/590
f 594/594/594 595/595/595 593/593/593 592/592/592
f 592/592/592 593/593/593 591/591/591 590/590/590
f 598/598/598 599/599/599 597/597/597 596/596/596
f 602/602/602 603/603/603 601/601/601 600/600/600
f 603/603/603 602/602/602 604/604/604 605/605/605
f 600/600/600 601/601/601 599/599/599 598/598/598
f 596/596/596 597/597/597 595/595/595 594/594/594
f 591/591/591 589/589/589 622/622/622
f 590/590/590 591/591/591 622/622/622
f 608/608/608 609/609/609 607/607/607 606/606/606
f 612/612/612 613/613/613 611/611/611 610/610/610
f 610/610/610 611/611/611 609/609/609 608/608/608
f 616/616/616 617/617/617 615/615/615 614/614/614
f 623/623/623 618/618/618 620/620/620
f 618/618/618 619/619/619 617/617/617 616/616/616
f 614/614/614 615/615/615 613/613/613 612/612/612
f 619/619/619 618/618/618 623/623/623
f 606/606/606 607/607/607 605/605/605 604/604/604
f 623/623/623 621/621/621 619/619/619
f 630/630/630 629/629/629 628/628/628
f 630/630/630 632/632/632 631/631/631
f 630/630/630 627/627/627 634/634/634
f 627/627/627 630/630/630 628/628/628
f 627/627/627 626/626/626 625/625/625
f 625/625/625 638/638/638 627/627/627
f 632/632/632 630/630/630 634/634/634
f 627/627/627 636/636/636 634/634/634
f 634/634/634 636/636/636 635/635/635
f 638/638/638 636/636/636 627/627/627
f 638/638/638 624/624/624 639/639/639
f 638/638/638 625/625/625 624/624/624
f 638/638/638 637/637/637 636/636/636
f 634/634/634 633/633/633 632/632/632
f 661/661/661 662/662/662 642/642/642
f 641/641/641 642/642/642 662/662/662
f 660/660/660 661/661/661 643/643/643
f 642/642/642 643/643/643 661/661/661
f 640/640/640 663/663/663 664/664/664
f 663/663/663 640/640/640 641/641/641
f 640/640/640 664/664/664 655/655/655
f 662/662/662 663/663/663 641/641/641
f 659/659/659 660/660/660 644/644/644
f 643/643/643 644/644/644 660/660/660
f 659/659/659 645/645/645 658/658/658
f 645/645/645 659/659/659 644/644/644
f 658/658/658 646/646/646 657/657/657
f 656/656/656 657/657/657 647/647/647
f 646/646/646 647/647/647 657/657/657
f 645/645/645 646/646/646 658/658/658
f 654/654/654 655/655/655 665/665/665
f 664/664/664 665/665/665 655/655/655
f 654/654/654 666/666/666 653/653/653
f 666/666/666 654/654/654 665/665/665
f 653/653/653 667/667/667 652/652/652
f 651/651/651 652/652/652 668/668/668
f 667/667/667 668/668/668 652/652/652
f 666/666/666 667/667/667 653/653/653
f 671/671/671 648/648/648 649/649/649
f 648/648/648 671/671/671 656/656/656
f 671/671/671 649/649/649 670/670/670
f 647/647/647 648/648/648 656/656/656
f 650/650/650 651/651/651 669/669/669
f 668/668/668 669/669/669 651/651/651
f 649/649/649 650/650/650 670/670/670
f 669/669/669 670/670/670 650/650/650
o object_17
usemtl anodized
v 0.75 -23.5 -6.75
v 0.75 -23.5 -5.625
v 0.6937674880027771 -23.215066909790039 -6.75
v 0.6937674880027771 -23.215066909790039 -5.625
v 0.52477771043777466 -22.964174270629883 -6.75
v 0.52477771043777466 -22.964174270629883 -5.625
v 0.2725871205329895 -22.801290512084961 -6.75
v 0.2725871205329895 -22.801290512084961 -5.625
v 9.0556540044417488E-10 -22.75 -6.75
v 9.0556540044417488E-10 -22.75 -5.625
v -0.28493282198905945 -22.806232452392578 -6.75
v -0.28493282198905945 -22.806232452392578 -5.625
v -0.53582495450973511 -22.975221633911133 -6.75
v -0.53582495450973511 -22.975221633911133 -5.625
v -0.69871044158935547 -23.227413177490234 -6.75
v -0.69871044158935547 -23.227413177490234 -5.625
v -0.75 -23.5 -6.75
v -0.75 -23.5 -5.625
v -0.6937674880027771 -23.784933090209961 -6.75
v -0.6937674880027771 -23.784933090209961 -5.625
v -0.52477771043777466 -24.035825729370117 -6.75
v -0.52477771043777466 -24.035825729370117 -5.625
v -0.2725871205329895 -24.198709487915039 -6.75
v -0.2725871205329895 -24.198709487915039 -5.625
v 9.0556540044417488E-10 -24.25 -6.75
v 9.0556540044417488E-10 -24.25 -5.625
v 0.28493282198905945 -24.193767547607422 -6.75
v 0.28493282198905945 -24.193767547607422 -5.625
v 0.53582495450973511 -24.024778366088867 -6.75
v 0.53582495450973511 -24.024778366088867 -5.625
v 0.69871044158935547 -23.772586822509766 -6.75
v 0.69871044158935547 -23.772586822509766 -5.625
v 0.75 -23.5 -6.75
v 0.75 -23.5 -5.625
v 0.75 -23.5 -6.75
v 0.6937674880027771 -23.215066909790039 -6.75
v 0.52477771043777466 -22.964174270629883 -6.75
v 0.2725871205329895 -22.801290512084961 -6.75
v 9.0556540044417488E-10 -22.75 -6.75
v -0.28493282198905945 -22.806232452392578 -6.75
v -0.53582495450973511 -22.975221633911133 -6.75
v -0.69871044158935547 -23.227413177490234 -6.75
v -0.75 -23.5 -6.75
v -0.6937674880027771 -23.784933090209961 -6.75
v -0.52477771043777466 -24.035825729370117 -6.75
v -0.2725871205329895 -24.198709487915039 -6.75
v 9.0556540044417488E-10 -24.25 -6.75
v 0.28493282198905945 -24.193767547607422 -6.75
v 0.53582495450973511 -24.024778366088867 -6.75
v 0.69871044158935547 -23.772586822509766 -6.75
v -1.125 -23.5 -3.75
v -1.125 -23.5 -5.625
v -1.0406512022018433 -23.072601318359375 -3.75
v -1.0406512022018433 -23.072601318359375 -5.625
v -0.7871665358543396 -22.696262359619141 -3.75
v -0.7871665358543396 -22.696262359619141 -5.625
v -0.40888068079948425 -22.451934814453125 -3.75
v -0.40888068079948425 -22.451934814453125 -5.625
v 9.0556540044417488E-10 -22.375 -3.75
v 9.0556540044417488E-10 -22.375 -5.625
v 0.42739921808242798 -22.459348678588867 -3.75
v 0.42739921808242798 -22.459348678588867 -5.625
v 0.80373740196228027 -22.712833404541016 -3.75
v 0.80373740196228027 -22.712833404541016 -5.625
v 1.0480656623840332 -23.091119766235352 -3.75
v 1.0480656623840332 -23.091119766235352 -5.625
v 1.125 -23.5 -3.75
v 1.125 -23.5 -5.625
v 1.0406512022018433 -23.927398681640625 -3.75
v 1.0406512022018433 -23.927398681640625 -5.625
v 0.7871665358543396 -24.303737640380859 -3.75
v 0.7871665358543396 -24.303737640380859 -5.625
v 0.40888068079948425 -24.548065185546875 -3.75
v 0.40888068079948425 -24.548065185546875 -5.625
v 9.0556540044417488E-10 -24.625 -3.75
v 9.0556540044417488E-10 -24.625 -5.625
v -0.42739921808242798 -24.540651321411133 -3.75
v -0.42739921808242798 -24.540651321411133 -5.625
v -0.80373740196228027 -24.287166595458984 -3.75
v -0.80373740196228027 -24.287166595458984 -5.625
v -1.0480656623840332 -23.908880233764648 -3.75
v -1.0480656623840332 -23.908880233764648 -5.625
v -1.125 -23.5 -3.75
v -1.125 -23.5 -5.625
v -1.125 -23.5 -4.6875
v -1.125 -23.5 -4.6875
v -1.125 -23.5 -3.75
v -1.0406512022018433 -23.072601318359375 -3.75
v -0.7871665358543396 -22.696262359619141 -3.75
v -0.40888068079948425 -22.451934814453125 -3.75
v 9.0556540044417488E-10 -22.375 -3.75
v 0.42739921808242798 -22.459348678588867 -3.75
v 0.80373740196228027 -22.712833404541016 -3.75
v 1.0480656623840332 -23.091119766235352 -3.75
v 1.125 -23.5 -3.75
v 1.0406512022018433 -23.927398681640625 -3.75
v 0.7871665358543396 -24.303737640380859 -3.75
v 0.40888068079948425 -24.548065185546875 -3.75
v 9.0556540044417488E-10 -24.625 -3.75
v -0.42739921808242798 -24.540651321411133 -3.75
v -0.80373740196228027 -24.287166595458984 -3.75
v -1.0480656623840332 -23.908880233764648 -3.75
v 0.75 -23.5 -5.625
v 0.6937674880027771 -23.215066909790039 -5.625
v 0.52477771043777466 -22.964174270629883 -5.625
v 0.2725871205329895 -22.801290512084961 -5.625
v 9.0556540044417488E-10 -22.75 -5.625
v -0.28493282198905945 -22.806232452392578 -5.625
v -0.53582495450973511 -22.975221633911133 -5.625
v -0.69871044158935547 -23.227413177490234 -5.625
v -0.75 -23.5 -5.625
v -0.6937674880027771 -23.784933090209961 -5.625
v -0.52477771043777466 -24.035825729370117 -5.625
v -0.2725871205329895 -24.198709487915039 -5.625
v 9.0556540044417488E-10 -24.25 -5.625
v 0.28493282198905945 -24.193767547607422 -5.625
v 0.53582495450973511 -24.024778366088867 -5.625
v 0.69871044158935547 -23.772586822509766 -5.625
v -1.125 -23.5 -5.625
v -1.0406512022018433 -23.072601318359375 -5.625
v -0.7871665358543396 -22.696262359619141 -5.625
v -0.40888068079948425 -22.451934814453125 -5.625
v 9.0556540044417488E-10 -22.375 -5.625
v 0.42739921808242798 -22.459348678588867 -5.625
v 0.80373740196228027 -22.712833404541016 -5.625
v 1.0480656623840332 -23.091119766235352 -5.625
v 1.125 -23.5 -5.625
v 1.0406512022018433 -23.927398681640625 -5.625
v 0.7871665358543396 -24.303737640380859 -5.625
v 0.40888068079948425 -24.548065185546875 -5.625
v 9.0556540044417488E-10 -24.625 -5.625
v -0.42739921808242798 -24.540651321411133 -5.625
v -0.80373740196228027 -24.287166595458984 -5.625
v -1.0480656623840332 -23.908880233764648 -5.625
vt 0.44853514432907104 0
vt 0.30000001192092896 0
vt 0.44853514432907104 0.040528912097215652
vt 0.30000001192092896 0.040528912097215652
vt 0.44853514432907104 0.079529188573360443
vt 0.30000001192092896 0.079529188573360443
vt 0.44853514432907104 0.11830628663301468
vt 0.30000001192092896 0.11830628663301468
vt 0.44853514432907104 0.15708337724208832
vt 0.30000001192092896 0.15708337724208832
vt 0.44853514432907104 0.19761230051517487
vt 0.30000001192092896 0.19761230051517487
vt 0.44853514432907104 0.23661257326602936
vt 0.30000001192092896 0.23661257326602936
vt 0.44853514432907104 0.27538967132568359
vt 0.30000001192092896 0.27538967132568359
vt 0.44853514432907104 0.31416675448417664
vt 0.30000001192092896 0.31416675448417664
vt 0.44853514432907104 0.35469567775726318
vt 0.30000001192092896 0.35469567775726318
vt 0.44853514432907104 0.39369595050811768
vt 0.30000001192092896 0.39369595050811768
vt 0.44853514432907104 0.43247306346893311
vt 0.30000001192092896 0.43247306346893311
vt 0.44853514432907104 0.47125014662742615
vt 0.30000001192092896 0.47125014662742615
vt 0.44853514432907104 0.5117790699005127
vt 0.30000001192092896 0.5117790699005127
vt 0.44853514432907104 0.55077934265136719
vt 0.30000001192092896 0.55077934265136719
vt 0.44853514432907104 0.58955645561218262
vt 0.30000001192092896 0.58955645561218262
vt 0.44853514432907104 0.62833350896835327
vt 0.30000001192092896 0.62833350896835327
vt 0.64999997615814209 0.10000000149011612
vt 0.6425023078918457 0.1379910409450531
vt 0.61997038125991821 0.17144332826137543
vt 0.58634495735168457 0.19316139817237854
vt 0.55000001192092896 0.20000000298023224
vt 0.51200896501541138 0.19250233471393585
vt 0.47855666279792786 0.16997036337852478
vt 0.45683860778808594 0.13634493947029114
vt 0.44999998807907104 0.10000000149011612
vt 0.45749765634536743 0.06200895830988884
vt 0.4800296425819397 0.028556674718856812
vt 0.51365506649017334 0.0068386094644665718
vt 0.55000001192092896 0
vt 0.58799105882644653 0.0074976719915866852
vt 0.62144333124160767 0.030029643326997757
vt 0.64316141605377197 0.063655048608779907
vt 0.99853515625 0
vt 0.75 0
vt 0.99853515625 0.06069888174533844
vt 0.75 0.06069888174533844
vt 0.99853515625 0.11910837143659592
vt 0.75 0.11910837143659592
vt 0.99853515625 0.17718362808227539
vt 0.75 0.17718362808227539
vt 0.99853515625 0.23525886237621307
vt 0.75 0.23525886237621307
vt 0.99853515625 0.29595774412155151
vt 0.75 0.29595774412155151
vt 0.99853515625 0.35436725616455078
vt 0.75 0.35436725616455078
vt 0.99853515625 0.41244247555732727
vt 0.75 0.41244247555732727
vt 0.99853515625 0.47051772475242615
vt 0.75 0.47051772475242615
vt 0.99853515625 0.53121662139892578
vt 0.75 0.53121662139892578
vt 0.99853515625 0.58962607383728027
vt 0.75 0.58962607383728027
vt 0.99853515625 0.64770138263702393
vt 0.75 0.64770138263702393
vt 0.99853515625 0.70577657222747803
vt 0.75 0.70577657222747803
vt 0.99853515625 0.76647549867630005
vt 0.75 0.76647549867630005
vt 0.99853515625 0.82488495111465454
vt 0.75 0.82488495111465454
vt 0.99853515625 0.88296025991439819
vt 0.75 0.88296025991439819
vt 0.99853515625 0.94103544950485229
vt 0.75 0.94103544950485229
vt 0.874267578125 0
vt 0.874267578125 0.94103544950485229
vt 0.14926758408546448 0.30000001192092896
vt 0.092559270560741425 0.28875350952148438
vt 0.042625855654478073 0.25495553016662598
vt 0.010207826271653175 0.2045174241065979
vt 0 0.15000000596046448
vt 0.011191593483090401 0.09301343560218811
vt 0.044824521988630295 0.042835012078285217
vt 0.095016352832317352 0.01025791373103857
vt 0.14926758408546448 0
vt 0.20597589015960693 0.011246507987380028
vt 0.25590929388999939 0.045044463127851486
vt 0.28832733631134033 0.095482572913169861
vt 0.29853516817092896 0.15000000596046448
vt 0.28734356164932251 0.20698657631874084
vt 0.25371062755584717 0.25716498494148254
vt 0.20351879298686981 0.28974208235740662
vt 0.69877928495407104 0.52700012922286987
vt 0.69131821393966675 0.48900908231735229
vt 0.66889625787734985 0.45555678009986877
vt 0.63543504476547241 0.43383872509002686
vt 0.59926760196685791 0.42700013518333435
vt 0.56146204471588135 0.43449780344963074
vt 0.52817308902740479 0.45702975988388062
vt 0.5065610408782959 0.49065515398979187
vt 0.499755859375 0.52700012922286987
vt 0.5072169303894043 0.56499117612838745
vt 0.52963888645172119 0.59844344854354858
vt 0.56310009956359863 0.62016153335571289
vt 0.59926760196685791 0.62700009346008301
vt 0.6370730996131897 0.61950242519378662
vt 0.67036205530166626 0.59697049856185913
vt 0.69197410345077515 0.56334507465362549
vt 0.44999998807907104 0.52700012922286987
vt 0.46119159460067749 0.47001355886459351
vt 0.49482452869415283 0.41983512043952942
vt 0.54501634836196899 0.38725802302360535
vt 0.59926760196685791 0.3770001232624054
vt 0.65597587823867798 0.38824662566184998
vt 0.70590931177139282 0.42204457521438599
vt 0.73832732439041138 0.47248268127441406
vt 0.74853515625 0.52700012922286987
vt 0.73734354972839355 0.58398669958114624
vt 0.70371061563491821 0.63416510820388794
vt 0.65351879596710205 0.66674220561981201
vt 0.59926760196685791 0.67700010538101196
vt 0.54255926609039307 0.66575360298156738
vt 0.49262586236000061 0.63195568323135376
vt 0.46020781993865967 0.58151751756668091
vn 1 0 0
vn 1 0 0
vn 0.92502325773239136 0.37991040945053101 0
vn 0.92502325773239136 0.37991040945053101 0
vn 0.69970357418060303 0.71443325281143188 0
vn 0.69970357418060303 0.71443325281143188 0
vn 0.36344948410987854 0.93161392211914063 0
vn 0.36344948410987854 0.93161392211914063 0
vn 0 1 0
vn 0 1 0
vn -0.37991040945053101 0.92502325773239136 0
vn -0.37991040945053101 0.92502325773239136 0
vn -0.71443325281143188 0.69970357418060303 0
vn -0.71443325281143188 0.69970357418060303 0
vn -0.93161392211914063 0.36344948410987854 0
vn -0.93161392211914063 0.36344948410987854 0
vn -1 0 0
vn -1 0 0
vn -0.92502325773239136 -0.37991040945053101 0
vn -0.92502325773239136 -0.37991040945053101 0
vn -0.69970357418060303 -0.71443325281143188 0
vn -0.69970357418060303 -0.71443325281143188 0
vn -0.36344948410987854 -0.93161392211914063 0
vn -0.36344948410987854 -0.93161392211914063 0
vn 0 -1 0
vn 0 -1 0
vn 0.37991040945053101 -0.92502325773239136 0
vn 0.37991040945053101 -0.92502325773239136 0
vn 0.71443325281143188 -0.69970357418060303 0
vn 0.71443325281143188 -0.69970357418060303 0
vn 0.93161392211914063 -0.36344948410987854 0
vn 0.93161392211914063 -0.36344948410987854 0
vn 1 0 0
vn 1 0 0
vn 0 0 -1
vn 0 0 -1
vn 0 0 -1
vn 0 0 -1
vn 0 0 -1
vn 0 0 -1
vn 0 0 -1
vn 0 0 -1
vn 0 0 -1
vn 0 0 -1
vn 0 0 -1
vn 0 0 -1
vn 0 0 -1
vn 0 0 -1
vn 0 0 -1
vn 0 0 -1
vn -1 0 0
vn -1 0 0
vn -0.92502325773239136 0.37991040945053101 0
vn -0.92502325773239136 0.37991040945053101 0
vn -0.69970357418060303 0.71443325281143188 0
vn -0.69970357418060303 0.71443325281143188 0
vn -0.36344948410987854 0.93161392211914063 0
vn -0.36344948410987854 0.93161392211914063 0
vn 0 1 0
vn 0 1 0
vn 0.37991040945053101 0.92502325773239136 0
vn 0.37991040945053101 0.92502325773239136 0
vn 0.71443325281143188 0.69970357418060303 0
vn 0.71443325281143188 0.69970357418060303 0
vn 0.93161392211914063 0.36344948410987854 0
vn 0.93161392211914063 0.36344948410987854 0
vn 1 0 0
vn 1 0 0
vn 0.92502325773239136 -0.37991040945053101 0
vn 0.92502325773239136 -0.37991040945053101 0
vn 0.69970357418060303 -0.71443325281143188 0
vn 0.69970357418060303 -0.71443325281143188 0
vn 0.36344948410987854 -0.93161392211914063 0
vn 0.36344948410987854 -0.93161392211914063 0
vn 0 -1 0
vn 0 -1 0
vn -0.37991040945053101 -0.92502325773239136 0
vn -0.37991040945053101 -0.92502325773239136 0
vn -0.71443325281143188 -0.69970357418060303 0
vn -0.71443325281143188 -0.69970357418060303 0
vn -0.93161392211914063 -0.36344948410987854 0
vn -0.93161392211914063 -0.36344948410987854 0
vn -1 0 0
vn -1 0 0
vn -1 0 0
vn -1 0 0
vn 0 0 1
vn 0 0 1
vn 0 0 1
vn 0 0 1
vn 0 0 1
vn 0 0 1
vn 0 0 1
vn 0 0 1
vn 0 0 1
vn 0 0 1
vn 0 0 1
vn 0 0 1
vn 0 0 1
vn 0 0 1
vn 0 0 1
vn 0 0 1
vn 0 0 -1
vn 0 0 -1
vn 0 0 -1
vn 0 0 -1
vn 0 0 -1
vn 0 0 -1
vn 0 0 -1
vn 0 0 -1
vn 0 0 -1
vn 0 0 -1
vn 0 0 -1
vn 0 0 -1
vn 0 0 -1
vn 0 0 -1
vn 0 0 -1
vn 0 0 -1
vn 0 0 -1
vn 0 0 -1
vn 0 0 -1
vn 0 0 -1
vn 0 0 -1
vn 0 0 -1
vn 0 0 -1
vn 0 0 -1
vn 0 0 -1
vn 0 0 -1
vn 0 0 -1
vn 0 0 -1
vn 0 0 -1
vn 0 0 -1
vn 0 0 -1
vn 0 0 -1
f 674/674/674 675/675/675 673/673/673 672/672/672
f 678/678/678 679/679/679 677/677/677 676/676/676
f 676/676/676 677/677/677 675/675/675 674/674/674
f 682/682/682 683/683/683 681/681/681 680/680/680
f 686/686/686 687/687/687 685/685/685 684/684/684
f 684/684/684 685/685/685 683/683/683 682/682/682
f 680/680/680 681/681/681 679/679/679 678/678/678
f 688/688/688 689/689/689 687/687/687 686/686/686
f 692/692/692 693/693/693 691/691/691 690/690/690
f 696/696/696 697/697/697 695/695/695 694/694/694
f 694/694/694 695/695/695 693/693/693 692/692/692
f 700/700/700 701/701/701 699/699/699 698/698/698
f 704/704/704 705/705/705 703/703/703 702/702/702
f 702/702/702 703/703/703 701/701/701 700/700/700
f 698/698/698 699/699/699 697/697/697 696/696/696
f 690/690/690 691/691/691 689/689/689 688/688/688
f 720/720/720 719/719/719 718/718/718
f 721/721/721 720/720/720 718/718/718
f 718/718/718 714/714/714 721/721/721
f 716/716/716 718/718/718 717/717/717
f 718/718/718 716/716/716 715/715/715
f 714/714/714 718/718/718 715/715/715
f 707/707/707 706/706/706 721/721/721
f 721/721/721 711/711/711 708/708/708
f 708/708/708 710/710/710 709/709/709
f 710/710/710 708/708/708 711/711/711
f 712/712/712 714/714/714 713/713/713
f 714/714/714 712/712/712 711/711/711
f 714/714/714 711/711/711 721/721/721
f 707/707/707 721/721/721 708/708/708
f 756/756/756 722/722/722 724/724/724
f 728/728/728 729/729/729 727/727/727 726/726/726
f 726/726/726 727/727/727 725/725/725 724/724/724
f 732/732/732 733/733/733 731/731/731 730/730/730
f 736/736/736 737/737/737 735/735/735 734/734/734
f 737/737/737 736/736/736 738/738/738 739/739/739
f 734/734/734 735/735/735 733/733/733 732/732/732
f 730/730/730 731/731/731 729/729/729 728/728/728
f 725/725/725 723/723/723 756/756/756
f 724/724/724 725/725/725 756/756/756
f 742/742/742 743/743/743 741/741/741 740/740/740
f 746/746/746 747/747/747 745/745/745 744/744/744
f 744/744/744 745/745/745 743/743/743 742/742/742
f 750/750/750 751/751/751 749/749/749 748/748/748
f 757/757/757 752/752/752 754/754/754
f 752/752/752 753/753/753 751/751/751 750/750/750
f 748/748/748 749/749/749 747/747/747 746/746/746
f 753/753/753 752/752/752 757/757/757
f 740/740/740 741/741/741 739/739/739 738/738/738
f 757/757/757 755/755/755 753/753/753
f 764/764/764 763/763/763 769/769/769
f 767/767/767 765/765/765 764/764/764
f 769/769/769 763/763/763 760/760/760
f 761/761/761 763/763/763 762/762/762
f 760/760/760 763/763/763 761/761/761
f 759/759/759 758/758/758 760/760/760
f 767/767/767 766/766/766 765/765/765
f 769/769/769 768/768/768 767/767/767
f 769/769/769 760/760/760 773/773/773
f 770/770/770 769/769/769 771/771/771
f 758/758/758 773/773/773 760/760/760
f 773/773/773 772/772/772 771/771/771
f 773/773/773 771/771/771 769/769/769
f 767/767/767 764/764/764 769/769/769
f 795/795/795 796/796/796 776/776/776
f 775/775/775 776/776/776 796/796/796
f 794/794/794 795/795/795 777/777/777
f 776/776/776 777/777/777 795/795/795
f 774/774/774 797/797/797 798/798/798
f 797/797/797 774/774/774 775/775/775
f 774/774/774 798/798/798 789/789/789
f 796/796/796 797/797/797 775/775/775
f 793/793/793 794/794/794 778/778/778
f 777/777/777 778/778/778 794/794/794
f 793/793/793 779/779/779 792/792/792
f 779/779/779 793/793/793 778/778/778
f 792/792/792 780/780/780 791/791/791
f 790/790/790 791/791/791 781/781/781
f 780/780/780 781/781/781 791/791/791
f 779/779/779 780/780/780 792/792/792
f 788/788/788 789/789/789 799/799/799
f 798/798/798 799/799/799 789/789/789
f 788/788/788 800/800/800 787/787/787
f 800/800/800 788/788/788 799/799/799
f 787/787/787 801/801/801 786/786/786
f 785/785/785 786/786/786 802/802/802
f 801/801/801 802/802/802 786/786/786
f 800/800/800 801/801/801 787/787/787
f 805/805/805 782/782/782 783/783/783
f 782/782/782 805/805/805 790/790/790
f 805/805/805 783/783/783 804/804/804
f 781/781/781 782/782/782 790/790/790
f 784/784/784 785/785/785 803/803/803
f 802/802/802 803/803/803 785/785/785
f 783/783/783 784/784/784 804/804/804
f 803/803/803 804/804/804 784/784/784
