# Rhino

mtllib female-interiorled-upper-260316.mtl
g Fem_virtual LED_support surf_upper
o object_1
usemtl LED Support upper
v 1.4143353700637817 0.5425567626953125 -26.835664749145508
v 1.0403487682342529 0.61574435234069824 -26.463220596313477
v 0.66513967514038086 0.65423548221588135 -26.085952758789063
v 0.290535569190979 0.65752613544464111 -25.704793930053711
v -0.080787643790245056 0.62491041421890259 -25.321525573730469
v -0.44603821635246277 0.55571168661117554 -24.938041687011719
v -0.80254977941513062 0.44926050305366516 -24.556114196777344
v -1.1476560831069946 0.30488741397857666 -24.177515029907227
v -1.4793510437011719 0.12150901556015015 -23.803258895874023
v -1.7937251329421997 -0.10067044943571091 -23.436182022094727
v -2.0879645347595215 -0.36110234260559082 -23.076578140258789
v -2.3570353984832764 -0.65708506107330322 -22.727123260498047
v -2.5973925590515137 -0.98688673973083496 -22.388818740844727
v -2.8059260845184326 -1.3496419191360474 -22.061975479125977
v -2.978856086730957 -1.743823766708374 -21.747745513916016
v -3.1124031543731689 -2.1679055690765381 -21.447280883789063
v -3.2034876346588135 -2.6252107620239258 -21.158843994140625
v -3.2462022304534912 -3.0934593677520752 -20.894672393798828
v -3.2407736778259277 -3.5807287693023682 -20.644834518432617
v -3.1828930377960205 -4.0757708549499512 -20.410932540893555
v -3.0678660869598389 -4.5666203498840332 -20.194698333740234
v -2.8930916786193848 -5.034876823425293 -20.000276565551758
v -2.6556167602539063 -5.4678163528442383 -19.829029083251953
v -2.3524882793426514 -5.8527154922485352 -19.682310104370117
v -1.9849469661712646 -6.1738605499267578 -19.562587738037109
v -1.5421288013458252 -6.4291982650756836 -19.467840194702148
v -1.0536366701126099 -6.607640266418457 -19.401630401611328
v -0.53210705518722534 -6.7137794494628906 -19.36225700378418
v 0.0050515825860202312 -6.7483644485473633 -19.349435806274414
v 0.54205471277236938 -6.711827278137207 -19.363006591796875
v 1.0616452693939209 -6.6041884422302246 -19.402957916259766
v 1.5465661287307739 -6.425468921661377 -19.469278335571289
v 1.984296441078186 -6.1723127365112305 -19.563211441040039
v 2.3547966480255127 -5.8481569290161133 -19.684038162231445
v 2.6603462696075439 -5.4586706161499023 -19.832527160644531
v 2.8962163925170898 -5.0265989303588867 -20.003503799438477
v 3.0682861804962158 -4.5648770332336426 -20.195240020751953
v 3.182258129119873 -4.0812368392944336 -20.408170700073242
v 3.2409477233886719 -3.5878417491912842 -20.641010284423828
v 3.2471706867218018 -3.0968546867370605 -20.892477035522461
v 3.2043795585632324 -2.6248562335968018 -21.158653259277344
v 3.1138672828674316 -2.1698122024536133 -21.445587158203125
v 2.9807846546173096 -1.7464089393615723 -21.745365142822266
v 2.8078458309173584 -1.3516291379928589 -22.059831619262695
v 2.5985662937164307 -0.9873654842376709 -22.387870788574219
v 2.3572032451629639 -0.65631622076034546 -22.727466583251953
v 2.0875923633575439 -0.36005616188049316 -23.077438354492188
v 1.7935693264007568 -0.10016022622585297 -23.436611175537109
v 1.4793616533279419 0.12155168503522873 -23.803359985351563
v 1.1468747854232788 0.30489996075630188 -24.178375244140625
v 0.80091661214828491 0.44903352856636047 -24.557769775390625
v 0.44414100050926208 0.55495673418045044 -24.939855575561523
v 0.079201452434062958 0.62361931800842285 -25.32292366027832
v -0.29176962375640869 0.65595853328704834 -25.705791473388672
v -0.6661185622215271 0.65272641181945801 -26.086704254150391
v -1.0411916971206665 0.61467510461807251 -26.463911056518555
v -1.4143353700637817 0.5425567626953125 -26.835664749145508
v 0.70723342895507813 0.54627799987792969 -27.167766571044922
v 0.33409932255744934 0.57872754335403442 -26.795404434204102
v -0.03699164092540741 0.57588803768157959 -26.418979644775391
v -0.40409499406814575 0.53754502534866333 -26.039482116699219
v -0.76441627740859985 0.46337375044822693 -25.658742904663086
v -1.1150503158569336 0.35309243202209473 -25.278709411621094
v -1.453215479850769 0.20641233026981354 -24.901206970214844
v -1.776130199432373 0.023044699802994728 -24.528059005737305
v -2.0816154479980469 -0.19778755307197571 -24.160348892211914
v -2.3658273220062256 -0.45534965395927429 -23.800920486450195
v -2.626284122467041 -0.74864935874938965 -23.45002555847168
v -2.8586227893829346 -1.0742844343185425 -23.110214233398438
v -3.0598299503326416 -1.4299919605255127 -22.782394409179688
v -3.2272286415100098 -1.8144214153289795 -22.46681022644043
v -3.357555627822876 -2.2254862785339355 -22.164525985717773
v -3.4475476741790771 -2.6611006259918213 -21.876605987548828
v -3.4941837787628174 -3.1240530014038086 -21.601364135742188
v -3.4939088821411133 -3.5917391777038574 -21.350378036499023
v -3.4460175037384033 -4.0732507705688477 -21.113996505737305
v -3.3470840454101563 -4.5583329200744629 -20.893548965454102
v -3.1933584213256836 -5.03607177734375 -20.690486907958984
v -2.9836580753326416 -5.4893760681152344 -20.508506774902344
v -2.7159659862518311 -5.9067401885986328 -20.348667144775391
v -2.3882648944854736 -6.2766580581665039 -20.212028503417969
v -2.0028808116912842 -6.5847554206848145 -20.100687026977539
v -1.5489703416824341 -6.8296403884887695 -20.012588500976563
v -1.0551286935806274 -7.000788688659668 -19.951025009155273
v -0.5319095253944397 -7.1026029586791992 -19.914407730102539
v 0.0051325606182217598 -7.1357979774475098 -19.902477264404297
v 0.54203277826309204 -7.1007862091064453 -19.915084838867188
v 1.0633445978164673 -6.9975852966308594 -19.952219009399414
v 1.5536212921142578 -6.8262124061584473 -20.013875961303711
v 2.0023200511932373 -6.5834479331970215 -20.101207733154297
v 2.3907938003540039 -6.2724704742431641 -20.213582992553711
v 2.7211949825286865 -5.898125171661377 -20.351882934570313
v 2.9872159957885742 -5.4815549850463867 -20.511493682861328
v 3.1937038898468018 -5.0345339775085449 -20.690988540649414
v 3.3457646369934082 -4.5637984275817871 -20.890964508056641
v 3.4453206062316895 -4.0803489685058594 -21.110420227050781
v 3.4942934513092041 -3.5951874256134033 -21.348350524902344
v 3.4948251247406006 -3.1237552165985107 -21.601249694824219
v 3.4485428333282471 -2.6630971431732178 -21.875059127807617
v 3.3589470386505127 -2.2282195091247559 -22.162311553955078
v 3.2286844253540039 -1.8165813684463501 -22.464805603027344
v 3.0607306957244873 -1.4305919408798218 -22.781528472900391
v 2.8586983680725098 -1.0735493898391724 -23.110584259033203
v 2.6258971691131592 -0.74758964776992798 -23.450887680053711
v 2.3656365871429443 -0.45484855771064758 -23.801353454589844
v 2.0815839767456055 -0.19775120913982391 -24.160453796386719
v 1.77536940574646 0.023185627534985542 -24.528915405273438
v 1.4516425132751465 0.20646868646144867 -24.902858734130859
v 1.1132040023803711 0.35270896553993225 -25.28053092956543
v 0.76284706592559814 0.46246397495269775 -25.660165786743164
v 0.4028526246547699 0.53633737564086914 -26.04051399230957
v 0.035992715507745743 0.57468879222869873 -26.419767379760742
v -0.33496060967445374 0.57787799835205078 -26.796119689941406
v -0.70723533630371094 0.5462646484375 -27.167766571044922
v 0.00013154745101928711 0.54999923706054688 -27.499868392944336
v -0.37215009331703186 0.54171067476272583 -27.127588272094727
v -0.73912292718887329 0.49754062294960022 -26.752008438110352
v -1.0987255573272705 0.41756385564804077 -26.374170303344727
v -1.4480448961257935 0.30183711647987366 -25.995960235595703
v -1.784062385559082 0.1504732072353363 -25.619377136230469
v -2.1038811206817627 -0.036435853689908981 -25.246299743652344
v -2.4046041965484619 -0.2587980329990387 -24.878602981567383
v -2.6838798522949219 -0.51708412170410156 -24.517436981201172
v -2.9379291534423828 -0.81002885103225708 -24.165658950805664
v -3.1646037101745605 -1.1361963748931885 -23.82347297668457
v -3.3602101802825928 -1.4914838075637817 -23.493305206298828
v -3.5222675800323486 -1.8730971813201904 -23.175970077514648
v -3.6485311985015869 -2.2792010307312012 -22.871644973754883
v -3.7362549304962158 -2.7071490287780762 -22.581306457519531
v -3.7826919555664063 -3.1542954444885254 -22.305931091308594
v -3.7848796844482422 -3.6228952407836914 -22.04388427734375
v -3.7416155338287354 -4.0900192260742188 -21.806085586547852
v -3.6512613296508789 -4.565772533416748 -21.583156585693359
v -3.511275053024292 -5.0408949851989746 -21.376165390014648
v -3.3188507556915283 -5.5055232048034668 -21.186277389526367
v -3.0742242336273193 -5.9438753128051758 -21.01673698425293
v -2.7763149738311768 -6.3456640243530273 -20.868305206298828
v -2.4240415096282959 -6.7006001472473145 -20.741748809814453
v -2.0208144187927246 -6.9956502914428711 -20.638784408569336
v -1.5558120012283325 -7.2300825119018555 -20.557338714599609
v -1.056620717048645 -7.3939371109008789 -20.500419616699219
v -0.53171199560165405 -7.4914259910583496 -20.466558456420898
v 0.0052135386504232883 -7.523231029510498 -20.45551872253418
v 0.5420108437538147 -7.4897451400756836 -20.467161178588867
v 1.0650438070297241 -7.3909821510314941 -20.501482009887695
v 1.5606764554977417 -7.2269563674926758 -20.558473587036133
v 2.020343542098999 -6.9945831298828125 -20.639204025268555
v 2.4267909526824951 -6.6967835426330566 -20.743127822875977
v 2.7820439338684082 -6.3375802040100098 -20.871240615844727
v 3.0782153606414795 -5.9365115165710449 -21.019485473632813
v 3.3191213607788086 -5.5041909217834473 -21.186737060546875
v 3.5092713832855225 -5.0463595390319824 -21.373758316040039
v 3.649693489074707 -4.5728564262390137 -21.579828262329102
v 3.7414162158966064 -4.0935206413269043 -21.804225921630859
v 3.7852704524993896 -3.6226544380187988 -22.043846130371094
v 3.7832181453704834 -3.1563823223114014 -22.304529190063477
v 3.7371096611022949 -2.7100300788879395 -22.579256057739258
v 3.6495232582092285 -2.2815337181091309 -22.869781494140625
v 3.5228950977325439 -1.8738183975219727 -23.175186157226563
v 3.3601934909820557 -1.490782618522644 -23.493703842163086
v 3.1642017364501953 -1.1351231336593628 -23.824338912963867
v 2.9377038478851318 -0.80953687429428101 -24.166095733642578
v 2.6838064193725586 -0.51705414056777954 -24.517549514770508
v 2.4038639068603516 -0.25852870941162109 -24.87945556640625
v 2.1023683547973633 -0.03609616681933403 -25.247945785522461
v 1.7822669744491577 0.15046124160289764 -25.621206283569336
v 1.4464926719665527 0.30130863189697266 -25.997407913208008
v 1.0974749326705933 0.41671618819236755 -26.375236511230469
v 0.73810398578643799 0.49665117263793945 -26.752830505371094
v 0.37127047777175903 0.54108089208602905 -27.128328323364258
v -0.00013524293899536133 0.5499725341796875 -27.499868392944336
v -0.70697033405303955 0.55372047424316406 -27.83197021484375
v -1.0783995389938354 0.50469380617141724 -27.459772109985352
v -1.4412542581558228 0.41919320821762085 -27.085037231445313
v -1.7933560609817505 0.29758268594741821 -26.708860397338867
v -2.1316735744476318 0.14030046761035919 -26.33317756652832
v -2.4530744552612305 -0.052146036177873611 -25.960046768188477
v -2.7545468807220459 -0.2792840301990509 -25.591392517089844
v -3.0330784320831299 -0.54064077138900757 -25.229146957397461
v -3.286144495010376 -0.83638066053390503 -24.874526977539063
v -3.5100312232971191 -1.164708137512207 -24.5303955078125
v -3.7029232978820801 -1.5237432718276978 -24.196922302246094
v -3.861797571182251 -1.9086830615997314 -23.876396179199219
v -3.9847049713134766 -2.3162024021148682 -23.569543838500977
v -4.0698337554931641 -2.7439804077148438 -23.276477813720703
v -4.1149539947509766 -3.1888115406036377 -22.998086929321289
v -4.1178359985351563 -3.6474902629852295 -22.735256195068359
v -4.0755758285522461 -4.1217374801635742 -22.486404418945313
v -3.9893221855163574 -4.5882992744445801 -22.261791229248047
v -3.8565051555633545 -5.0582942962646484 -22.052316665649414
v -3.6754660606384277 -5.5234570503234863 -21.858781814575195
v -3.444343090057373 -5.9749741554260254 -21.68206787109375
v -3.1647906303405762 -6.3983750343322754 -21.524965286254883
v -2.8366639614105225 -6.7845878601074219 -21.387943267822266
v -2.4598178863525391 -7.1245427131652832 -21.271467208862305
v -2.0387482643127441 -7.4065451622009277 -21.176881790161133
v -1.5626535415649414 -7.6305246353149414 -21.102088928222656
v -1.0581127405166626 -7.7870855331420898 -21.049812316894531
v -0.53151446580886841 -7.8802490234375 -21.018709182739258
v 0.0052945166826248169 -7.9106645584106445 -21.00855827331543
v 0.54198890924453735 -7.8787040710449219 -21.01923942565918
v 1.0667431354522705 -7.7843790054321289 -21.050743103027344
v 1.5677316188812256 -7.6277003288269043 -21.103069305419922
v 2.0383670330047607 -7.4057183265686035 -21.177200317382813
v 2.4627883434295654 -7.1210970878601074 -21.272670745849609
v 2.8428928852081299 -6.7770347595214844 -21.390598297119141
v 3.1692147254943848 -6.3914675712585449 -21.527475357055664
v 3.4445390701293945 -5.9738478660583496 -21.682485580444336
v 3.6727781295776367 -5.5289211273193359 -21.85655403137207
v 3.8540666103363037 -5.065363883972168 -22.049238204956055
v 3.9885392189025879 -4.591853141784668 -22.260099411010742
v 4.0757155418395996 -4.1215534210205078 -22.486442565917969
v 4.1178936958312988 -3.6496672630310059 -22.734001159667969
v 4.1152725219726563 -3.1918404102325439 -22.99620246887207
v 4.0703620910644531 -2.7464859485626221 -23.274755477905273
v 3.9850594997406006 -2.317044734954834 -23.568843841552734
v 3.8616886138916016 -1.9080157279968262 -23.876823425292969
v 3.7025065422058105 -1.5226566791534424 -24.197788238525391
v 3.5097711086273193 -1.1642252206802368 -24.530838012695313
v 3.2860288619995117 -0.8363569974899292 -24.874645233154297
v 3.0323586463928223 -0.54024302959442139 -25.229995727539063
v 2.7530944347381592 -0.27866101264953613 -25.593034744262695
v 2.4513299465179443 -0.05178648978471756 -25.961881637573242
v 2.1301383972167969 0.14015328884124756 -26.334648132324219
v 1.7920972108840942 0.29709503054618835 -26.709959030151367
v 1.4402153491973877 0.41861358284950256 -27.085893630981445
v 1.0775015354156494 0.50428378582000732 -27.460536956787109
v 0.70696479082107544 0.553680419921875 -27.831972122192383
v -1.4140722751617432 0.55744171142578125 -28.164072036743164
v -1.7846488952636719 0.46767693758010864 -27.791955947875977
v -2.143385648727417 0.34084576368331909 -27.418064117431641
v -2.4879865646362305 0.17760153114795685 -27.043548583984375
v -2.8153021335601807 -0.021236173808574677 -26.670394897460938
v -3.1220865249633789 -0.25476527214050293 -26.300714492797852
v -3.4052126407623291 -0.52213221788406372 -25.936485290527344
v -3.6615524291992188 -0.82248347997665405 -25.579690933227539
v -3.888408899307251 -1.1556771993637085 -25.23161506652832
v -4.0821332931518555 -1.5193872451782227 -24.895133972167969
v -4.2412428855895996 -1.9112902879714966 -24.570369720458984
v -4.3633847236633301 -2.3258824348449707 -24.259487152099609
v -4.4471426010131836 -2.7593076229095459 -23.963119506835938
v -4.4911365509033203 -3.2087600231170654 -23.681312561035156
v -4.4936537742614746 -3.6704740524291992 -23.414865493774414
v -4.4529805183410645 -4.1406850814819336 -23.164581298828125
v -4.3662714958190918 -4.620579719543457 -22.928926467895508
v -4.2370290756225586 -5.0865788459777832 -22.717498779296875
v -4.0617489814758301 -5.550816535949707 -22.521476745605469
v -3.8396570682525635 -6.006019115447998 -22.341398239135742
v -3.5698351860046387 -6.4444255828857422 -22.177858352661133
v -3.255357027053833 -6.8528742790222168 -22.033195495605469
v -2.8970131874084473 -7.2235116958618164 -21.907581329345703
v -2.4955945014953613 -7.5484848022460938 -21.801185607910156
v -2.0566818714141846 -7.8174405097961426 -21.71497917175293
v -1.5694952011108398 -8.0309667587280273 -21.646839141845703
v -1.0596047639846802 -8.1802339553833008 -21.599206924438477
v -0.53131687641143799 -8.2690725326538086 -21.570858001708984
v 0.0053754951804876328 -8.2980976104736328 -21.561599731445313
v 0.54196691513061523 -8.2676630020141602 -21.571315765380859
v 1.0684423446655273 -8.1777753829956055 -21.600006103515625
v 1.5747867822647095 -8.0284442901611328 -21.647666931152344
v 2.0563905239105225 -7.8168535232543945 -21.71519660949707
v 2.4987854957580566 -7.54541015625 -21.802215576171875
v 2.9037415981292725 -7.2164897918701172 -21.909954071044922
v 3.2602143287658691 -6.8464241027832031 -22.035467147827148
v 3.5699565410614014 -6.443504810333252 -22.178234100341797
v 3.8362846374511719 -6.0114822387695313 -22.339347839355469
v 4.0584397315979004 -5.5578713417053223 -22.518648147583008
v 4.2356619834899902 -5.0901861190795898 -22.715972900390625
v 4.3661613464355469 -4.6204524040222168 -22.929039001464844
v 4.4525694847106934 -4.1429524421691895 -23.163473129272461
v 4.4934349060058594 -3.6736509799957275 -23.41314697265625
v 4.4912004470825195 -3.2114381790161133 -23.679729461669922
v 4.4472236633300781 -2.7602710723876953 -23.962501525878906
v 4.3631834983825684 -2.3252489566802979 -24.259941101074219
v 4.2408113479614258 -1.9101901054382324 -24.571237564086914
v 4.0818381309509277 -1.5189135074615479 -24.895580291748047
v 3.8882513046264648 -1.1556599140167236 -25.231739044189453
v 3.6608531475067139 -0.82195740938186646 -25.580535888671875
v 3.403820276260376 -0.52122586965560913 -25.938121795654297
v 3.1203930377960205 -0.25403422117233276 -26.302556991577148
v 2.8137838840484619 -0.021002059802412987 -26.671890258789063
v 2.4867193698883057 0.17747387290000916 -27.044681549072266
v 2.1423265933990479 0.34057596325874329 -27.418956756591797
v 1.7837326526641846 0.46748664975166321 -27.792745590209961
v 1.414064884185791 0.5573883056640625 -28.164073944091797
vt 0 0
vt 0 0.017873367294669151
vt 0 0.035713192075490952
vt 0 0.053559467196464539
vt 0 0.071411706507205963
vt 0 0.089263945817947388
vt 0 0.10711618512868881
vt 0 0.12496841698884964
vt 0 0.1428571492433548
vt 0 0.16072723269462585
vt 0 0.17862643301486969
vt 0 0.19647890329360962
vt 0 0.21428893506526947
vt 0 0.23209895193576813
vt 0 0.24990898370742798
vt 0 0.26771900057792664
vt 0 0.28571429848670959
vt 0 0.30317562818527222
vt 0 0.32080942392349243
vt 0 0.33863070607185364
vt 0 0.35665601491928101
vt 0 0.37468135356903076
vt 0 0.39270669221878052
vt 0 0.41073200106620789
vt 0 0.4285714328289032
vt 0 0.44674184918403625
vt 0 0.46461296081542969
vt 0 0.48242369294166565
vt 0 0.50018268823623657
vt 0 0.51794171333312988
vt 0 0.53570073843002319
vt 0 0.5534597635269165
vt 0 0.57142859697341919
vt 0 0.58941572904586792
vt 0 0.60762465000152588
vt 0 0.62559115886688232
vt 0 0.6433638334274292
vt 0 0.66113650798797607
vt 0 0.67890912294387817
vt 0 0.69668179750442505
vt 0 0.71428573131561279
vt 0 0.73219162225723267
vt 0 0.74996542930603027
vt 0 0.76779121160507202
vt 0 0.78566586971282959
vt 0 0.80354052782058716
vt 0 0.82141518592834473
vt 0 0.83928984403610229
vt 0 0.8571428656578064
vt 0 0.87506872415542603
vt 0 0.89296019077301025
vt 0 0.91082227230072021
vt 0 0.92865777015686035
vt 0 0.94649332761764526
vt 0 0.96432888507843018
vt 0 0.98216444253921509
vt 0 1
vt 0.25 0
vt 0.25 0.017873367294669151
vt 0.25 0.035713192075490952
vt 0.25 0.053559467196464539
vt 0.25 0.071411706507205963
vt 0.25 0.089263945817947388
vt 0.25 0.10711618512868881
vt 0.25 0.12496841698884964
vt 0.25 0.1428571492433548
vt 0.25 0.16072723269462585
vt 0.25 0.17862643301486969
vt 0.25 0.19647890329360962
vt 0.25 0.21428893506526947
vt 0.25 0.23209895193576813
vt 0.25 0.24990898370742798
vt 0.25 0.26771900057792664
vt 0.25 0.28571429848670959
vt 0.25 0.30317562818527222
vt 0.25 0.32080942392349243
vt 0.25 0.33863070607185364
vt 0.25 0.35665601491928101
vt 0.25 0.37468135356903076
vt 0.25 0.39270669221878052
vt 0.25 0.41073200106620789
vt 0.25 0.4285714328289032
vt 0.25 0.44674184918403625
vt 0.25 0.46461296081542969
vt 0.25 0.48242369294166565
vt 0.25 0.50018268823623657
vt 0.25 0.51794171333312988
vt 0.25 0.53570073843002319
vt 0.25 0.5534597635269165
vt 0.25 0.57142859697341919
vt 0.25 0.58941572904586792
vt 0.25 0.60762465000152588
vt 0.25 0.62559115886688232
vt 0.25 0.6433638334274292
vt 0.25 0.66113650798797607
vt 0.25 0.67890912294387817
vt 0.25 0.69668179750442505
vt 0.25 0.71428573131561279
vt 0.25 0.73219162225723267
vt 0.25 0.74996542930603027
vt 0.25 0.76779121160507202
vt 0.25 0.78566586971282959
vt 0.25 0.80354052782058716
vt 0.25 0.82141518592834473
vt 0.25 0.83928984403610229
vt 0.25 0.8571428656578064
vt 0.25 0.87506872415542603
vt 0.25 0.89296019077301025
vt 0.25 0.91082227230072021
vt 0.25 0.92865777015686035
vt 0.25 0.94649332761764526
vt 0.25 0.96432888507843018
vt 0.25 0.98216444253921509
vt 0.25 1
vt 0.5 0
vt 0.5 0.017873367294669151
vt 0.5 0.035713192075490952
vt 0.5 0.053559467196464539
vt 0.5 0.071411706507205963
vt 0.5 0.089263945817947388
vt 0.5 0.10711618512868881
vt 0.5 0.12496841698884964
vt 0.5 0.1428571492433548
vt 0.5 0.16072723269462585
vt 0.5 0.17862643301486969
vt 0.5 0.19647890329360962
vt 0.5 0.21428893506526947
vt 0.5 0.23209895193576813
vt 0.5 0.24990898370742798
vt 0.5 0.26771900057792664
vt 0.5 0.28571429848670959
vt 0.5 0.30317562818527222
vt 0.5 0.32080942392349243
vt 0.5 0.33863070607185364
vt 0.5 0.35665601491928101
vt 0.5 0.37468135356903076
vt 0.5 0.39270669221878052
vt 0.5 0.41073200106620789
vt 0.5 0.4285714328289032
vt 0.5 0.44674184918403625
vt 0.5 0.46461296081542969
vt 0.5 0.48242369294166565
vt 0.5 0.50018268823623657
vt 0.5 0.51794171333312988
vt 0.5 0.53570073843002319
vt 0.5 0.5534597635269165
vt 0.5 0.57142859697341919
vt 0.5 0.58941572904586792
vt 0.5 0.60762465000152588
vt 0.5 0.62559115886688232
vt 0.5 0.6433638334274292
vt 0.5 0.66113650798797607
vt 0.5 0.67890912294387817
vt 0.5 0.69668179750442505
vt 0.5 0.71428573131561279
vt 0.5 0.73219162225723267
vt 0.5 0.74996542930603027
vt 0.5 0.76779121160507202
vt 0.5 0.78566586971282959
vt 0.5 0.80354052782058716
vt 0.5 0.82141518592834473
vt 0.5 0.83928984403610229
vt 0.5 0.8571428656578064
vt 0.5 0.87506872415542603
vt 0.5 0.89296019077301025
vt 0.5 0.91082227230072021
vt 0.5 0.92865777015686035
vt 0.5 0.94649332761764526
vt 0.5 0.96432888507843018
vt 0.5 0.98216444253921509
vt 0.5 1
vt 0.75 0
vt 0.75 0.017873367294669151
vt 0.75 0.035713192075490952
vt 0.75 0.053559467196464539
vt 0.75 0.071411706507205963
vt 0.75 0.089263945817947388
vt 0.75 0.10711618512868881
vt 0.75 0.12496841698884964
vt 0.75 0.1428571492433548
vt 0.75 0.16072723269462585
vt 0.75 0.17862643301486969
vt 0.75 0.19647890329360962
vt 0.75 0.21428893506526947
vt 0.75 0.23209895193576813
vt 0.75 0.24990898370742798
vt 0.75 0.26771900057792664
vt 0.75 0.28571429848670959
vt 0.75 0.30317562818527222
vt 0.75 0.32080942392349243
vt 0.75 0.33863070607185364
vt 0.75 0.35665601491928101
vt 0.75 0.37468135356903076
vt 0.75 0.39270669221878052
vt 0.75 0.41073200106620789
vt 0.75 0.4285714328289032
vt 0.75 0.44674184918403625
vt 0.75 0.46461296081542969
vt 0.75 0.48242369294166565
vt 0.75 0.50018268823623657
vt 0.75 0.51794171333312988
vt 0.75 0.53570073843002319
vt 0.75 0.5534597635269165
vt 0.75 0.57142859697341919
vt 0.75 0.58941572904586792
vt 0.75 0.60762465000152588
vt 0.75 0.62559115886688232
vt 0.75 0.6433638334274292
vt 0.75 0.66113650798797607
vt 0.75 0.67890912294387817
vt 0.75 0.69668179750442505
vt 0.75 0.71428573131561279
vt 0.75 0.73219162225723267
vt 0.75 0.74996542930603027
vt 0.75 0.76779121160507202
vt 0.75 0.78566586971282959
vt 0.75 0.80354052782058716
vt 0.75 0.82141518592834473
vt 0.75 0.83928984403610229
vt 0.75 0.8571428656578064
vt 0.75 0.87506872415542603
vt 0.75 0.89296019077301025
vt 0.75 0.91082227230072021
vt 0.75 0.92865777015686035
vt 0.75 0.94649332761764526
vt 0.75 0.96432888507843018
vt 0.75 0.98216444253921509
vt 0.75 1
vt 1 0
vt 1 0.017873367294669151
vt 1 0.035713192075490952
vt 1 0.053559467196464539
vt 1 0.071411706507205963
vt 1 0.089263945817947388
vt 1 0.10711618512868881
vt 1 0.12496841698884964
vt 1 0.1428571492433548
vt 1 0.16072723269462585
vt 1 0.17862643301486969
vt 1 0.19647890329360962
vt 1 0.21428893506526947
vt 1 0.23209895193576813
vt 1 0.24990898370742798
vt 1 0.26771900057792664
vt 1 0.28571429848670959
vt 1 0.30317562818527222
vt 1 0.32080942392349243
vt 1 0.33863070607185364
vt 1 0.35665601491928101
vt 1 0.37468135356903076
vt 1 0.39270669221878052
vt 1 0.41073200106620789
vt 1 0.4285714328289032
vt 1 0.44674184918403625
vt 1 0.46461296081542969
vt 1 0.48242369294166565
vt 1 0.50018268823623657
vt 1 0.51794171333312988
vt 1 0.53570073843002319
vt 1 0.5534597635269165
vt 1 0.57142859697341919
vt 1 0.58941572904586792
vt 1 0.60762465000152588
vt 1 0.62559115886688232
vt 1 0.6433638334274292
vt 1 0.66113650798797607
vt 1 0.67890912294387817
vt 1 0.69668179750442505
vt 1 0.71428573131561279
vt 1 0.73219162225723267
vt 1 0.74996542930603027
vt 1 0.76779121160507202
vt 1 0.78566586971282959
vt 1 0.80354052782058716
vt 1 0.82141518592834473
vt 1 0.83928984403610229
vt 1 0.8571428656578064
vt 1 0.87506872415542603
vt 1 0.89296019077301025
vt 1 0.91082227230072021
vt 1 0.92865777015686035
vt 1 0.94649332761764526
vt 1 0.96432888507843018
vt 1 0.98216444253921509
vt 1 1
vn 0.080231741070747375 0.98388314247131348 -0.15980266034603119
vn 0.011922738514840603 0.99067217111587524 -0.13574421405792236
vn -0.057619575411081314 0.99204689264297485 -0.11190590262413025
vn -0.12835289537906647 0.98783999681472778 -0.087736353278160095
vn -0.20005509257316589 0.97776901721954346 -0.06281445175409317
vn -0.27243936061859131 0.96146780252456665 -0.036829486489295959
vn -0.34518083930015564 0.93848711252212524 -0.0095990058034658432
vn -0.41786885261535645 0.90831112861633301 0.018881713971495628
vn -0.49012711644172668 0.87030333280563354 0.048450849950313568
vn -0.56056672334671021 0.82447195053100586 0.07753048837184906
vn -0.62815159559249878 0.77091169357299805 0.10545467585325241
vn -0.69178116321563721 0.70979702472686768 0.13276687264442444
vn -0.75054425001144409 0.6411513090133667 0.16002589464187622
vn -0.80352717638015747 0.56491869688034058 0.1876458078622818
vn -0.84958285093307495 0.48134204745292664 0.21568211913108826
vn -0.88755762577056885 0.39089840650558472 0.24380297958850861
vn -0.91665095090866089 0.29333403706550598 0.27148881554603577
vn -0.93540525436401367 0.19568105041980743 0.2944926917552948
vn -0.9447624683380127 0.094851620495319366 0.3137308657169342
vn -0.94301110506057739 -0.011733721010386944 0.3325543999671936
vn -0.92651057243347168 -0.12655581533908844 0.35434702038764954
vn -0.88981801271438599 -0.24974349141120911 0.38190579414367676
vn -0.82547587156295776 -0.38029429316520691 0.41709214448928833
vn -0.72536009550094604 -0.51271367073059082 0.45932275056838989
vn -0.58660608530044556 -0.63412106037139893 0.50376951694488525
vn -0.42695212364196777 -0.72603195905685425 0.53906351327896118
vn -0.27671989798545837 -0.78111433982849121 0.55972003936767578
vn -0.13486553728580475 -0.81016910076141357 0.57047110795974731
vn 0.001886158948764205 -0.81901818513870239 0.57376444339752197
vn 0.1386173814535141 -0.80959624052047729 0.57038509845733643
vn 0.27997741103172302 -0.78006166219711304 0.55956810712814331
vn 0.42905938625335693 -0.72486871480941772 0.53895580768585205
vn 0.58658283948898315 -0.63389945030212402 0.50407546758651733
vn 0.72605717182159424 -0.51169002056121826 0.45936286449432373
vn 0.82661455869674683 -0.37813085317611694 0.41680377721786499
vn 0.8902817964553833 -0.24824005365371704 0.38180512189865112
vn 0.92637652158737183 -0.12689414620399475 0.35457637906074524
vn 0.9428551197052002 -0.013616789132356644 0.33292463421821594
vn 0.94487768411636353 0.092827014625072479 0.31398940086364746
vn 0.93563556671142578 0.19458295404911041 0.29448869824409485
vn 0.9167981743812561 0.29313316941261292 0.2712084949016571
vn 0.88787513971328735 0.39030402898788452 0.24359901249408722
vn 0.85001397132873535 0.48065373301506042 0.21551848948001862
vn 0.80394327640533447 0.56438755989074707 0.18746159970760345
vn 0.75076615810394287 0.64096033573150635 0.15975010395050049
vn 0.69175463914871216 0.70989358425140381 0.13238808512687683
vn 0.62798285484313965 0.7711101770401001 0.10500770807266235
vn 0.5604022741317749 0.82462930679321289 0.077044568955898285
vn 0.48990678787231445 0.87045979499816895 0.047865435481071472
vn 0.41736489534378052 0.9085579514503479 0.018137097358703613
vn 0.34442782402038574 0.93875545263290405 -0.010376960970461369
vn 0.271627277135849 0.96167337894439697 -0.037456478923559189
vn 0.19938139617443085 0.97788721323013306 -0.063116595149040222
vn 0.12792189419269562 0.98790913820266724 -0.08758728951215744
vn 0.057522721588611603 0.99213200807571411 -0.11119875311851501
vn -0.011588551104068756 0.99086093902587891 -0.13438846170902252
vn -0.079215995967388153 0.98430871963500977 -0.15767410397529602
vn 0.046482030302286148 0.99505144357681274 -0.087818577885627747
vn -0.02298564650118351 0.99779152870178223 -0.062319479882717133
vn -0.093372464179992676 0.99493581056594849 -0.037206858396530151
vn -0.16462984681129456 0.98628377914428711 -0.011887304484844208
vn -0.23651835322380066 0.97152477502822876 0.014097332954406738
vn -0.30872470140457153 0.9502633810043335 0.041092492640018463
vn -0.38088721036911011 0.92201989889144897 0.069312870502471924
vn -0.45254713296890259 0.88625133037567139 0.098791256546974182
vn -0.52326512336730957 0.84228956699371338 0.12939026951789856
vn -0.59149724245071411 0.79044812917709351 0.15913134813308716
vn -0.65606409311294556 0.73119485378265381 0.18690644204616547
vn -0.71587193012237549 0.66487640142440796 0.21322926878929138
vn -0.77004975080490112 0.59166228771209717 0.23866119980812073
vn -0.81776076555252075 0.5116233229637146 0.26364541053771973
vn -0.85799586772918701 0.42511260509490967 0.28830942511558533
vn -0.88978445529937744 0.3326621949672699 0.3124411404132843
vn -0.91246658563613892 0.23398621380329132 0.33564141392707825
vn -0.92517346143722534 0.13578298687934875 0.35442498326301575
vn -0.92852789163589478 0.034844353795051575 0.36962395906448364
vn -0.92057323455810547 -0.070900365710258484 0.38408079743385315
vn -0.89772850275039673 -0.18316748738288879 0.40066602826118469
vn -0.85522639751434326 -0.30119001865386963 0.42174917459487915
vn -0.78701633214950562 -0.42321595549583435 0.44888031482696533
vn -0.68715065717697144 -0.54387897253036499 0.48168420791625977
vn -0.55457508563995361 -0.6523442268371582 0.51661735773086548
vn -0.40463531017303467 -0.73438823223114014 0.54492586851119995
vn -0.26311033964157104 -0.78423440456390381 0.5619158148765564
vn -0.12856458127498627 -0.81085258722305298 0.57095468044281006
vn 0.0017444718396291137 -0.81901842355728149 0.57376456260681152
vn 0.13203644752502441 -0.81033086776733398 0.57090300321578979
vn 0.26612380146980286 -0.78327882289886475 0.56182950735092163
vn 0.40659239888191223 -0.73333156108856201 0.54489213228225708
vn 0.55457282066345215 -0.65210795402526855 0.51691800355911255
vn 0.6878737211227417 -0.54289031028747559 0.48176741600036621
vn 0.78823482990264893 -0.42113742232322693 0.44869717955589294
vn 0.85578089952468872 -0.29968354105949402 0.42169752717018127
vn 0.89759409427642822 -0.18342418968677521 0.40084964036941528
vn 0.92031925916671753 -0.072704784572124481 0.38435199856758118
vn 0.9285319447517395 0.032855015248060226 0.36979579925537109
vn 0.92534899711608887 0.13468997180461884 0.35438373684883118
vn 0.91261917352676392 0.23377843201160431 0.33537134528160095
vn 0.89008641242980957 0.33204686641693115 0.31223556399345398
vn 0.85840737819671631 0.42439380288124084 0.2881435751914978
vn 0.81816905736923218 0.51106148958206177 0.2634684145450592
vn 0.77028757333755493 0.59145462512969971 0.23840814828872681
vn 0.71588128805160522 0.66497623920440674 0.21288640797138214
vn 0.65594053268432617 0.7314077615737915 0.18650664389133453
vn 0.59138339757919312 0.79061806201934814 0.15870966017246246
vn 0.52311015129089355 0.84246158599853516 0.12889629602432251
vn 0.45212540030479431 0.88653689622879028 0.098157726228237152
vn 0.38021761178970337 0.92234611511230469 0.068645402789115906
vn 0.30798101425170898 0.95052766799926758 0.040556538850069046
vn 0.23588523268699646 0.97168225049972534 0.013848006725311279
vn 0.16420206427574158 0.98635679483413696 -0.011743269860744476
vn 0.093234725296497345 0.9949718713760376 -0.036581806838512421
vn 0.023231271654367447 0.99785870313644409 -0.061141304671764374
vn -0.045599639415740967 0.99525302648544312 -0.08597719669342041
vn 0.011959359981119633 0.99982678890228271 -0.014260365627706051
vn -0.058211356401443481 0.99822568893432617 0.012524879537522793
vn -0.12894825637340546 0.99089395999908447 0.038749303668737411
vn -0.20019720494747162 0.97759401798248291 0.0650462806224823
vn -0.27170062065124512 0.95798313617706299 0.091907799243927002
vn -0.3431151807308197 0.93163383007049561 0.11970960348844528
vn -0.41403558850288391 0.89803397655487061 0.14869283139705658
vn -0.48394483327865601 0.85661435127258301 0.17891128361225128
vn -0.5523255467414856 0.80668103694915771 0.21024331450462341
vn -0.61752218008041382 0.7489435076713562 0.24031217396259308
vn -0.67829835414886475 0.68432861566543579 0.26759240031242371
vn -0.7336229681968689 0.61333829164505005 0.29259777069091797
vn -0.7827075719833374 0.53624927997589111 0.31592017412185669
vn -0.82481682300567627 0.45320466160774231 0.33805736899375916
vn -0.85908162593841553 0.36459854245185852 0.35923060774803162
vn -0.88468843698501587 0.27094545960426331 0.37936118245124817
vn -0.90106499195098877 0.17186947166919708 0.39817425608634949
vn -0.90782415866851807 0.073758475482463837 0.41281351447105408
vn -0.90531516075134277 -0.026540420949459076 0.4239104688167572
vn -0.89149433374404907 -0.13053710758686066 0.43381789326667786
vn -0.86301445960998535 -0.23921678960323334 0.44495102763175964
vn -0.81590580940246582 -0.35110029578208923 0.4593760073184967
vn -0.74547004699707031 -0.46400687098503113 0.47851020097732544
vn -0.64754390716552734 -0.57301914691925049 0.50233054161071777
vn -0.52224624156951904 -0.66929882764816284 0.52848649024963379
vn -0.38232904672622681 -0.74221593141555786 0.55039983987808228
vn -0.24951444566249847 -0.78718382120132446 0.56398952007293701
vn -0.12225943058729172 -0.81150323152542114 0.57141506671905518
vn 0.0016025683144107461 -0.81901860237121582 0.57376468181610107
vn 0.12545061111450195 -0.81102973222732544 0.57139557600021362
vn 0.25228166580200195 -0.78631937503814697 0.5639643669128418
vn 0.38412973284721375 -0.74125951528549194 0.55043494701385498
vn 0.52225953340530396 -0.6690528392791748 0.52878469228744507
vn 0.64828324317932129 -0.57207077741622925 0.50245785713195801
vn 0.74674975872039795 -0.4620242714881897 0.47843322157859802
vn 0.81654930114746094 -0.34960120916366577 0.45937594771385193
vn 0.86289870738983154 -0.23938308656215668 0.44508597254753113
vn 0.89116448163986206 -0.13223619759082794 0.43398094177246094
vn 0.90522098541259766 -0.028467468917369843 0.42398658394813538
vn 0.90794885158538818 0.072686709463596344 0.412729412317276
vn 0.90122073888778687 0.17165966331958771 0.39791226387023926
vn 0.88496994972229004 0.27031153440475464 0.37915676832199097
vn 0.85946708917617798 0.36384880542755127 0.35906881093978882
vn 0.82521039247512817 0.45260775089263916 0.33789646625518799
vn 0.78295600414276123 0.53601568937301636 0.31570097804069519
vn 0.73366522789001465 0.61342811584472656 0.2923034131526947
vn 0.67821794748306274 0.68454122543334961 0.26725214719772339
vn 0.61745530366897583 0.74910986423492432 0.23996524512767792
vn 0.5522301197052002 0.80684888362884521 0.20984931290149689
vn 0.48360109329223633 0.85691571235656738 0.1783967912197113
vn 0.41344845294952393 0.89839518070220947 0.14814344048500061
vn 0.34244152903556824 0.93193793296813965 0.11927071213722229
vn 0.27111086249351501 0.95816880464553833 0.091713897883892059
vn 0.19977498054504395 0.97767132520675659 0.06518225371837616
vn 0.12876906991004944 0.99089634418487549 0.039280921220779419
vn 0.058361571282148361 0.99820417165756226 0.013502734713256359
vn -0.011228518560528755 0.99985575675964355 -0.012744070962071419
vn -0.022663574665784836 0.99797475337982178 0.059437066316604614
vn -0.093035407364368439 0.99183022975921631 0.087276339530944824
vn -0.1635897159576416 0.97987568378448486 0.11437688022851944
vn -0.23426739871501923 0.96183300018310547 0.14140750467777252
vn -0.30479192733764648 0.93732523918151855 0.16888822615146637
vn -0.37478682398796082 0.90589183568954468 0.19721762835979462
vn -0.44379734992980957 0.86699008941650391 0.22665418684482574
vn -0.51124024391174316 0.82003021240234375 0.25726217031478882
vn -0.57650905847549438 0.76430404186248779 0.28892317414283752
vn -0.63789635896682739 0.70099455118179321 0.31889629364013672
vn -0.69420546293258667 0.6315423846244812 0.34530138969421387
vn -0.74451571702957153 0.55656814575195313 0.36868444085121155
vn -0.78814977407455444 0.4764038622379303 0.38969129323959351
vn -0.82448101043701172 0.39120343327522278 0.40888988971710205
vn -0.8527645468711853 0.30133536458015442 0.42660239338874817
vn -0.87230193614959717 0.20723517239093781 0.44288021326065063
vn -0.88254630565643311 0.10839590430259705 0.45756128430366516
vn -0.88351958990097046 0.010961673222482204 0.46826589107513428
vn -0.87539380788803101 -0.087994009256362915 0.47533437609672546
vn -0.85619455575942993 -0.18941481411457062 0.48067963123321533
vn -0.82295143604278564 -0.29363831877708435 0.48634085059165955
vn -0.77253955602645874 -0.39868330955505371 0.49420067667961121
vn -0.70147079229354858 -0.50222200155258179 0.50567954778671265
vn -0.60695880651473999 -0.59998506307601929 0.52117073535919189
vn -0.489789217710495 -0.68497049808502197 0.5393717885017395
vn -0.36007627844810486 -0.74951839447021484 0.55548834800720215
vn -0.23594054579734802 -0.78996336460113525 0.56594169139862061
vn -0.11595084518194199 -0.81212091445922852 0.57185232639312744
vn 0.0014604480238631368 -0.81901878118515015 0.57376480102539063
vn 0.11886074393987656 -0.81169265508651733 0.57186287641525269
vn 0.23845978081226349 -0.7891838550567627 0.56597328186035156
vn 0.36171534657478333 -0.74865555763244629 0.55558699369430542
vn 0.48981225490570068 -0.68471920490264893 0.53966987133026123
vn 0.60770469903945923 -0.59908062219619751 0.52134186029434204
vn 0.70279288291931152 -0.5003429651260376 0.5057065486907959
vn 0.77326816320419312 -0.39720192551612854 0.49425393342971802
vn 0.82287418842315674 -0.29371023178100586 0.48642820119857788
vn 0.85581570863723755 -0.19098715484142303 0.48073211312294006
vn 0.87521934509277344 -0.089834637939929962 0.47531124949455261
vn 0.88360065221786499 0.0099265407770872116 0.46813604235649109
vn 0.88270431756973267 0.10818962752819061 0.45730528235435486
vn 0.8725581169128418 0.20658582448959351 0.44267895817756653
vn 0.85311639308929443 0.30055510997772217 0.42644932866096497
vn 0.82485103607177734 0.39056771993637085 0.40875130891799927
vn 0.78840017318725586 0.4761350154876709 0.38951337337493896
vn 0.74458396434783936 0.55663436651229858 0.36844667792320251
vn 0.69416224956512451 0.63173919916152954 0.3450281023979187
vn 0.63786894083023071 0.70114117860794067 0.31862875819206238
vn 0.57646352052688599 0.76444905996322632 0.28863024711608887
vn 0.51096594333648682 0.82032525539398193 0.25686633586883545
vn 0.44328737258911133 0.86736363172531128 0.22622247040271759
vn 0.37418130040168762 0.90621656179428101 0.19687536358833313
vn 0.30424624681472778 0.93752765655517578 0.1687486320734024
vn 0.23385319113731384 0.96191537380218506 0.14153271913528442
vn 0.16337130963802338 0.9798615574836731 0.11480927467346191
vn 0.093089103698730469 0.99175745248794556 0.088042885065078735
vn 0.023233316838741302 0.99789118766784668 0.060608871281147003
vn -0.056706983596086502 0.98964929580688477 0.13182805478572845
vn -0.12676329910755157 0.97887372970581055 0.16042840480804443
vn -0.19659936428070068 0.96226906776428223 0.18811400234699249
vn -0.26615151762962341 0.93951451778411865 0.21558243036270142
vn -0.33512398600578308 0.9101983904838562 0.2433738112449646
vn -0.40310516953468323 0.8738287091255188 0.27190005779266357
vn -0.46958741545677185 0.82983744144439697 0.30142584443092346
vn -0.5339171290397644 0.77762424945831299 0.33201354742050171
vn -0.59539419412612915 0.71648353338241577 0.36353424191474915
vn -0.65232723951339722 0.64812302589416504 0.39294496178627014
vn -0.70365220308303833 0.57451218366622925 0.41810205578804016
vn -0.74859124422073364 0.49633929133415222 0.43961173295974731
vn -0.78658878803253174 0.41393417119979858 0.45818841457366943
vn -0.81711775064468384 0.32740399241447449 0.47447356581687927
vn -0.8395276665687561 0.23703674972057343 0.48888328671455383
vn -0.85318553447723389 0.14314556121826172 0.50158131122589111
vn -0.8575061559677124 0.045072004199028015 0.51249557733535767
vn -0.85289138555526733 -0.051187716424465179 0.51957297325134277
vn -0.83947086334228516 -0.14818672835826874 0.52280908823013306
vn -0.81547743082046509 -0.24634212255477905 0.52374815940856934
vn -0.77841579914093018 -0.34546402096748352 0.52414065599441528
vn -0.72598487138748169 -0.44327852129936218 0.52578520774841309
vn -0.65571260452270508 -0.53753107786178589 0.53018993139266968
vn -0.56581252813339233 -0.62468934059143066 0.53816300630569458
vn -0.45736551284790039 -0.69936215877532959 0.54928076267242432
vn -0.3379179835319519 -0.75630134344100952 0.5601961612701416
vn -0.22239680588245392 -0.79257392883300781 0.56777304410934448
vn -0.10963959246873856 -0.8127056360244751 0.5722663402557373
vn 0.0013181102694943547 -0.81901895999908447 0.57376492023468018
vn 0.11226771026849747 -0.81231957674026489 0.57230484485626221
vn 0.2246667742729187 -0.79187333583831787 0.56785690784454346
vn 0.33939129114151001 -0.75552517175674438 0.56035280227661133
vn 0.45739221572875977 -0.69910913705825806 0.54958051443099976
vn 0.56655561923980713 -0.62383109331130981 0.53837668895721436
vn 0.65705883502960205 -0.53575968742370605 0.53031617403030396
vn 0.72679299116134644 -0.44182458519935608 0.52589255571365356
vn 0.77839517593383789 -0.34544268250465393 0.5241854190826416
vn 0.81507807970046997 -0.24777354300022125 0.52369457483291626
vn 0.83923733234405518 -0.1499219685792923 0.5226893424987793
vn 0.85293835401535034 -0.052173122763633728 0.51939785480499268
vn 0.85766685009002686 0.044874846935272217 0.51224392652511597
vn 0.85341185331344604 0.14248467981815338 0.501384437084198
vn 0.83983826637268066 0.23622749745845795 0.48874145746231079
vn 0.81745439767837524 0.32672733068466187 0.47436016798019409
vn 0.7868306040763855 0.41362261772155762 0.45805454254150391
vn 0.74867570400238037 0.49636989831924438 0.43943330645561218
vn 0.70363724231719971 0.57467937469482422 0.41789737343788147
vn 0.65232914686203003 0.64823609590530396 0.39275521039962769
vn 0.5953863263130188 0.71659046411514282 0.36333620548248291
vn 0.53370076417922974 0.77789455652236938 0.33172810077667236
vn 0.46914616227149963 0.8302038311958313 0.30110377073287964
vn 0.40256306529045105 0.87415701150894165 0.27164784073829651
vn 0.3346213698387146 0.91040730476379395 0.24328398704528809
vn 0.2657477855682373 0.93960303068161011 0.21569482982158661
vn 0.19634649157524109 0.96225547790527344 0.18844743072986603
vn 0.12672519683837891 0.97878724336624146 0.16098533570766449
vn 0.057115573436021805 0.98951512575149536 0.13265621662139893
f 59/59/59 2/2/2 1/1/1 58/58/58
f 60/60/60 3/3/3 2/2/2 59/59/59
f 61/61/61 4/4/4 3/3/3 60/60/60
f 62/62/62 5/5/5 4/4/4 61/61/61
f 63/63/63 6/6/6 5/5/5 62/62/62
f 64/64/64 7/7/7 6/6/6 63/63/63
f 65/65/65 8/8/8 7/7/7 64/64/64
f 66/66/66 9/9/9 8/8/8 65/65/65
f 67/67/67 10/10/10 9/9/9 66/66/66
f 68/68/68 11/11/11 10/10/10 67/67/67
f 69/69/69 12/12/12 11/11/11 68/68/68
f 70/70/70 13/13/13 12/12/12 69/69/69
f 71/71/71 14/14/14 13/13/13 70/70/70
f 72/72/72 15/15/15 14/14/14 71/71/71
f 73/73/73 16/16/16 15/15/15 72/72/72
f 74/74/74 17/17/17 16/16/16 73/73/73
f 75/75/75 18/18/18 17/17/17 74/74/74
f 76/76/76 19/19/19 18/18/18 75/75/75
f 77/77/77 20/20/20 19/19/19 76/76/76
f 78/78/78 21/21/21 20/20/20 77/77/77
f 79/79/79 22/22/22 21/21/21 78/78/78
f 80/80/80 23/23/23 22/22/22 79/79/79
f 81/81/81 24/24/24 23/23/23 80/80/80
f 82/82/82 25/25/25 24/24/24 81/81/81
f 83/83/83 26/26/26 25/25/25 82/82/82
f 84/84/84 27/27/27 26/26/26 83/83/83
f 85/85/85 28/28/28 27/27/27 84/84/84
f 86/86/86 29/29/29 28/28/28 85/85/85
f 87/87/87 30/30/30 29/29/29 86/86/86
f 88/88/88 31/31/31 30/30/30 87/87/87
f 89/89/89 32/32/32 31/31/31 88/88/88
f 90/90/90 33/33/33 32/32/32 89/89/89
f 91/91/91 34/34/34 33/33/33 90/90/90
f 92/92/92 35/35/35 34/34/34 91/91/91
f 93/93/93 36/36/36 35/35/35 92/92/92
f 94/94/94 37/37/37 36/36/36 93/93/93
f 95/95/95 38/38/38 37/37/37 94/94/94
f 96/96/96 39/39/39 38/38/38 95/95/95
f 97/97/97 40/40/40 39/39/39 96/96/96
f 98/98/98 41/41/41 40/40/40 97/97/97
f 99/99/99 42/42/42 41/41/41 98/98/98
f 100/100/100 43/43/43 42/42/42 99/99/99
f 101/101/101 44/44/44 43/43/43 100/100/100
f 102/102/102 45/45/45 44/44/44 101/101/101
f 103/103/103 46/46/46 45/45/45 102/102/102
f 104/104/104 47/47/47 46/46/46 103/103/103
f 105/105/105 48/48/48 47/47/47 104/104/104
f 106/106/106 49/49/49 48/48/48 105/105/105
f 107/107/107 50/50/50 49/49/49 106/106/106
f 108/108/108 51/51/51 50/50/50 107/107/107
f 109/109/109 52/52/52 51/51/51 108/108/108
f 110/110/110 53/53/53 52/52/52 109/109/109
f 111/111/111 54/54/54 53/53/53 110/110/110
f 112/112/112 55/55/55 54/54/54 111/111/111
f 113/113/113 56/56/56 55/55/55 112/112/112
f 114/114/114 57/57/57 56/56/56 113/113/113
f 116/116/116 59/59/59 58/58/58 115/115/115
f 117/117/117 60/60/60 59/59/59 116/116/116
f 118/118/118 61/61/61 60/60/60 117/117/117
f 119/119/119 62/62/62 61/61/61 118/118/118
f 120/120/120 63/63/63 62/62/62 119/119/119
f 121/121/121 64/64/64 63/63/63 120/120/120
f 122/122/122 65/65/65 64/64/64 121/121/121
f 123/123/123 66/66/66 65/65/65 122/122/122
f 124/124/124 67/67/67 66/66/66 123/123/123
f 125/125/125 68/68/68 67/67/67 124/124/124
f 126/126/126 69/69/69 68/68/68 125/125/125
f 127/127/127 70/70/70 69/69/69 126/126/126
f 128/128/128 71/71/71 70/70/70 127/127/127
f 129/129/129 72/72/72 71/71/71 128/128/128
f 130/130/130 73/73/73 72/72/72 129/129/129
f 131/131/131 74/74/74 73/73/73 130/130/130
f 132/132/132 75/75/75 74/74/74 131/131/131
f 133/133/133 76/76/76 75/75/75 132/132/132
f 134/134/134 77/77/77 76/76/76 133/133/133
f 135/135/135 78/78/78 77/77/77 134/134/134
f 136/136/136 79/79/79 78/78/78 135/135/135
f 137/137/137 80/80/80 79/79/79 136/136/136
f 138/138/138 81/81/81 80/80/80 137/137/137
f 139/139/139 82/82/82 81/81/81 138/138/138
f 140/140/140 83/83/83 82/82/82 139/139/139
f 141/141/141 84/84/84 83/83/83 140/140/140
f 142/142/142 85/85/85 84/84/84 141/141/141
f 143/143/143 86/86/86 85/85/85 142/142/142
f 144/144/144 87/87/87 86/86/86 143/143/143
f 145/145/145 88/88/88 87/87/87 144/144/144
f 146/146/146 89/89/89 88/88/88 145/145/145
f 147/147/147 90/90/90 89/89/89 146/146/146
f 148/148/148 91/91/91 90/90/90 147/147/147
f 149/149/149 92/92/92 91/91/91 148/148/148
f 150/150/150 93/93/93 92/92/92 149/149/149
f 151/151/151 94/94/94 93/93/93 150/150/150
f 152/152/152 95/95/95 94/94/94 151/151/151
f 153/153/153 96/96/96 95/95/95 152/152/152
f 154/154/154 97/97/97 96/96/96 153/153/153
f 155/155/155 98/98/98 97/97/97 154/154/154
f 156/156/156 99/99/99 98/98/98 155/155/155
f 157/157/157 100/100/100 99/99/99 156/156/156
f 158/158/158 101/101/101 100/100/100 157/157/157
f 159/159/159 102/102/102 101/101/101 158/158/158
f 160/160/160 103/103/103 102/102/102 159/159/159
f 161/161/161 104/104/104 103/103/103 160/160/160
f 162/162/162 105/105/105 104/104/104 161/161/161
f 163/163/163 106/106/106 105/105/105 162/162/162
f 164/164/164 107/107/107 106/106/106 163/163/163
f 165/165/165 108/108/108 107/107/107 164/164/164
f 166/166/166 109/109/109 108/108/108 165/165/165
f 167/167/167 110/110/110 109/109/109 166/166/166
f 168/168/168 111/111/111 110/110/110 167/167/167
f 169/169/169 112/112/112 111/111/111 168/168/168
f 170/170/170 113/113/113 112/112/112 169/169/169
f 171/171/171 114/114/114 113/113/113 170/170/170
f 173/173/173 116/116/116 115/115/115 172/172/172
f 174/174/174 117/117/117 116/116/116 173/173/173
f 175/175/175 118/118/118 117/117/117 174/174/174
f 176/176/176 119/119/119 118/118/118 175/175/175
f 177/177/177 120/120/120 119/119/119 176/176/176
f 178/178/178 121/121/121 120/120/120 177/177/177
f 179/179/179 122/122/122 121/121/121 178/178/178
f 180/180/180 123/123/123 122/122/122 179/179/179
f 181/181/181 124/124/124 123/123/123 180/180/180
f 182/182/182 125/125/125 124/124/124 181/181/181
f 183/183/183 126/126/126 125/125/125 182/182/182
f 184/184/184 127/127/127 126/126/126 183/183/183
f 185/185/185 128/128/128 127/127/127 184/184/184
f 186/186/186 129/129/129 128/128/128 185/185/185
f 187/187/187 130/130/130 129/129/129 186/186/186
f 188/188/188 131/131/131 130/130/130 187/187/187
f 189/189/189 132/132/132 131/131/131 188/188/188
f 190/190/190 133/133/133 132/132/132 189/189/189
f 191/191/191 134/134/134 133/133/133 190/190/190
f 192/192/192 135/135/135 134/134/134 191/191/191
f 193/193/193 136/136/136 135/135/135 192/192/192
f 194/194/194 137/137/137 136/136/136 193/193/193
f 195/195/195 138/138/138 137/137/137 194/194/194
f 196/196/196 139/139/139 138/138/138 195/195/195
f 197/197/197 140/140/140 139/139/139 196/196/196
f 198/198/198 141/141/141 140/140/140 197/197/197
f 199/199/199 142/142/142 141/141/141 198/198/198
f 200/200/200 143/143/143 142/142/142 199/199/199
f 201/201/201 144/144/144 143/143/143 200/200/200
f 202/202/202 145/145/145 144/144/144 201/201/201
f 203/203/203 146/146/146 145/145/145 202/202/202
f 204/204/204 147/147/147 146/146/146 203/203/203
f 205/205/205 148/148/148 147/147/147 204/204/204
f 206/206/206 149/149/149 148/148/148 205/205/205
f 207/207/207 150/150/150 149/149/149 206/206/206
f 208/208/208 151/151/151 150/150/150 207/207/207
f 209/209/209 152/152/152 151/151/151 208/208/208
f 210/210/210 153/153/153 152/152/152 209/209/209
f 211/211/211 154/154/154 153/153/153 210/210/210
f 212/212/212 155/155/155 154/154/154 211/211/211
f 213/213/213 156/156/156 155/155/155 212/212/212
f 214/214/214 157/157/157 156/156/156 213/213/213
f 215/215/215 158/158/158 157/157/157 214/214/214
f 216/216/216 159/159/159 158/158/158 215/215/215
f 217/217/217 160/160/160 159/159/159 216/216/216
f 218/218/218 161/161/161 160/160/160 217/217/217
f 219/219/219 162/162/162 161/161/161 218/218/218
f 220/220/220 163/163/163 162/162/162 219/219/219
f 221/221/221 164/164/164 163/163/163 220/220/220
f 222/222/222 165/165/165 164/164/164 221/221/221
f 223/223/223 166/166/166 165/165/165 222/222/222
f 224/224/224 167/167/167 166/166/166 223/223/223
f 225/225/225 168/168/168 167/167/167 224/224/224
f 226/226/226 169/169/169 168/168/168 225/225/225
f 227/227/227 170/170/170 169/169/169 226/226/226
f 228/228/228 171/171/171 170/170/170 227/227/227
f 230/230/230 173/173/173 172/172/172 229/229/229
f 231/231/231 174/174/174 173/173/173 230/230/230
f 232/232/232 175/175/175 174/174/174 231/231/231
f 233/233/233 176/176/176 175/175/175 232/232/232
f 234/234/234 177/177/177 176/176/176 233/233/233
f 235/235/235 178/178/178 177/177/177 234/234/234
f 236/236/236 179/179/179 178/178/178 235/235/235
f 237/237/237 180/180/180 179/179/179 236/236/236
f 238/238/238 181/181/181 180/180/180 237/237/237
f 239/239/239 182/182/182 181/181/181 238/238/238
f 240/240/240 183/183/183 182/182/182 239/239/239
f 241/241/241 184/184/184 183/183/183 240/240/240
f 242/242/242 185/185/185 184/184/184 241/241/241
f 243/243/243 186/186/186 185/185/185 242/242/242
f 244/244/244 187/187/187 186/186/186 243/243/243
f 245/245/245 188/188/188 187/187/187 244/244/244
f 246/246/246 189/189/189 188/188/188 245/245/245
f 247/247/247 190/190/190 189/189/189 246/246/246
f 248/248/248 191/191/191 190/190/190 247/247/247
f 249/249/249 192/192/192 191/191/191 248/248/248
f 250/250/250 193/193/193 192/192/192 249/249/249
f 251/251/251 194/194/194 193/193/193 250/250/250
f 252/252/252 195/195/195 194/194/194 251/251/251
f 253/253/253 196/196/196 195/195/195 252/252/252
f 254/254/254 197/197/197 196/196/196 253/253/253
f 255/255/255 198/198/198 197/197/197 254/254/254
f 256/256/256 199/199/199 198/198/198 255/255/255
f 257/257/257 200/200/200 199/199/199 256/256/256
f 258/258/258 201/201/201 200/200/200 257/257/257
f 259/259/259 202/202/202 201/201/201 258/258/258
f 260/260/260 203/203/203 202/202/202 259/259/259
f 261/261/261 204/204/204 203/203/203 260/260/260
f 262/262/262 205/205/205 204/204/204 261/261/261
f 263/263/263 206/206/206 205/205/205 262/262/262
f 264/264/264 207/207/207 206/206/206 263/263/263
f 265/265/265 208/208/208 207/207/207 264/264/264
f 266/266/266 209/209/209 208/208/208 265/265/265
f 267/267/267 210/210/210 209/209/209 266/266/266
f 268/268/268 211/211/211 210/210/210 267/267/267
f 269/269/269 212/212/212 211/211/211 268/268/268
f 270/270/270 213/213/213 212/212/212 269/269/269
f 271/271/271 214/214/214 213/213/213 270/270/270
f 272/272/272 215/215/215 214/214/214 271/271/271
f 273/273/273 216/216/216 215/215/215 272/272/272
f 274/274/274 217/217/217 216/216/216 273/273/273
f 275/275/275 218/218/218 217/217/217 274/274/274
f 276/276/276 219/219/219 218/218/218 275/275/275
f 277/277/277 220/220/220 219/219/219 276/276/276
f 278/278/278 221/221/221 220/220/220 277/277/277
f 279/279/279 222/222/222 221/221/221 278/278/278
f 280/280/280 223/223/223 222/222/222 279/279/279
f 281/281/281 224/224/224 223/223/223 280/280/280
f 282/282/282 225/225/225 224/224/224 281/281/281
f 283/283/283 226/226/226 225/225/225 282/282/282
f 284/284/284 227/227/227 226/226/226 283/283/283
f 285/285/285 228/228/228 227/227/227 284/284/284
