# Rhino

mtllib female-mirror-armature-260703.mtl
g Fem_virtual mirror_armature_virtual mounts
o object_1
usemtl Plastic White
v 2.5 0.12499397248029709 -0.59500002861022949
v 3.5 0.12499397248029709 -0.59500002861022949
v 2.5 0.12499397248029709 0.59500002861022949
v 3.5 0.12499397248029709 0.59500002861022949
v 2.5 0.12499397248029709 0.59500002861022949
v 3.5 0.12499397248029709 0.59500002861022949
v 2.5 -0.50000602006912231 0.59500002861022949
v 3.5 -0.50000602006912231 0.59500002861022949
v 2.5 -0.50000602006912231 0.59500002861022949
v 3.5 -0.50000602006912231 0.59500002861022949
v 2.5 -0.62500602006912231 1.0049999952316284
v 3.5 -0.62500602006912231 1.0049999952316284
v 2.5 -0.62500602006912231 1.0049999952316284
v 3.5 -0.62500602006912231 1.0049999952316284
v 2.5 -0.75000602006912231 1.0049999952316284
v 3.5 -0.75000602006912231 1.0049999952316284
v 2.5 -0.75000602006912231 1.0049999952316284
v 3.5 -0.75000602006912231 1.0049999952316284
v 2.5 -0.75000602006912231 -1.0049999952316284
v 3.5 -0.75000602006912231 -1.0049999952316284
v 2.5 -0.75000602006912231 -1.0049999952316284
v 3.5 -0.75000602006912231 -1.0049999952316284
v 2.5 -0.62500602006912231 -1.0049999952316284
v 3.5 -0.62500602006912231 -1.0049999952316284
v 2.5 -0.62500602006912231 -1.0049999952316284
v 3.5 -0.62500602006912231 -1.0049999952316284
v 2.5 -0.50000602006912231 -0.59500002861022949
v 3.5 -0.50000602006912231 -0.59500002861022949
v 2.5 -0.50000602006912231 -0.59500002861022949
v 3.5 -0.50000602006912231 -0.59500002861022949
v 2.5 0.12499397248029709 -0.59500002861022949
v 3.5 0.12499397248029709 -0.59500002861022949
v 2.5 0.12499397248029709 -0.59500002861022949
v 2.5 0.12499397248029709 0.59500002861022949
v 2.5 -0.50000602006912231 0.59500002861022949
v 2.5 -0.62500602006912231 1.0049999952316284
v 2.5 -0.75000602006912231 1.0049999952316284
v 2.5 -0.75000602006912231 -1.0049999952316284
v 2.5 -0.62500602006912231 -1.0049999952316284
v 2.5 -0.50000602006912231 -0.59500002861022949
v 3.5 0.12499397248029709 -0.59500002861022949
v 3.5 0.12499397248029709 0.59500002861022949
v 3.5 -0.50000602006912231 0.59500002861022949
v 3.5 -0.62500602006912231 1.0049999952316284
v 3.5 -0.75000602006912231 1.0049999952316284
v 3.5 -0.75000602006912231 -1.0049999952316284
v 3.5 -0.62500602006912231 -1.0049999952316284
v 3.5 -0.50000602006912231 -0.59500002861022949
vt 0 0
vt 0 0.68181771039962769
vt 0.21413418650627136 0
vt 0.21413418650627136 0.68181771039962769
vt 0.21413418650627136 0
vt 0.21413418650627136 0.68181771039962769
vt 0.32659962773323059 0
vt 0.32659962773323059 0.68181771039962769
vt 0.32659962773323059 0
vt 0.32659962773323059 0.68181771039962769
vt 0.40372958779335022 0
vt 0.40372958779335022 0.68181771039962769
vt 0.40372958779335022 0
vt 0.40372958779335022 0.68181771039962769
vt 0.42622268199920654 0
vt 0.42622268199920654 0.68181771039962769
vt 0.42622268199920654 0
vt 0.42622268199920654 0.68181771039962769
vt 0.78791153430938721 0
vt 0.78791153430938721 0.68181771039962769
vt 0.78791153430938721 0
vt 0.78791153430938721 0.68181771039962769
vt 0.81040459871292114 0
vt 0.81040459871292114 0.68181771039962769
vt 0.81040459871292114 0
vt 0.81040459871292114 0.68181771039962769
vt 0.88753455877304077 0
vt 0.88753455877304077 0.68181771039962769
vt 0.88753455877304077 0
vt 0.88753455877304077 0.68181771039962769
vt 1 0
vt 1 0.68181771039962769
vt 0.28791150450706482 0.68181842565536499
vt 0.073777325451374054 0.68181842565536499
vt 0.073777325451374054 0.90909099578857422
vt 0 0.95454549789428711
vt 0 1
vt 0.36168882250785828 1
vt 0.36168882250785828 0.95454549789428711
vt 0.28791150450706482 0.90909099578857422
vt 0.28791150450706482 1
vt 0.073777325451374054 1
vt 0.073777325451374054 0.77272742986679077
vt 0 0.72727292776107788
vt 0 0.68181842565536499
vt 0.36168882250785828 0.68181842565536499
vt 0.36168882250785828 0.72727292776107788
vt 0.28791150450706482 0.77272742986679077
vn 0 1 0
vn 0 1 0
vn 0 1 0
vn 0 1 0
vn 0 0 1
vn 0 0 1
vn 0 0 1
vn 0 0 1
vn 0 0.95653247833251953 0.29162576794624329
vn 0 0.95653247833251953 0.29162576794624329
vn 0 0.95653247833251953 0.29162576794624329
vn 0 0.95653247833251953 0.29162576794624329
vn 0 0 1
vn 0 0 1
vn 0 0 1
vn 0 0 1
vn 0 -1 0
vn 0 -1 0
vn 0 -1 0
vn 0 -1 0
vn 0 0 -1
vn 0 0 -1
vn 0 0 -1
vn 0 0 -1
vn 0 0.95653247833251953 -0.29162576794624329
vn 0 0.95653247833251953 -0.29162576794624329
vn 0 0.95653247833251953 -0.29162576794624329
vn 0 0.95653247833251953 -0.29162576794624329
vn 0 0 -1
vn 0 0 -1
vn 0 0 -1
vn 0 0 -1
vn -1 0 0
vn -1 0 0
vn -1 0 0
vn -1 0 0
vn -1 0 0
vn -1 0 0
vn -1 0 0
vn -1 0 0
vn 1 0 0
vn 1 0 0
vn 1 0 0
vn 1 0 0
vn 1 0 0
vn 1 0 0
vn 1 0 0
vn 1 0 0
f 1/1/1 3/3/3 4/4/4 2/2/2
f 5/5/5 7/7/7 8/8/8 6/6/6
f 9/9/9 11/11/11 12/12/12 10/10/10
f 13/13/13 15/15/15 16/16/16 14/14/14
f 17/17/17 19/19/19 20/20/20 18/18/18
f 21/21/21 23/23/23 24/24/24 22/22/22
f 25/25/25 27/27/27 28/28/28 26/26/26
f 29/29/29 31/31/31 32/32/32 30/30/30
f 38/38/38 37/37/37 40/40/40
f 37/37/37 36/36/36 35/35/35
f 40/40/40 39/39/39 38/38/38
f 35/35/35 33/33/33 40/40/40
f 33/33/33 35/35/35 34/34/34
f 37/37/37 35/35/35 40/40/40
f 46/46/46 48/48/48 45/45/45
f 45/45/45 43/43/43 44/44/44
f 48/48/48 46/46/46 47/47/47
f 43/43/43 48/48/48 41/41/41
f 41/41/41 42/42/42 43/43/43
f 45/45/45 48/48/48 43/43/43
o object_2
usemtl Plastic White
v -3.5 0.12499397248029709 -0.59500002861022949
v -2.5 0.12499397248029709 -0.59500002861022949
v -3.5 0.12499397248029709 0.59500002861022949
v -2.5 0.12499397248029709 0.59500002861022949
v -3.5 0.12499397248029709 0.59500002861022949
v -2.5 0.12499397248029709 0.59500002861022949
v -3.5 -0.50000602006912231 0.59500002861022949
v -2.5 -0.50000602006912231 0.59500002861022949
v -3.5 -0.50000602006912231 0.59500002861022949
v -2.5 -0.50000602006912231 0.59500002861022949
v -3.5 -0.62500602006912231 1.0049999952316284
v -2.5 -0.62500602006912231 1.0049999952316284
v -3.5 -0.62500602006912231 1.0049999952316284
v -2.5 -0.62500602006912231 1.0049999952316284
v -3.5 -0.75000602006912231 1.0049999952316284
v -2.5 -0.75000602006912231 1.0049999952316284
v -3.5 -0.75000602006912231 1.0049999952316284
v -2.5 -0.75000602006912231 1.0049999952316284
v -3.5 -0.75000602006912231 -1.0049999952316284
v -2.5 -0.75000602006912231 -1.0049999952316284
v -3.5 -0.75000602006912231 -1.0049999952316284
v -2.5 -0.75000602006912231 -1.0049999952316284
v -3.5 -0.62500602006912231 -1.0049999952316284
v -2.5 -0.62500602006912231 -1.0049999952316284
v -3.5 -0.62500602006912231 -1.0049999952316284
v -2.5 -0.62500602006912231 -1.0049999952316284
v -3.5 -0.50000602006912231 -0.59500002861022949
v -2.5 -0.50000602006912231 -0.59500002861022949
v -3.5 -0.50000602006912231 -0.59500002861022949
v -2.5 -0.50000602006912231 -0.59500002861022949
v -3.5 0.12499397248029709 -0.59500002861022949
v -2.5 0.12499397248029709 -0.59500002861022949
v -3.5 0.12499397248029709 -0.59500002861022949
v -3.5 0.12499397248029709 0.59500002861022949
v -3.5 -0.50000602006912231 0.59500002861022949
v -3.5 -0.62500602006912231 1.0049999952316284
v -3.5 -0.75000602006912231 1.0049999952316284
v -3.5 -0.75000602006912231 -1.0049999952316284
v -3.5 -0.62500602006912231 -1.0049999952316284
v -3.5 -0.50000602006912231 -0.59500002861022949
v -2.5 0.12499397248029709 -0.59500002861022949
v -2.5 0.12499397248029709 0.59500002861022949
v -2.5 -0.50000602006912231 0.59500002861022949
v -2.5 -0.62500602006912231 1.0049999952316284
v -2.5 -0.75000602006912231 1.0049999952316284
v -2.5 -0.75000602006912231 -1.0049999952316284
v -2.5 -0.62500602006912231 -1.0049999952316284
v -2.5 -0.50000602006912231 -0.59500002861022949
vt 0 0
vt 0 0.68181771039962769
vt 0.21413418650627136 0
vt 0.21413418650627136 0.68181771039962769
vt 0.21413418650627136 0
vt 0.21413418650627136 0.68181771039962769
vt 0.32659962773323059 0
vt 0.32659962773323059 0.68181771039962769
vt 0.32659962773323059 0
vt 0.32659962773323059 0.68181771039962769
vt 0.40372958779335022 0
vt 0.40372958779335022 0.68181771039962769
vt 0.40372958779335022 0
vt 0.40372958779335022 0.68181771039962769
vt 0.42622268199920654 0
vt 0.42622268199920654 0.68181771039962769
vt 0.42622268199920654 0
vt 0.42622268199920654 0.68181771039962769
vt 0.78791153430938721 0
vt 0.78791153430938721 0.68181771039962769
vt 0.78791153430938721 0
vt 0.78791153430938721 0.68181771039962769
vt 0.81040459871292114 0
vt 0.81040459871292114 0.68181771039962769
vt 0.81040459871292114 0
vt 0.81040459871292114 0.68181771039962769
vt 0.88753455877304077 0
vt 0.88753455877304077 0.68181771039962769
vt 0.88753455877304077 0
vt 0.88753455877304077 0.68181771039962769
vt 1 0
vt 1 0.68181771039962769
vt 0.28791150450706482 0.68181842565536499
vt 0.073777325451374054 0.68181842565536499
vt 0.073777325451374054 0.90909099578857422
vt 0 0.95454549789428711
vt 0 1
vt 0.36168882250785828 1
vt 0.36168882250785828 0.95454549789428711
vt 0.28791150450706482 0.90909099578857422
vt 0.28791150450706482 1
vt 0.073777325451374054 1
vt 0.073777325451374054 0.77272742986679077
vt 0 0.72727292776107788
vt 0 0.68181842565536499
vt 0.36168882250785828 0.68181842565536499
vt 0.36168882250785828 0.72727292776107788
vt 0.28791150450706482 0.77272742986679077
vn 0 1 0
vn 0 1 0
vn 0 1 0
vn 0 1 0
vn 0 0 1
vn 0 0 1
vn 0 0 1
vn 0 0 1
vn 0 0.95653247833251953 0.29162576794624329
vn 0 0.95653247833251953 0.29162576794624329
vn 0 0.95653247833251953 0.29162576794624329
vn 0 0.95653247833251953 0.29162576794624329
vn 0 0 1
vn 0 0 1
vn 0 0 1
vn 0 0 1
vn 0 -1 0
vn 0 -1 0
vn 0 -1 0
vn 0 -1 0
vn 0 0 -1
vn 0 0 -1
vn 0 0 -1
vn 0 0 -1
vn 0 0.95653247833251953 -0.29162576794624329
vn 0 0.95653247833251953 -0.29162576794624329
vn 0 0.95653247833251953 -0.29162576794624329
vn 0 0.95653247833251953 -0.29162576794624329
vn 0 0 -1
vn 0 0 -1
vn 0 0 -1
vn 0 0 -1
vn -1 0 0
vn -1 0 0
vn -1 0 0
vn -1 0 0
vn -1 0 0
vn -1 0 0
vn -1 0 0
vn -1 0 0
vn 1 0 0
vn 1 0 0
vn 1 0 0
vn 1 0 0
vn 1 0 0
vn 1 0 0
vn 1 0 0
vn 1 0 0
f 49/49/49 51/51/51 52/52/52 50/50/50
f 53/53/53 55/55/55 56/56/56 54/54/54
f 57/57/57 59/59/59 60/60/60 58/58/58
f 61/61/61 63/63/63 64/64/64 62/62/62
f 65/65/65 67/67/67 68/68/68 66/66/66
f 69/69/69 71/71/71 72/72/72 70/70/70
f 73/73/73 75/75/75 76/76/76 74/74/74
f 77/77/77 79/79/79 80/80/80 78/78/78
f 86/86/86 85/85/85 88/88/88
f 85/85/85 84/84/84 83/83/83
f 88/88/88 87/87/87 86/86/86
f 83/83/83 81/81/81 88/88/88
f 81/81/81 83/83/83 82/82/82
f 85/85/85 83/83/83 88/88/88
f 94/94/94 96/96/96 93/93/93
f 93/93/93 91/91/91 92/92/92
f 96/96/96 94/94/94 95/95/95
f 91/91/91 96/96/96 89/89/89
f 89/89/89 90/90/90 91/91/91
f 93/93/93 96/96/96 91/91/91
g Fem_virtual mirror_armature_virtual armature
o object_3
usemtl anodized
v 5.5 -0.5 0.5
v -5.5 -0.5 0.5
v 5.5 0.5 0.5
v -5.5 0.5 0.5
v 5.5 0.5 0.5
v -5.5 0.5 0.5
v 5.5 0.5 -0.5
v -5.5 0.5 -0.5
v 5.5 0.5 -0.5
v -5.5 0.5 -0.5
v 5.5 -0.5 -0.5
v -5.5 -0.5 -0.5
v 5.5 -0.5 -0.5
v -5.5 -0.5 -0.5
v 5.5 -0.5 0.5
v -5.5 -0.5 0.5
v 5.5 -0.5 0.5
v 5.5 0.5 0.5
v 5.5 0.5 -0.5
v 5.5 -0.5 -0.5
v -5.5 -0.5 0.5
v -5.5 0.5 0.5
v -5.5 0.5 -0.5
v -5.5 -0.5 -0.5
vt 0 0
vt 0 1
vt 0.20833316445350647 0
vt 0.20833316445350647 1
vt 0.20833316445350647 0
vt 0.20833316445350647 1
vt 0.41666632890701294 0
vt 0.41666632890701294 1
vt 0.41666632890701294 0
vt 0.41666632890701294 1
vt 0.62499946355819702 0
vt 0.62499946355819702 1
vt 0.62499946355819702 0
vt 0.62499946355819702 1
vt 0.83333265781402588 0
vt 0.83333265781402588 1
vt 0.83333349227905273 0.090909093618392944
vt 1 0.090909093618392944
vt 1 0
vt 0.83333349227905273 0
vt 0.83333349227905273 0.90909093618392944
vt 1 0.90909093618392944
vt 1 1
vt 0.83333349227905273 1
vn 0 0 1
vn 0 0 1
vn 0 0 1
vn 0 0 1
vn 0 1 0
vn 0 1 0
vn 0 1 0
vn 0 1 0
vn 0 0 -1
vn 0 0 -1
vn 0 0 -1
vn 0 0 -1
vn 0 -1 0
vn 0 -1 0
vn 0 -1 0
vn 0 -1 0
vn 1 0 0
vn 1 0 0
vn 1 0 0
vn 1 0 0
vn -1 0 0
vn -1 0 0
vn -1 0 0
vn -1 0 0
f 97/97/97 99/99/99 100/100/100 98/98/98
f 101/101/101 103/103/103 104/104/104 102/102/102
f 105/105/105 107/107/107 108/108/108 106/106/106
f 109/109/109 111/111/111 112/112/112 110/110/110
f 114/114/114 113/113/113 116/116/116
f 116/116/116 115/115/115 114/114/114
f 118/118/118 120/120/120 117/117/117
f 120/120/120 118/118/118 119/119/119
