# Rhino

mtllib male-lightsource-support.mtl
g Male_virtual body light_source_support
o object_1
usemtl Plastic White
v -3.125 -2.375 -40.5
v -3.125 -2.125 -40.5
v -3.0697405338287354 -2.125 -39.926849365234375
v -2.9000699520111084 -2.125 -39.360267639160156
v -2.6146180629730225 -2.125 -38.826141357421875
v -2.2241108417510986 -2.125 -38.356700897216797
v -1.7471810579299927 -2.125 -37.976406097412109
v -1.215348482131958 -2.125 -37.705158233642578
v -0.66388487815856934 -2.125 -37.548797607421875
v -0.125 -2.375 -37.5
v -0.125 -2.125 -37.5
v 0.44815146923065186 -2.125 -37.555259704589844
v 1.0147312879562378 -2.125 -37.724929809570313
v 1.5488585233688354 -2.125 -38.010383605957031
v 2.0182998180389404 -2.125 -38.400890350341797
v 2.3985943794250488 -2.125 -38.877819061279297
v 2.6698417663574219 -2.125 -39.409652709960938
v 2.8262035846710205 -2.125 -39.961116790771484
v 2.875 -2.375 -40.5
v 2.875 -2.125 -40.5
v 2.8197405338287354 -2.125 -41.073150634765625
v 2.6500699520111084 -2.125 -41.639732360839844
v 2.3646180629730225 -2.125 -42.173858642578125
v 1.9741107225418091 -2.125 -42.643299102783203
v 1.4971810579299927 -2.125 -43.023593902587891
v 0.96534848213195801 -2.125 -43.294841766357422
v 0.41388490796089172 -2.125 -43.451202392578125
v -0.125 -2.375 -43.5
v -0.125 -2.125 -43.5
v -0.69815146923065186 -2.125 -43.444740295410156
v -1.2647312879562378 -2.125 -43.275070190429688
v -1.7988585233688354 -2.125 -42.989616394042969
v -2.2682998180389404 -2.125 -42.599109649658203
v -2.6485943794250488 -2.125 -42.122180938720703
v -2.9198417663574219 -2.125 -41.590347290039063
v -3.0762035846710205 -2.125 -41.038883209228516
v -3.125 -2.375 -40.5
v -3.125 -2.125 -40.5
v -3.1128647327423096 -2.375 -40.230438232421875
v -3.0749161243438721 -2.375 -39.954109191894531
v -3.0091967582702637 -2.375 -39.674526214599609
v -2.9143648147583008 -2.375 -39.395717620849609
v -2.7898519039154053 -2.375 -39.122116088867188
v -2.6359865665435791 -2.375 -38.858371734619141
v -2.4540596008300781 -2.375 -38.609104156494141
v -2.2463202476501465 -2.375 -38.378681182861328
v -2.0158944129943848 -2.375 -38.170940399169922
v -1.7666292190551758 -2.375 -37.989013671875
v -1.5028837919235229 -2.375 -37.835147857666016
v -1.2292841672897339 -2.375 -37.710636138916016
v -0.95047461986541748 -2.375 -37.615802764892578
v -0.67088913917541504 -2.375 -37.550083160400391
v -0.39456331729888916 -2.375 -37.512134552001953
v 0.14456331729888916 -2.375 -37.512134552001953
v 0.42088916897773743 -2.375 -37.550083160400391
v 0.70047461986541748 -2.375 -37.615802764892578
v 0.97928410768508911 -2.375 -37.710636138916016
v 1.2528837919235229 -2.375 -37.835147857666016
v 1.5166292190551758 -2.375 -37.989013671875
v 1.7658944129943848 -2.375 -38.170940399169922
v 1.996320366859436 -2.375 -38.378681182861328
v 2.2040596008300781 -2.375 -38.609104156494141
v 2.3859865665435791 -2.375 -38.858371734619141
v 2.5398519039154053 -2.375 -39.122116088867188
v 2.6643648147583008 -2.375 -39.395717620849609
v 2.7591967582702637 -2.375 -39.674526214599609
v 2.8249161243438721 -2.375 -39.954109191894531
v 2.8628647327423096 -2.375 -40.230438232421875
v 2.8628647327423096 -2.375 -40.769561767578125
v 2.8249161243438721 -2.375 -41.045890808105469
v 2.7591967582702637 -2.375 -41.325473785400391
v 2.6643648147583008 -2.375 -41.604282379150391
v 2.5398519039154053 -2.375 -41.877883911132813
v 2.3859865665435791 -2.375 -42.141628265380859
v 2.2040596008300781 -2.375 -42.390895843505859
v 1.996320366859436 -2.375 -42.621318817138672
v 1.7658944129943848 -2.375 -42.829059600830078
v 1.5166292190551758 -2.375 -43.010986328125
v 1.2528837919235229 -2.375 -43.164852142333984
v 0.97928410768508911 -2.375 -43.289363861083984
v 0.70047461986541748 -2.375 -43.384197235107422
v 0.42088916897773743 -2.375 -43.449916839599609
v 0.14456331729888916 -2.375 -43.487865447998047
v -0.39456331729888916 -2.375 -43.487865447998047
v -0.67088913917541504 -2.375 -43.449916839599609
v -0.95047461986541748 -2.375 -43.384197235107422
v -1.2292841672897339 -2.375 -43.289363861083984
v -1.5028837919235229 -2.375 -43.164852142333984
v -1.7666292190551758 -2.375 -43.010986328125
v -2.0158944129943848 -2.375 -42.829059600830078
v -2.2463202476501465 -2.375 -42.621318817138672
v -2.4540596008300781 -2.375 -42.390895843505859
v -2.6359865665435791 -2.375 -42.141628265380859
v -2.7898519039154053 -2.375 -41.877883911132813
v -2.9143648147583008 -2.375 -41.604282379150391
v -3.0091967582702637 -2.375 -41.325473785400391
v -3.0749161243438721 -2.375 -41.045890808105469
v -3.1128647327423096 -2.375 -40.769561767578125
v -3.125 -2.125 -40.5
v -3.0697405338287354 -2.125 -39.926849365234375
v -2.9000699520111084 -2.125 -39.360267639160156
v -2.6146180629730225 -2.125 -38.826141357421875
v -2.2241108417510986 -2.125 -38.356700897216797
v -1.7471810579299927 -2.125 -37.976406097412109
v -1.215348482131958 -2.125 -37.705158233642578
v -0.66388487815856934 -2.125 -37.548797607421875
v -0.125 -2.125 -37.5
v 0.44815146923065186 -2.125 -37.555259704589844
v 1.0147312879562378 -2.125 -37.724929809570313
v 1.5488585233688354 -2.125 -38.010383605957031
v 2.0182998180389404 -2.125 -38.400890350341797
v 2.3985943794250488 -2.125 -38.877819061279297
v 2.6698417663574219 -2.125 -39.409652709960938
v 2.8262035846710205 -2.125 -39.961116790771484
v 2.875 -2.125 -40.5
v 2.8197405338287354 -2.125 -41.073150634765625
v 2.6500699520111084 -2.125 -41.639732360839844
v 2.3646180629730225 -2.125 -42.173858642578125
v 1.9741107225418091 -2.125 -42.643299102783203
v 1.4971810579299927 -2.125 -43.023593902587891
v 0.96534848213195801 -2.125 -43.294841766357422
v 0.41388490796089172 -2.125 -43.451202392578125
v -0.125 -2.125 -43.5
v -0.69815146923065186 -2.125 -43.444740295410156
v -1.2647312879562378 -2.125 -43.275070190429688
v -1.7988585233688354 -2.125 -42.989616394042969
v -2.2682998180389404 -2.125 -42.599109649658203
v -2.6485943794250488 -2.125 -42.122180938720703
v -2.9198417663574219 -2.125 -41.590347290039063
v -3.0762035846710205 -2.125 -41.038883209228516
v -3.125 -2.625 -40.5
v -3.125 -2.375 -40.5
v -3.0697405338287354 -2.625 -39.926849365234375
v -2.9000699520111084 -2.625 -39.360267639160156
v -2.6146180629730225 -2.625 -38.826141357421875
v -2.2241108417510986 -2.625 -38.356700897216797
v -1.7471810579299927 -2.625 -37.976406097412109
v -1.215348482131958 -2.625 -37.705158233642578
v -0.66388487815856934 -2.625 -37.548797607421875
v -0.125 -2.625 -37.5
v 0.44815146923065186 -2.625 -37.555259704589844
v 1.0147312879562378 -2.625 -37.724929809570313
v 1.5488585233688354 -2.625 -38.010383605957031
v 2.0182998180389404 -2.625 -38.400890350341797
v 2.3985943794250488 -2.625 -38.877819061279297
v 2.6698417663574219 -2.625 -39.409652709960938
v 2.8262035846710205 -2.625 -39.961116790771484
v 2.875 -2.625 -40.5
v 2.875 -2.375 -40.5
v 2.8197405338287354 -2.625 -41.073150634765625
v 2.6500699520111084 -2.625 -41.639732360839844
v 2.3646180629730225 -2.625 -42.173858642578125
v 1.9741107225418091 -2.625 -42.643299102783203
v 1.4971810579299927 -2.625 -43.023593902587891
v 0.96534848213195801 -2.625 -43.294841766357422
v 0.41388490796089172 -2.625 -43.451202392578125
v -0.125 -2.625 -43.5
v -0.125 -2.375 -43.5
v -0.69815146923065186 -2.625 -43.444740295410156
v -1.2647312879562378 -2.625 -43.275070190429688
v -1.7988585233688354 -2.625 -42.989616394042969
v -2.2682998180389404 -2.625 -42.599109649658203
v -2.6485943794250488 -2.625 -42.122180938720703
v -2.9198417663574219 -2.625 -41.590347290039063
v -3.0762035846710205 -2.625 -41.038883209228516
v -3.125 -2.625 -40.5
v -3.125 -2.375 -40.5
v -3.1128647327423096 -2.375 -40.769561767578125
v -3.0749161243438721 -2.375 -41.045890808105469
v -3.0091967582702637 -2.375 -41.325473785400391
v -2.9143648147583008 -2.375 -41.604282379150391
v -2.7898519039154053 -2.375 -41.877883911132813
v -2.6359865665435791 -2.375 -42.141628265380859
v -2.4540596008300781 -2.375 -42.390895843505859
v -2.2463202476501465 -2.375 -42.621318817138672
v -2.0158944129943848 -2.375 -42.829059600830078
v -1.7666292190551758 -2.375 -43.010986328125
v -1.5028837919235229 -2.375 -43.164852142333984
v -1.2292841672897339 -2.375 -43.289363861083984
v -0.95047461986541748 -2.375 -43.384197235107422
v -0.67088913917541504 -2.375 -43.449916839599609
v -0.39456331729888916 -2.375 -43.487865447998047
v 0.14456331729888916 -2.375 -43.487865447998047
v 0.42088916897773743 -2.375 -43.449916839599609
v 0.70047461986541748 -2.375 -43.384197235107422
v 0.97928410768508911 -2.375 -43.289363861083984
v 1.2528837919235229 -2.375 -43.164852142333984
v 1.5166292190551758 -2.375 -43.010986328125
v 1.7658944129943848 -2.375 -42.829059600830078
v 1.996320366859436 -2.375 -42.621318817138672
v 2.2040596008300781 -2.375 -42.390895843505859
v 2.3859865665435791 -2.375 -42.141628265380859
v 2.5398519039154053 -2.375 -41.877883911132813
v 2.6643648147583008 -2.375 -41.604282379150391
v 2.7591967582702637 -2.375 -41.325473785400391
v 2.8249161243438721 -2.375 -41.045890808105469
v 2.8628647327423096 -2.375 -40.769561767578125
v 2.8628647327423096 -2.375 -40.230438232421875
v 2.8249161243438721 -2.375 -39.954109191894531
v 2.7591967582702637 -2.375 -39.674526214599609
v 2.6643648147583008 -2.375 -39.395717620849609
v 2.5398519039154053 -2.375 -39.122116088867188
v 2.3859865665435791 -2.375 -38.858371734619141
v 2.2040596008300781 -2.375 -38.609104156494141
v 1.996320366859436 -2.375 -38.378681182861328
v 1.7658944129943848 -2.375 -38.170940399169922
v 1.5166292190551758 -2.375 -37.989013671875
v 1.2528837919235229 -2.375 -37.835147857666016
v 0.97928410768508911 -2.375 -37.710636138916016
v 0.70047461986541748 -2.375 -37.615802764892578
v 0.42088916897773743 -2.375 -37.550083160400391
v 0.14456331729888916 -2.375 -37.512134552001953
v -0.125 -2.375 -37.5
v -0.39456331729888916 -2.375 -37.512134552001953
v -0.67088913917541504 -2.375 -37.550083160400391
v -0.95047461986541748 -2.375 -37.615802764892578
v -1.2292841672897339 -2.375 -37.710636138916016
v -1.5028837919235229 -2.375 -37.835147857666016
v -1.7666292190551758 -2.375 -37.989013671875
v -2.0158944129943848 -2.375 -38.170940399169922
v -2.2463202476501465 -2.375 -38.378681182861328
v -2.4540596008300781 -2.375 -38.609104156494141
v -2.6359865665435791 -2.375 -38.858371734619141
v -2.7898519039154053 -2.375 -39.122116088867188
v -2.9143648147583008 -2.375 -39.395717620849609
v -3.0091967582702637 -2.375 -39.674526214599609
v -3.0749161243438721 -2.375 -39.954109191894531
v -3.1128647327423096 -2.375 -40.230438232421875
v 1.1399999856948853 -2.625 -40.5
v 1.1399999856948853 -2.375 -40.5
v 1.0451544523239136 -2.625 -40.019412994384766
v 1.0451544523239136 -2.375 -40.019412994384766
v 0.76012504100799561 -2.625 -39.596240997314453
v 0.76012504100799561 -2.375 -39.596240997314453
v 0.33476361632347107 -2.625 -39.321510314941406
v 0.33476361632347107 -2.375 -39.321510314941406
v -0.125 -2.625 -39.235000610351563
v -0.125 -2.375 -39.235000610351563
v -0.6055867075920105 -2.625 -39.329845428466797
v -0.6055867075920105 -2.375 -39.329845428466797
v -1.0287580490112305 -2.625 -39.614875793457031
v -1.0287580490112305 -2.375 -39.614875793457031
v -1.3034915924072266 -2.625 -40.040237426757813
v -1.3034915924072266 -2.375 -40.040237426757813
v -1.3899999856948853 -2.625 -40.5
v -1.3899999856948853 -2.375 -40.5
v -1.2951544523239136 -2.625 -40.980587005615234
v -1.2951544523239136 -2.375 -40.980587005615234
v -1.0101250410079956 -2.625 -41.403759002685547
v -1.0101250410079956 -2.375 -41.403759002685547
v -0.58476358652114868 -2.625 -41.678489685058594
v -0.58476358652114868 -2.375 -41.678489685058594
v -0.125 -2.625 -41.764999389648438
v -0.125 -2.375 -41.764999389648438
v 0.35558667778968811 -2.625 -41.670154571533203
v 0.35558667778968811 -2.375 -41.670154571533203
v 0.77875810861587524 -2.625 -41.385124206542969
v 0.77875810861587524 -2.375 -41.385124206542969
v 1.0534915924072266 -2.625 -40.959762573242188
v 1.0534915924072266 -2.375 -40.959762573242188
v 1.1399999856948853 -2.625 -40.5
v 1.1399999856948853 -2.375 -40.5
v -3.125 -2.625 -40.5
v -3.0697405338287354 -2.625 -39.926849365234375
v -2.9000699520111084 -2.625 -39.360267639160156
v -2.6146180629730225 -2.625 -38.826141357421875
v -2.2241108417510986 -2.625 -38.356700897216797
v -1.7471810579299927 -2.625 -37.976406097412109
v -1.215348482131958 -2.625 -37.705158233642578
v -0.66388487815856934 -2.625 -37.548797607421875
v -0.125 -2.625 -37.5
v 0.44815146923065186 -2.625 -37.555259704589844
v 1.0147312879562378 -2.625 -37.724929809570313
v 1.5488585233688354 -2.625 -38.010383605957031
v 2.0182998180389404 -2.625 -38.400890350341797
v 2.3985943794250488 -2.625 -38.877819061279297
v 2.6698417663574219 -2.625 -39.409652709960938
v 2.8262035846710205 -2.625 -39.961116790771484
v 2.875 -2.625 -40.5
v 2.8197405338287354 -2.625 -41.073150634765625
v 2.6500699520111084 -2.625 -41.639732360839844
v 2.3646180629730225 -2.625 -42.173858642578125
v 1.9741107225418091 -2.625 -42.643299102783203
v 1.4971810579299927 -2.625 -43.023593902587891
v 0.96534848213195801 -2.625 -43.294841766357422
v 0.41388490796089172 -2.625 -43.451202392578125
v -0.125 -2.625 -43.5
v -0.69815146923065186 -2.625 -43.444740295410156
v -1.2647312879562378 -2.625 -43.275070190429688
v -1.7988585233688354 -2.625 -42.989616394042969
v -2.2682998180389404 -2.625 -42.599109649658203
v -2.6485943794250488 -2.625 -42.122180938720703
v -2.9198417663574219 -2.625 -41.590347290039063
v -3.0762035846710205 -2.625 -41.038883209228516
v 1.1399999856948853 -2.625 -40.5
v 1.0451544523239136 -2.625 -40.019412994384766
v 0.76012504100799561 -2.625 -39.596240997314453
v 0.33476361632347107 -2.625 -39.321510314941406
v -0.125 -2.625 -39.235000610351563
v -0.6055867075920105 -2.625 -39.329845428466797
v -1.0287580490112305 -2.625 -39.614875793457031
v -1.3034915924072266 -2.625 -40.040237426757813
v -1.3899999856948853 -2.625 -40.5
v -1.2951544523239136 -2.625 -40.980587005615234
v -1.0101250410079956 -2.625 -41.403759002685547
v -0.58476358652114868 -2.625 -41.678489685058594
v -0.125 -2.625 -41.764999389648438
v 0.35558667778968811 -2.625 -41.670154571533203
v 0.77875810861587524 -2.625 -41.385124206542969
v 1.0534915924072266 -2.625 -40.959762573242188
v 1.1399999856948853 -2.375 -40.5
v 1.0534915924072266 -2.375 -40.959762573242188
v 0.77875810861587524 -2.375 -41.385124206542969
v 0.35558667778968811 -2.375 -41.670154571533203
v -0.125 -2.375 -41.764999389648438
v -0.58476358652114868 -2.375 -41.678489685058594
v -1.0101250410079956 -2.375 -41.403759002685547
v -1.2951544523239136 -2.375 -40.980587005615234
v -1.3899999856948853 -2.375 -40.5
v -1.3034915924072266 -2.375 -40.040237426757813
v -1.0287580490112305 -2.375 -39.614875793457031
v -0.6055867075920105 -2.375 -39.329845428466797
v -0.125 -2.375 -39.235000610351563
v 0.33476361632347107 -2.375 -39.321510314941406
v 0.76012504100799561 -2.375 -39.596240997314453
v 1.0451544523239136 -2.375 -40.019412994384766
vt 0.024374941363930702 0
vt 0.012919892556965351 0
vt 0.012919892556965351 0.031883198767900467
vt 0.012919892556965351 0.062741011381149292
vt 0.012919892556965351 0.093101069331169128
vt 0.012919892556965351 0.12311562150716782
vt 0.012919892556965351 0.1531301736831665
vt 0.012919892556965351 0.18314473330974579
vt 0.012919892556965351 0.21315927803516388
vt 0.024374941363930702 0.24317383766174316
vt 0.012919892556965351 0.24317383766174316
vt 0.012919892556965351 0.27505704760551453
vt 0.012919892556965351 0.30591487884521484
vt 0.012919892556965351 0.3362748920917511
vt 0.012919892556965351 0.36628946661949158
vt 0.012919892556965351 0.39630401134490967
vt 0.012919892556965351 0.42631855607032776
vt 0.012919892556965351 0.45633313059806824
vt 0.024374941363930702 0.48634767532348633
vt 0.012919892556965351 0.48634767532348633
vt 0.012919892556965351 0.51823091506958008
vt 0.012919892556965351 0.54908871650695801
vt 0.012919892556965351 0.57944875955581665
vt 0.012919892556965351 0.60946327447891235
vt 0.012919892556965351 0.63947784900665283
vt 0.012919892556965351 0.66949242353439331
vt 0.012919892556965351 0.69950699806213379
vt 0.024374941363930702 0.72952151298522949
vt 0.012919892556965351 0.72952151298522949
vt 0.012919892556965351 0.76140475273132324
vt 0.012919892556965351 0.79226255416870117
vt 0.012919892556965351 0.82262259721755981
vt 0.012919892556965351 0.85263711214065552
vt 0.012919892556965351 0.882651686668396
vt 0.012919892556965351 0.91266626119613647
vt 0.012919892556965351 0.94268083572387695
vt 0.024374941363930702 0.97269535064697266
vt 0.012919892556965351 0.97269535064697266
vt 0.024374941363930702 0.015198364853858948
vt 0.024374941363930702 0.030396729707717896
vt 0.024374941363930702 0.045595094561576843
vt 0.024374941363930702 0.060793459415435791
vt 0.024374941363930702 0.075991824269294739
vt 0.024374941363930702 0.091190189123153687
vt 0.024374941363930702 0.10638855397701263
vt 0.024374941363930702 0.12158691883087158
vt 0.024374941363930702 0.13678528368473053
vt 0.024374941363930702 0.15198364853858948
vt 0.024374941363930702 0.16718201339244843
vt 0.024374941363930702 0.18238037824630737
vt 0.024374941363930702 0.19757874310016632
vt 0.024374941363930702 0.21277710795402527
vt 0.024374941363930702 0.22797547280788422
vt 0.024374941363930702 0.25837221741676331
vt 0.024374941363930702 0.27357056736946106
vt 0.024374941363930702 0.2887689471244812
vt 0.024374941363930702 0.30396729707717896
vt 0.024374941363930702 0.3191656768321991
vt 0.024374941363930702 0.33436402678489685
vt 0.024374941363930702 0.34956240653991699
vt 0.024374941363930702 0.36476075649261475
vt 0.024374941363930702 0.37995913624763489
vt 0.024374941363930702 0.39515748620033264
vt 0.024374941363930702 0.41035586595535278
vt 0.024374941363930702 0.42555421590805054
vt 0.024374941363930702 0.44075259566307068
vt 0.024374941363930702 0.45595094561576843
vt 0.024374941363930702 0.47114932537078857
vt 0.024374941363930702 0.50154602527618408
vt 0.024374941363930702 0.51674443483352661
vt 0.024374941363930702 0.53194278478622437
vt 0.024374941363930702 0.54714113473892212
vt 0.024374941363930702 0.56233948469161987
vt 0.024374941363930702 0.5775378942489624
vt 0.024374941363930702 0.59273624420166016
vt 0.024374941363930702 0.60793459415435791
vt 0.024374941363930702 0.62313294410705566
vt 0.024374941363930702 0.63833135366439819
vt 0.024374941363930702 0.65352970361709595
vt 0.024374941363930702 0.6687280535697937
vt 0.024374941363930702 0.68392640352249146
vt 0.024374941363930702 0.69912481307983398
vt 0.024374941363930702 0.71432316303253174
vt 0.024374941363930702 0.74471992254257202
vt 0.024374941363930702 0.75991827249526978
vt 0.024374941363930702 0.77511662244796753
vt 0.024374941363930702 0.79031497240066528
vt 0.024374941363930702 0.80551338195800781
vt 0.024374941363930702 0.82071173191070557
vt 0.024374941363930702 0.83591008186340332
vt 0.024374941363930702 0.85110843181610107
vt 0.024374941363930702 0.8663068413734436
vt 0.024374941363930702 0.88150519132614136
vt 0.024374941363930702 0.89670354127883911
vt 0.024374941363930702 0.91190189123153687
vt 0.024374941363930702 0.92710030078887939
vt 0.024374941363930702 0.94229865074157715
vt 0.024374941363930702 0.9574970006942749
vt 0.33591720461845398 0.5505029559135437
vt 0.33306142687797546 0.5801231861114502
vt 0.32429292798042297 0.60940378904342651
vt 0.30954086780548096 0.63700723648071289
vt 0.28935962915420532 0.66126775741577148
vt 0.2647121250629425 0.68092119693756104
vt 0.23722723126411438 0.69493913650512695
vt 0.20872783660888672 0.70301985740661621
vt 0.18087849020957947 0.70554167032241821
vt 0.15125827491283417 0.7026858925819397
vt 0.12197767943143845 0.69391733407974243
vt 0.094374209642410278 0.6791653037071228
vt 0.070113688707351685 0.65898406505584717
vt 0.050460223108530045 0.63433653116226196
vt 0.03644227609038353 0.60685169696807861
vt 0.02836155891418457 0.57835227251052856
vt 0.025839785113930702 0.5505029559135437
vt 0.028695566579699516 0.52088272571563721
vt 0.037464078515768051 0.49160212278366089
vt 0.05221610888838768 0.46399864554405212
vt 0.07239735871553421 0.43973812460899353
vt 0.097044877707958221 0.42008465528488159
vt 0.12452974915504456 0.40606671571731567
vt 0.15302915871143341 0.39798599481582642
vt 0.18087849020957947 0.39546424150466919
vt 0.21049872040748596 0.39832001924514771
vt 0.23977932333946228 0.4070885181427002
vt 0.26738280057907104 0.42184054851531982
vt 0.29164332151412964 0.44202178716659546
vt 0.31129676103591919 0.46666932106018066
vt 0.3253147304058075 0.4941541850566864
vt 0.33339545130729675 0.52265357971191406
vt 0.025839785113930702 0.79092848300933838
vt 0.025839785113930702 0.80384832620620728
vt 0.057722985744476318 0.79092848300933838
vt 0.088580802083015442 0.79092848300933838
vt 0.11894085258245468 0.79092848300933838
vt 0.14895540475845337 0.79092848300933838
vt 0.17896996438503265 0.79092848300933838
vt 0.20898452401161194 0.79092848300933838
vt 0.23899906873703003 0.79092848300933838
vt 0.26901361346244812 0.79092848300933838
vt 0.30089682340621948 0.79092848300933838
vt 0.3317546546459198 0.79092848300933838
vt 0.36211469769477844 0.79092848300933838
vt 0.39212927222251892 0.79092848300933838
vt 0.42214381694793701 0.79092848300933838
vt 0.4521583616733551 0.79092848300933838
vt 0.48217293620109558 0.79092848300933838
vt 0.51218748092651367 0.79092848300933838
vt 0.51218748092651367 0.80384832620620728
vt 0.54407066106796265 0.79092848300933838
vt 0.57492852210998535 0.79092848300933838
vt 0.60528850555419922 0.79092848300933838
vt 0.6353030800819397 0.79092848300933838
vt 0.6653175950050354 0.79092848300933838
vt 0.69533222913742065 0.79092848300933838
vt 0.72534674406051636 0.79092848300933838
vt 0.75536131858825684 0.79092848300933838
vt 0.75536131858825684 0.80384832620620728
vt 0.78724449872970581 0.79092848300933838
vt 0.81810235977172852 0.79092848300933838
vt 0.84846240282058716 0.79092848300933838
vt 0.87847691774368286 0.79092848300933838
vt 0.90849149227142334 0.79092848300933838
vt 0.93850606679916382 0.79092848300933838
vt 0.96852058172225952 0.79092848300933838
vt 0.99853515625 0.79092848300933838
vt 0.99853515625 0.80384832620620728
vt 0.98333680629730225 0.80384832620620728
vt 0.96813839673995972 0.80384832620620728
vt 0.95294004678726196 0.80384832620620728
vt 0.93774169683456421 0.80384832620620728
vt 0.92254334688186646 0.80384832620620728
vt 0.90734493732452393 0.80384832620620728
vt 0.89214658737182617 0.80384832620620728
vt 0.87694823741912842 0.80384832620620728
vt 0.86174988746643066 0.80384832620620728
vt 0.84655147790908813 0.80384832620620728
vt 0.83135312795639038 0.80384832620620728
vt 0.81615477800369263 0.80384832620620728
vt 0.80095642805099487 0.80384832620620728
vt 0.78575801849365234 0.80384832620620728
vt 0.77055966854095459 0.80384832620620728
vt 0.74016296863555908 0.80384832620620728
vt 0.72496455907821655 0.80384832620620728
vt 0.7097662091255188 0.80384832620620728
vt 0.69456785917282104 0.80384832620620728
vt 0.67936950922012329 0.80384832620620728
vt 0.66417109966278076 0.80384832620620728
vt 0.64897274971008301 0.80384832620620728
vt 0.63377439975738525 0.80384832620620728
vt 0.6185760498046875 0.80384832620620728
vt 0.60337764024734497 0.80384832620620728
vt 0.58817929029464722 0.80384832620620728
vt 0.57298094034194946 0.80384832620620728
vt 0.55778259038925171 0.80384832620620728
vt 0.54258418083190918 0.80384832620620728
vt 0.52738583087921143 0.80384832620620728
vt 0.49698910117149353 0.80384832620620728
vt 0.48179075121879578 0.80384832620620728
vt 0.46659237146377563 0.80384832620620728
vt 0.45139402151107788 0.80384832620620728
vt 0.43619564175605774 0.80384832620620728
vt 0.42099729180335999 0.80384832620620728
vt 0.40579891204833984 0.80384832620620728
vt 0.39060056209564209 0.80384832620620728
vt 0.37540218234062195 0.80384832620620728
vt 0.36020383238792419 0.80384832620620728
vt 0.34500545263290405 0.80384832620620728
vt 0.3298071026802063 0.80384832620620728
vt 0.31460872292518616 0.80384832620620728
vt 0.2994103729724884 0.80384832620620728
vt 0.28421199321746826 0.80384832620620728
vt 0.26901361346244812 0.80384832620620728
vt 0.25381526350975037 0.80384832620620728
vt 0.23861689865589142 0.80384832620620728
vt 0.22341853380203247 0.80384832620620728
vt 0.20822016894817352 0.80384832620620728
vt 0.19302180409431458 0.80384832620620728
vt 0.17782343924045563 0.80384832620620728
vt 0.16262507438659668 0.80384832620620728
vt 0.14742670953273773 0.80384832620620728
vt 0.13222834467887878 0.80384832620620728
vt 0.11702997982501984 0.80384832620620728
vt 0.10183160752058029 0.80384832620620728
vt 0.086633242666721344 0.80384832620620728
vt 0.071434877812862396 0.80384832620620728
vt 0.056236516684293747 0.80384832620620728
vt 0.041038151830434799 0.80384832620620728
vt 0.011455048806965351 0
vt 0 0
vt 0.011455048806965351 0.026495635509490967
vt 0 0.026495635509490967
vt 0.011455048806965351 0.051991932094097137
vt 0 0.051991932094097137
vt 0.011455048806965351 0.077342331409454346
vt 0 0.077342331409454346
vt 0.011455048806965351 0.10269272327423096
vt 0 0.10269272327423096
vt 0.011455048806965351 0.12918835878372192
vt 0 0.12918835878372192
vt 0.011455048806965351 0.15468466281890869
vt 0 0.15468466281890869
vt 0.011455048806965351 0.1800350546836853
vt 0 0.1800350546836853
vt 0.011455048806965351 0.20538544654846191
vt 0 0.20538544654846191
vt 0.011455048806965351 0.23188108205795288
vt 0 0.23188108205795288
vt 0.011455048806965351 0.25737738609313965
vt 0 0.25737738609313965
vt 0.011455048806965351 0.28272777795791626
vt 0 0.28272777795791626
vt 0.011455048806965351 0.30807816982269287
vt 0 0.30807816982269287
vt 0.011455048806965351 0.33457380533218384
vt 0 0.33457380533218384
vt 0.011455048806965351 0.36007010936737061
vt 0 0.36007010936737061
vt 0.011455048806965351 0.38542050123214722
vt 0 0.38542050123214722
vt 0.011455048806965351 0.41077089309692383
vt 0 0.41077089309692383
vt 0.33591720461845398 0.15503871440887451
vt 0.33306142687797546 0.18465894460678101
vt 0.32429292798042297 0.21393954753875732
vt 0.30954086780548096 0.2415430098772049
vt 0.28935962915420532 0.26580354571342468
vt 0.2647121250629425 0.28545698523521423
vt 0.23722723126411438 0.29947492480278015
vt 0.20872783660888672 0.30755564570426941
vt 0.18087849020957947 0.31007742881774902
vt 0.15125827491283417 0.30722165107727051
vt 0.12197767943143845 0.29845312237739563
vt 0.094374209642410278 0.283701092004776
vt 0.070113688707351685 0.26351985335350037
vt 0.050460223108530045 0.23887233436107635
vt 0.03644227609038353 0.21138744056224823
vt 0.02836155891418457 0.18288804590702057
vt 0.025839785113930702 0.15503871440887451
vt 0.028695566579699516 0.12541849911212921
vt 0.037464078515768051 0.096137888729572296
vt 0.05221610888838768 0.068534426391124725
vt 0.07239735871553421 0.044273901730775833
vt 0.097044877707958221 0.024620439857244492
vt 0.12452974915504456 0.010602491907775402
vt 0.15302915871143341 0.0025217738002538681
vt 0.18087849020957947 0
vt 0.21049872040748596 0.0028557803016155958
vt 0.23977932333946228 0.011624294333159924
vt 0.26738280057907104 0.026376321911811829
vt 0.29164332151412964 0.046557571738958359
vt 0.31129676103591919 0.071205094456672668
vt 0.3253147304058075 0.098689965903759003
vt 0.33339545130729675 0.12718936800956726
vt 0.11550384014844894 0.15503871440887451
vt 0.1204054206609726 0.17987522482872009
vt 0.13513562083244324 0.20174454152584076
vt 0.15711811184883118 0.21594265103340149
vt 0.18087849020957947 0.22041335701942444
vt 0.20571501553058624 0.21551178395748138
vt 0.22758433222770691 0.20078159868717194
vt 0.24178242683410645 0.1787990927696228
vt 0.24625314772129059 0.15503871440887451
vt 0.24135157465934753 0.13020218908786774
vt 0.22662137448787689 0.10833287984132767
vt 0.20463888347148895 0.094134770333766937
vt 0.18087849020957947 0.089664049446582794
vt 0.15604197978973389 0.094565629959106445
vt 0.13417266309261322 0.10929583013057709
vt 0.11997455358505249 0.13127833604812622
vt 0.025839785113930702 0.87278079986572266
vt 0.030310502275824547 0.84902042150497437
vt 0.044508613646030426 0.82703793048858643
vt 0.066377930343151093 0.81230771541595459
vt 0.091214440762996674 0.80740612745285034
vt 0.11497482657432556 0.81187683343887329
vt 0.1369573175907135 0.82607495784759521
vt 0.15168751776218414 0.84794425964355469
vt 0.15658910572528839 0.87278079986572266
vt 0.15211838483810425 0.89654117822647095
vt 0.13792027533054352 0.91852366924285889
vt 0.11605095863342285 0.93325388431549072
vt 0.091214440762996674 0.93815547227859497
vt 0.067454054951667786 0.93368470668792725
vt 0.045471560209989548 0.9194866418838501
vt 0.030741361901164055 0.89761728048324585
vn -1 0 0
vn -1 0 0
vn -0.98158019781112671 0 0.19105048477649689
vn -0.92502325773239136 0 0.37991040945053101
vn -0.82987266778945923 0 0.55795282125473022
vn -0.69970357418060303 0 0.71443325281143188
vn -0.54072701930999756 0 0.8411981463432312
vn -0.36344948410987854 0 0.93161392211914063
vn -0.17962829768657684 0 0.98373454809188843
vn 0 0 1
vn 0 0 1
vn 0.19105048477649689 0 0.98158019781112671
vn 0.37991040945053101 0 0.92502325773239136
vn 0.55795282125473022 0 0.82987266778945923
vn 0.71443325281143188 0 0.69970357418060303
vn 0.8411981463432312 0 0.54072701930999756
vn 0.93161392211914063 0 0.36344948410987854
vn 0.98373454809188843 0 0.17962829768657684
vn 1 0 0
vn 1 0 0
vn 0.98158019781112671 0 -0.19105048477649689
vn 0.92502325773239136 0 -0.37991040945053101
vn 0.82987266778945923 0 -0.55795282125473022
vn 0.69970357418060303 0 -0.71443325281143188
vn 0.54072701930999756 0 -0.8411981463432312
vn 0.36344948410987854 0 -0.93161392211914063
vn 0.17962829768657684 0 -0.98373454809188843
vn 0 0 -1
vn 0 0 -1
vn -0.19105048477649689 0 -0.98158019781112671
vn -0.37991040945053101 0 -0.92502325773239136
vn -0.55795282125473022 0 -0.82987266778945923
vn -0.71443325281143188 0 -0.69970357418060303
vn -0.8411981463432312 0 -0.54072701930999756
vn -0.93161392211914063 0 -0.36344948410987854
vn -0.98373454809188843 0 -0.17962829768657684
vn -1 0 0
vn -1 0 0
vn -0.99595493078231812 0 0.089854441583156586
vn -0.98330539464950562 0 0.18196305632591248
vn -0.96139895915985107 0 0.27515822649002075
vn -0.92978829145431519 0 0.36809471249580383
vn -0.88828402757644653 0 0.45929458737373352
vn -0.83699548244476318 0 0.54720973968505859
vn -0.77635318040847778 0 0.63029813766479492
vn -0.70710676908493042 0 0.70710676908493042
vn -0.63029813766479492 0 0.77635318040847778
vn -0.54720973968505859 0 0.83699548244476318
vn -0.45929458737373352 0 0.88828402757644653
vn -0.36809471249580383 0 0.92978829145431519
vn -0.27515822649002075 0 0.96139895915985107
vn -0.18196305632591248 0 0.98330539464950562
vn -0.089854441583156586 0 0.99595493078231812
vn 0.089854441583156586 0 0.99595493078231812
vn 0.18196305632591248 0 0.98330539464950562
vn 0.27515822649002075 0 0.96139895915985107
vn 0.36809471249580383 0 0.92978829145431519
vn 0.45929458737373352 0 0.88828402757644653
vn 0.54720973968505859 0 0.83699548244476318
vn 0.63029813766479492 0 0.77635318040847778
vn 0.70710676908493042 0 0.70710676908493042
vn 0.77635318040847778 0 0.63029813766479492
vn 0.83699548244476318 0 0.54720973968505859
vn 0.88828402757644653 0 0.45929458737373352
vn 0.92978829145431519 0 0.36809471249580383
vn 0.96139895915985107 0 0.27515822649002075
vn 0.98330539464950562 0 0.18196305632591248
vn 0.99595493078231812 0 0.089854441583156586
vn 0.99595493078231812 0 -0.089854441583156586
vn 0.98330539464950562 0 -0.18196305632591248
vn 0.96139895915985107 0 -0.27515822649002075
vn 0.92978829145431519 0 -0.36809471249580383
vn 0.88828402757644653 0 -0.45929458737373352
vn 0.83699548244476318 0 -0.54720973968505859
vn 0.77635318040847778 0 -0.63029813766479492
vn 0.70710676908493042 0 -0.70710676908493042
vn 0.63029813766479492 0 -0.77635318040847778
vn 0.54720973968505859 0 -0.83699548244476318
vn 0.45929458737373352 0 -0.88828402757644653
vn 0.36809471249580383 0 -0.92978829145431519
vn 0.27515822649002075 0 -0.96139895915985107
vn 0.18196305632591248 0 -0.98330539464950562
vn 0.089854441583156586 0 -0.99595493078231812
vn -0.089854441583156586 0 -0.99595493078231812
vn -0.18196305632591248 0 -0.98330539464950562
vn -0.27515822649002075 0 -0.96139895915985107
vn -0.36809471249580383 0 -0.92978829145431519
vn -0.45929458737373352 0 -0.88828402757644653
vn -0.54720973968505859 0 -0.83699548244476318
vn -0.63029813766479492 0 -0.77635318040847778
vn -0.70710676908493042 0 -0.70710676908493042
vn -0.77635318040847778 0 -0.63029813766479492
vn -0.83699548244476318 0 -0.54720973968505859
vn -0.88828402757644653 0 -0.45929458737373352
vn -0.92978829145431519 0 -0.36809471249580383
vn -0.96139895915985107 0 -0.27515822649002075
vn -0.98330539464950562 0 -0.18196305632591248
vn -0.99595493078231812 0 -0.089854441583156586
vn 0 1 0
vn 0 1 0
vn 0 1 0
vn 0 1 0
vn 0 1 0
vn 0 1 0
vn 0 1 0
vn 0 1 0
vn 0 1 0
vn 0 1 0
vn 0 1 0
vn 0 1 0
vn 0 1 0
vn 0 1 0
vn 0 1 0
vn 0 1 0
vn 0 1 0
vn 0 1 0
vn 0 1 0
vn 0 1 0
vn 0 1 0
vn 0 1 0
vn 0 1 0
vn 0 1 0
vn 0 1 0
vn 0 1 0
vn 0 1 0
vn 0 1 0
vn 0 1 0
vn 0 1 0
vn 0 1 0
vn 0 1 0
vn -1 0 0
vn -1 0 0
vn -0.98158019781112671 0 0.19105048477649689
vn -0.92502325773239136 0 0.37991040945053101
vn -0.82987266778945923 0 0.55795282125473022
vn -0.69970357418060303 0 0.71443325281143188
vn -0.54072701930999756 0 0.8411981463432312
vn -0.36344948410987854 0 0.93161392211914063
vn -0.17962829768657684 0 0.98373454809188843
vn 0 0 1
vn 0.19105048477649689 0 0.98158019781112671
vn 0.37991040945053101 0 0.92502325773239136
vn 0.55795282125473022 0 0.82987266778945923
vn 0.71443325281143188 0 0.69970357418060303
vn 0.8411981463432312 0 0.54072701930999756
vn 0.93161392211914063 0 0.36344948410987854
vn 0.98373454809188843 0 0.17962829768657684
vn 1 0 0
vn 1 0 0
vn 0.98158019781112671 0 -0.19105048477649689
vn 0.92502325773239136 0 -0.37991040945053101
vn 0.82987266778945923 0 -0.55795282125473022
vn 0.69970357418060303 0 -0.71443325281143188
vn 0.54072701930999756 0 -0.8411981463432312
vn 0.36344948410987854 0 -0.93161392211914063
vn 0.17962829768657684 0 -0.98373454809188843
vn 0 0 -1
vn 0 0 -1
vn -0.19105048477649689 0 -0.98158019781112671
vn -0.37991040945053101 0 -0.92502325773239136
vn -0.55795282125473022 0 -0.82987266778945923
vn -0.71443325281143188 0 -0.69970357418060303
vn -0.8411981463432312 0 -0.54072701930999756
vn -0.93161392211914063 0 -0.36344948410987854
vn -0.98373454809188843 0 -0.17962829768657684
vn -1 0 0
vn -1 0 0
vn -0.99595493078231812 0 -0.089854441583156586
vn -0.98330539464950562 0 -0.18196305632591248
vn -0.96139895915985107 0 -0.27515822649002075
vn -0.92978829145431519 0 -0.36809471249580383
vn -0.88828402757644653 0 -0.45929458737373352
vn -0.83699548244476318 0 -0.54720973968505859
vn -0.77635318040847778 0 -0.63029813766479492
vn -0.70710676908493042 0 -0.70710676908493042
vn -0.63029813766479492 0 -0.77635318040847778
vn -0.54720973968505859 0 -0.83699548244476318
vn -0.45929458737373352 0 -0.88828402757644653
vn -0.36809471249580383 0 -0.92978829145431519
vn -0.27515822649002075 0 -0.96139895915985107
vn -0.18196305632591248 0 -0.98330539464950562
vn -0.089854441583156586 0 -0.99595493078231812
vn 0.089854441583156586 0 -0.99595493078231812
vn 0.18196305632591248 0 -0.98330539464950562
vn 0.27515822649002075 0 -0.96139895915985107
vn 0.36809471249580383 0 -0.92978829145431519
vn 0.45929458737373352 0 -0.88828402757644653
vn 0.54720973968505859 0 -0.83699548244476318
vn 0.63029813766479492 0 -0.77635318040847778
vn 0.70710676908493042 0 -0.70710676908493042
vn 0.77635318040847778 0 -0.63029813766479492
vn 0.83699548244476318 0 -0.54720973968505859
vn 0.88828402757644653 0 -0.45929458737373352
vn 0.92978829145431519 0 -0.36809471249580383
vn 0.96139895915985107 0 -0.27515822649002075
vn 0.98330539464950562 0 -0.18196305632591248
vn 0.99595493078231812 0 -0.089854441583156586
vn 0.99595493078231812 0 0.089854441583156586
vn 0.98330539464950562 0 0.18196305632591248
vn 0.96139895915985107 0 0.27515822649002075
vn 0.92978829145431519 0 0.36809471249580383
vn 0.88828402757644653 0 0.45929458737373352
vn 0.83699548244476318 0 0.54720973968505859
vn 0.77635318040847778 0 0.63029813766479492
vn 0.70710676908493042 0 0.70710676908493042
vn 0.63029813766479492 0 0.77635318040847778
vn 0.54720973968505859 0 0.83699548244476318
vn 0.45929458737373352 0 0.88828402757644653
vn 0.36809471249580383 0 0.92978829145431519
vn 0.27515822649002075 0 0.96139895915985107
vn 0.18196305632591248 0 0.98330539464950562
vn 0.089854441583156586 0 0.99595493078231812
vn 0 0 1
vn -0.089854441583156586 0 0.99595493078231812
vn -0.18196305632591248 0 0.98330539464950562
vn -0.27515822649002075 0 0.96139895915985107
vn -0.36809471249580383 0 0.92978829145431519
vn -0.45929458737373352 0 0.88828402757644653
vn -0.54720973968505859 0 0.83699548244476318
vn -0.63029813766479492 0 0.77635318040847778
vn -0.70710676908493042 0 0.70710676908493042
vn -0.77635318040847778 0 0.63029813766479492
vn -0.83699548244476318 0 0.54720973968505859
vn -0.88828402757644653 0 0.45929458737373352
vn -0.92978829145431519 0 0.36809471249580383
vn -0.96139895915985107 0 0.27515822649002075
vn -0.98330539464950562 0 0.18196305632591248
vn -0.99595493078231812 0 0.089854441583156586
vn -1 0 0
vn -1 0 0
vn -0.92502325773239136 0 -0.37991040945053101
vn -0.92502325773239136 0 -0.37991040945053101
vn -0.69970357418060303 0 -0.71443325281143188
vn -0.69970357418060303 0 -0.71443325281143188
vn -0.36344948410987854 0 -0.93161392211914063
vn -0.36344948410987854 0 -0.93161392211914063
vn 0 0 -1
vn 0 0 -1
vn 0.37991040945053101 0 -0.92502325773239136
vn 0.37991040945053101 0 -0.92502325773239136
vn 0.71443325281143188 0 -0.69970357418060303
vn 0.71443325281143188 0 -0.69970357418060303
vn 0.93161392211914063 0 -0.36344948410987854
vn 0.93161392211914063 0 -0.36344948410987854
vn 1 0 0
vn 1 0 0
vn 0.92502325773239136 0 0.37991040945053101
vn 0.92502325773239136 0 0.37991040945053101
vn 0.69970357418060303 0 0.71443325281143188
vn 0.69970357418060303 0 0.71443325281143188
vn 0.36344948410987854 0 0.93161392211914063
vn 0.36344948410987854 0 0.93161392211914063
vn 0 0 1
vn 0 0 1
vn -0.37991040945053101 0 0.92502325773239136
vn -0.37991040945053101 0 0.92502325773239136
vn -0.71443325281143188 0 0.69970357418060303
vn -0.71443325281143188 0 0.69970357418060303
vn -0.93161392211914063 0 0.36344948410987854
vn -0.93161392211914063 0 0.36344948410987854
vn -1 0 0
vn -1 0 0
vn 0 -1 0
vn 0 -1 0
vn 0 -1 0
vn 0 -1 0
vn 0 -1 0
vn 0 -1 0
vn 0 -1 0
vn 0 -1 0
vn 0 -1 0
vn 0 -1 0
vn 0 -1 0
vn 0 -1 0
vn 0 -1 0
vn 0 -1 0
vn 0 -1 0
vn 0 -1 0
vn 0 -1 0
vn 0 -1 0
vn 0 -1 0
vn 0 -1 0
vn 0 -1 0
vn 0 -1 0
vn 0 -1 0
vn 0 -1 0
vn 0 -1 0
vn 0 -1 0
vn 0 -1 0
vn 0 -1 0
vn 0 -1 0
vn 0 -1 0
vn 0 -1 0
vn 0 -1 0
vn 0 -1 0
vn 0 -1 0
vn 0 -1 0
vn 0 -1 0
vn 0 -1 0
vn 0 -1 0
vn 0 -1 0
vn 0 -1 0
vn 0 -1 0
vn 0 -1 0
vn 0 -1 0
vn 0 -1 0
vn 0 -1 0
vn 0 -1 0
vn 0 -1 0
vn 0 -1 0
vn 0 -1 0
vn 0 -1 0
vn 0 -1 0
vn 0 -1 0
vn 0 -1 0
vn 0 -1 0
vn 0 -1 0
vn 0 -1 0
vn 0 -1 0
vn 0 -1 0
vn 0 -1 0
vn 0 -1 0
vn 0 -1 0
vn 0 -1 0
vn 0 -1 0
vn 0 -1 0
f 2/2/2 1/1/1 39/39/39
f 3/3/3 39/39/39 40/40/40
f 4/4/4 41/41/41 42/42/42
f 4/4/4 42/42/42 43/43/43
f 3/3/3 40/40/40 41/41/41
f 5/5/5 44/44/44 45/45/45
f 6/6/6 45/45/45 46/46/46
f 7/7/7 47/47/47 48/48/48
f 7/7/7 48/48/48 49/49/49
f 6/6/6 46/46/46 47/47/47
f 5/5/5 43/43/43 44/44/44
f 8/8/8 50/50/50 51/51/51
f 9/9/9 51/51/51 52/52/52
f 11/11/11 53/53/53 10/10/10
f 11/11/11 10/10/10 54/54/54
f 9/9/9 52/52/52 53/53/53
f 12/12/12 55/55/55 56/56/56
f 13/13/13 56/56/56 57/57/57
f 14/14/14 58/58/58 59/59/59
f 14/14/14 59/59/59 60/60/60
f 13/13/13 57/57/57 58/58/58
f 12/12/12 54/54/54 55/55/55
f 8/8/8 49/49/49 50/50/50
f 3/3/3 2/2/2 39/39/39
f 4/4/4 3/3/3 41/41/41
f 6/6/6 5/5/5 45/45/45
f 7/7/7 6/6/6 47/47/47
f 4/4/4 43/43/43 5/5/5
f 9/9/9 8/8/8 51/51/51
f 11/11/11 9/9/9 53/53/53
f 13/13/13 12/12/12 56/56/56
f 14/14/14 13/13/13 58/58/58
f 11/11/11 54/54/54 12/12/12
f 7/7/7 49/49/49 8/8/8
f 15/15/15 61/61/61 62/62/62
f 16/16/16 62/62/62 63/63/63
f 17/17/17 64/64/64 65/65/65
f 17/17/17 65/65/65 66/66/66
f 16/16/16 63/63/63 64/64/64
f 16/16/16 15/15/15 62/62/62
f 17/17/17 16/16/16 64/64/64
f 18/18/18 67/67/67 68/68/68
f 19/19/19 20/20/20 68/68/68
f 18/18/18 68/68/68 20/20/20
f 18/18/18 17/17/17 66/66/66 67/67/67
f 15/15/15 14/14/14 60/60/60 61/61/61
f 21/21/21 69/69/69 70/70/70
f 21/21/21 70/70/70 71/71/71
f 22/22/22 72/72/72 73/73/73
f 23/23/23 73/73/73 74/74/74
f 22/22/22 71/71/71 72/72/72
f 24/24/24 75/75/75 76/76/76
f 24/24/24 76/76/76 77/77/77
f 25/25/25 78/78/78 79/79/79
f 26/26/26 79/79/79 80/80/80
f 25/25/25 77/77/77 78/78/78
f 23/23/23 74/74/74 75/75/75
f 27/27/27 81/81/81 82/82/82
f 27/27/27 82/82/82 83/83/83
f 29/29/29 28/28/28 84/84/84
f 30/30/30 84/84/84 85/85/85
f 29/29/29 83/83/83 28/28/28
f 31/31/31 86/86/86 87/87/87
f 31/31/31 87/87/87 88/88/88
f 32/32/32 89/89/89 90/90/90
f 33/33/33 90/90/90 91/91/91
f 32/32/32 88/88/88 89/89/89
f 30/30/30 85/85/85 86/86/86
f 26/26/26 80/80/80 81/81/81
f 21/21/21 20/20/20 69/69/69
f 22/22/22 21/21/21 71/71/71
f 24/24/24 23/23/23 75/75/75
f 25/25/25 24/24/24 77/77/77
f 22/22/22 73/73/73 23/23/23
f 27/27/27 26/26/26 81/81/81
f 29/29/29 27/27/27 83/83/83
f 31/31/31 30/30/30 86/86/86
f 32/32/32 31/31/31 88/88/88
f 29/29/29 84/84/84 30/30/30
f 25/25/25 79/79/79 26/26/26
f 34/34/34 92/92/92 93/93/93
f 34/34/34 93/93/93 94/94/94
f 35/35/35 95/95/95 96/96/96
f 36/36/36 96/96/96 97/97/97
f 35/35/35 94/94/94 95/95/95
f 34/34/34 33/33/33 92/92/92
f 35/35/35 34/34/34 94/94/94
f 38/38/38 98/98/98 37/37/37
f 98/98/98 38/38/38 36/36/36
f 96/96/96 36/36/36 35/35/35
f 98/98/98 36/36/36 97/97/97
f 90/90/90 33/33/33 32/32/32
f 92/92/92 33/33/33 91/91/91
f 19/19/19 69/69/69 20/20/20
f 118/118/118 122/122/122 117/117/117
f 116/116/116 117/117/117 108/108/108
f 120/120/120 118/118/118 119/119/119
f 107/107/107 108/108/108 117/117/117
f 122/122/122 120/120/120 121/121/121
f 122/122/122 118/118/118 120/120/120
f 117/117/117 122/122/122 107/107/107
f 109/109/109 113/113/113 114/114/114
f 113/113/113 109/109/109 112/112/112
f 115/115/115 109/109/109 114/114/114
f 109/109/109 110/110/110 111/111/111
f 112/112/112 109/109/109 111/111/111
f 109/109/109 115/115/115 108/108/108
f 108/108/108 115/115/115 116/116/116
f 124/124/124 122/122/122 123/123/123
f 126/126/126 124/124/124 125/125/125
f 122/122/122 126/126/126 129/129/129
f 127/127/127 129/129/129 126/126/126
f 122/122/122 129/129/129 107/107/107
f 101/101/101 129/129/129 130/130/130
f 128/128/128 129/129/129 127/127/127
f 130/130/130 99/99/99 101/101/101
f 105/105/105 103/103/103 104/104/104
f 105/105/105 106/106/106 107/107/107
f 107/107/107 103/103/103 105/105/105
f 107/107/107 101/101/101 103/103/103
f 101/101/101 102/102/102 103/103/103
f 101/101/101 107/107/107 129/129/129
f 101/101/101 99/99/99 100/100/100
f 126/126/126 122/122/122 124/124/124
f 228/228/228 132/132/132 131/131/131
f 131/131/131 133/133/133 227/227/227 228/228/228
f 133/133/133 134/134/134 225/225/225 226/226/226
f 134/134/134 135/135/135 223/223/223 224/224/224
f 135/135/135 222/222/222 223/223/223
f 133/133/133 226/226/226 227/227/227
f 134/134/134 224/224/224 225/225/225
f 135/135/135 136/136/136 221/221/221 222/222/222
f 136/136/136 137/137/137 219/219/219 220/220/220
f 137/137/137 138/138/138 217/217/217 218/218/218
f 139/139/139 140/140/140 213/213/213 214/214/214
f 140/140/140 141/141/141 211/211/211 212/212/212
f 138/138/138 139/139/139 215/215/215 216/216/216
f 142/142/142 143/143/143 207/207/207 208/208/208
f 143/143/143 144/144/144 205/205/205 206/206/206
f 145/145/145 146/146/146 201/201/201 202/202/202
f 146/146/146 147/147/147 199/199/199 200/200/200
f 144/144/144 145/145/145 203/203/203 204/204/204
f 141/141/141 142/142/142 209/209/209 210/210/210
f 147/147/147 148/148/148 149/149/149 198/198/198
f 136/136/136 220/220/220 221/221/221
f 137/137/137 218/218/218 219/219/219
f 139/139/139 214/214/214 215/215/215
f 140/140/140 212/212/212 213/213/213
f 216/216/216 217/217/217 138/138/138
f 142/142/142 208/208/208 209/209/209
f 143/143/143 206/206/206 207/207/207
f 145/145/145 202/202/202 203/203/203
f 146/146/146 200/200/200 201/201/201
f 147/147/147 198/198/198 199/199/199
f 204/204/204 205/205/205 144/144/144
f 210/210/210 211/211/211 141/141/141
f 149/149/149 148/148/148 197/197/197
f 148/148/148 150/150/150 196/196/196 197/197/197
f 150/150/150 151/151/151 194/194/194 195/195/195
f 151/151/151 152/152/152 192/192/192 193/193/193
f 152/152/152 153/153/153 190/190/190 191/191/191
f 150/150/150 195/195/195 196/196/196
f 152/152/152 191/191/191 192/192/192
f 193/193/193 194/194/194 151/151/151
f 153/153/153 154/154/154 188/188/188 189/189/189
f 154/154/154 155/155/155 186/186/186 187/187/187
f 156/156/156 157/157/157 158/158/158 183/183/183
f 157/157/157 159/159/159 181/181/181 182/182/182
f 155/155/155 156/156/156 184/184/184 185/185/185
f 160/160/160 161/161/161 177/177/177 178/178/178
f 161/161/161 162/162/162 175/175/175 176/176/176
f 163/163/163 164/164/164 171/171/171 172/172/172
f 164/164/164 165/165/165 169/169/169 170/170/170
f 162/162/162 163/163/163 173/173/173 174/174/174
f 159/159/159 160/160/160 179/179/179 180/180/180
f 165/165/165 166/166/166 167/167/167 168/168/168
f 153/153/153 189/189/189 190/190/190
f 155/155/155 185/185/185 186/186/186
f 187/187/187 188/188/188 154/154/154
f 156/156/156 183/183/183 184/184/184
f 159/159/159 180/180/180 181/181/181
f 182/182/182 158/158/158 157/157/157
f 160/160/160 178/178/178 179/179/179
f 162/162/162 174/174/174 175/175/175
f 176/176/176 177/177/177 161/161/161
f 163/163/163 172/172/172 173/173/173
f 168/168/168 169/169/169 165/165/165
f 170/170/170 171/171/171 164/164/164
f 231/231/231 232/232/232 230/230/230 229/229/229
f 235/235/235 236/236/236 234/234/234 233/233/233
f 233/233/233 234/234/234 232/232/232 231/231/231
f 239/239/239 240/240/240 238/238/238 237/237/237
f 243/243/243 244/244/244 242/242/242 241/241/241
f 241/241/241 242/242/242 240/240/240 239/239/239
f 237/237/237 238/238/238 236/236/236 235/235/235
f 245/245/245 246/246/246 244/244/244 243/243/243
f 249/249/249 250/250/250 248/248/248 247/247/247
f 253/253/253 254/254/254 252/252/252 251/251/251
f 251/251/251 252/252/252 250/250/250 249/249/249
f 257/257/257 258/258/258 256/256/256 255/255/255
f 261/261/261 262/262/262 260/260/260 259/259/259
f 259/259/259 260/260/260 258/258/258 257/257/257
f 255/255/255 256/256/256 254/254/254 253/253/253
f 247/247/247 248/248/248 246/246/246 245/245/245
f 282/282/282 310/310/310 309/309/309
f 282/282/282 309/309/309 283/283/283
f 310/310/310 281/281/281 280/280/280
f 282/282/282 281/281/281 310/310/310
f 295/295/295 310/310/310 280/280/280
f 309/309/309 284/284/284 283/283/283
f 286/286/286 285/285/285 308/308/308
f 287/287/287 286/286/286 307/307/307
f 308/308/308 284/284/284 309/309/309
f 286/286/286 308/308/308 307/307/307
f 307/307/307 288/288/288 287/287/287
f 285/285/285 284/284/284 308/308/308
f 277/277/277 296/296/296 278/278/278
f 277/277/277 276/276/276 296/296/296
f 275/275/275 297/297/297 276/276/276
f 297/297/297 275/275/275 274/274/274
f 278/278/278 295/295/295 279/279/279
f 297/297/297 274/274/274 298/298/298
f 296/296/296 276/276/276 297/297/297
f 272/272/272 298/298/298 273/273/273
f 298/298/298 274/274/274 273/273/273
f 298/298/298 272/272/272 299/299/299
f 295/295/295 278/278/278 296/296/296
f 295/295/295 280/280/280 279/279/279
f 289/289/289 288/288/288 306/306/306
f 290/290/290 306/306/306 305/305/305
f 305/305/305 304/304/304 292/292/292
f 304/304/304 303/303/303 294/294/294
f 306/306/306 290/290/290 289/289/289
f 305/305/305 292/292/292 291/291/291
f 293/293/293 292/292/292 304/304/304
f 303/303/303 263/263/263 294/294/294
f 294/294/294 293/293/293 304/304/304
f 291/291/291 290/290/290 305/305/305
f 264/264/264 263/263/263 303/303/303
f 268/268/268 300/300/300 269/269/269
f 270/270/270 300/300/300 299/299/299
f 271/271/271 270/270/270 299/299/299
f 269/269/269 300/300/300 270/270/270
f 268/268/268 301/301/301 300/300/300
f 272/272/272 271/271/271 299/299/299
f 265/265/265 264/264/264 302/302/302
f 303/303/303 302/302/302 264/264/264
f 266/266/266 265/265/265 302/302/302
f 301/301/301 268/268/268 267/267/267
f 267/267/267 266/266/266 301/301/301
f 266/266/266 302/302/302 301/301/301
f 288/288/288 307/307/307 306/306/306
f 313/313/313 312/312/312 311/311/311
f 313/313/313 315/315/315 314/314/314
f 313/313/313 324/324/324 323/323/323
f 324/324/324 311/311/311 326/326/326
f 326/326/326 325/325/325 324/324/324
f 324/324/324 313/313/313 311/311/311
f 317/317/317 315/315/315 313/313/313
f 313/313/313 318/318/318 317/317/317
f 313/313/313 323/323/323 318/318/318
f 318/318/318 323/323/323 319/319/319
f 322/322/322 319/319/319 323/323/323
f 322/322/322 321/321/321 320/320/320
f 322/322/322 320/320/320 319/319/319
f 316/316/316 315/315/315 317/317/317
