# Rhino

mtllib male-lightsource-ring-260712b.mtl
g Male_virtual light_source_ring
o object_1
usemtl neopixel ring
v -0.125 -2.5 -39.209999084472656
v -0.28352588415145874 -2.5 -39.219776153564453
v -0.43964868783950806 -2.5 -39.24896240234375
v -0.59100174903869629 -2.5 -39.297111511230469
v -0.73529070615768433 -2.5 -39.363494873046875
v -0.87032824754714966 -2.5 -39.447105407714844
v -0.99406737089157104 -2.5 -39.546676635742188
v -1.1046323776245117 -2.5 -39.660701751708984
v -1.2003470659255981 -2.5 -39.787448883056641
v -1.2797605991363525 -2.5 -39.924999237060547
v -1.3416692018508911 -2.5 -40.071262359619141
v -1.3851343393325806 -2.5 -40.224025726318359
v -1.4094971418380737 -2.5 -40.380973815917969
v -1.4143881797790527 -2.5 -40.539726257324219
v -1.3997334241867065 -2.5 -40.6978759765625
v -1.3657550811767578 -2.5 -40.853023529052734
v -1.3129681348800659 -2.5 -41.002822875976563
v -1.2421727180480957 -2.5 -41.145000457763672
v -1.1544421911239624 -2.5 -41.277397155761719
v -1.051106333732605 -2.5 -41.398014068603516
v -0.93373173475265503 -2.5 -41.505012512207031
v -0.80409747362136841 -2.5 -41.596778869628906
v -0.6641688346862793 -2.5 -41.671920776367188
v -0.51606696844100952 -2.5 -41.729293823242188
v -0.36203688383102417 -2.5 -41.768035888671875
v -0.20441356301307678 -2.5 -41.787551879882813
v -0.045586429536342621 -2.5 -41.787551879882813
v 0.11203687638044357 -2.5 -41.768035888671875
v 0.26606693863868713 -2.5 -41.729293823242188
v 0.4141688346862793 -2.5 -41.671920776367188
v 0.55409747362136841 -2.5 -41.596778869628906
v 0.68373173475265503 -2.5 -41.505012512207031
v 0.80110639333724976 -2.5 -41.398014068603516
v 0.90444225072860718 -2.5 -41.277397155761719
v 0.99217277765274048 -2.5 -41.145000457763672
v 1.0629681348800659 -2.5 -41.002822875976563
v 1.1157550811767578 -2.5 -40.853023529052734
v 1.1497334241867065 -2.5 -40.6978759765625
v 1.1643881797790527 -2.5 -40.539726257324219
v 1.1594971418380737 -2.5 -40.380973815917969
v 1.1351343393325806 -2.5 -40.224025726318359
v 1.0916692018508911 -2.5 -40.071262359619141
v 1.0297605991363525 -2.5 -39.924999237060547
v 0.95034706592559814 -2.5 -39.787448883056641
v 0.85463231801986694 -2.5 -39.660701751708984
v 0.74406737089157104 -2.5 -39.546676635742188
v 0.62032824754714966 -2.5 -39.447105407714844
v 0.48529067635536194 -2.5 -39.363494873046875
v 0.34100174903869629 -2.5 -39.297111511230469
v 0.18964870274066925 -2.5 -39.24896240234375
v 0.033525895327329636 -2.5 -39.219776153564453
vt 0.5 0.0099102957174181938
vt 0.5614733099937439 0.013666044920682907
vt 0.62201470136642456 0.024876359850168228
vt 0.68070656061172485 0.043371301144361496
vt 0.73665904998779297 0.068870507180690765
vt 0.7890239953994751 0.10098744183778763
vt 0.83700764179229736 0.1392352283000946
vt 0.87988263368606567 0.18303409218788147
vt 0.91699898242950439 0.23172006011009216
vt 0.94779402017593384 0.28455513715744019
vt 0.97180098295211792 0.34073835611343384
vt 0.98865592479705811 0.39941805601119995
vt 0.99810332059860229 0.45970472693443298
vt 1 0.52068448066711426
vt 0.99431717395782471 0.58143287897109985
vt 0.98114103078842163 0.64102911949157715
vt 0.96067124605178833 0.69856971502304077
vt 0.93321818113327026 0.75318247079849243
vt 0.89919793605804443 0.80403941869735718
vt 0.85912626981735229 0.85036969184875488
vt 0.81361061334609985 0.89147096872329712
vt 0.76334095001220703 0.92672020196914673
vt 0.7090793251991272 0.95558303594589233
vt 0.65164828300476074 0.97762191295623779
vt 0.59191834926605225 0.99250274896621704
vt 0.53079503774642944 1
vt 0.46920493245124817 1
vt 0.40808165073394775 0.99250274896621704
vt 0.34835174679756165 0.97762191295623779
vt 0.2909206748008728 0.95558303594589233
vt 0.23665902018547058 0.92672020196914673
vt 0.18638935685157776 0.89147096872329712
vt 0.14087371528148651 0.85036969184875488
vt 0.10080205649137497 0.80403941869735718
vt 0.06678183376789093 0.75318247079849243
vt 0.03932875394821167 0.69856971502304077
vt 0.018858982250094414 0.64102911949157715
vt 0.0056828190572559834 0.58143287897109985
vt 0 0.52068448066711426
vt 0.0018966712523251772 0.45970472693443298
vt 0.011344080790877342 0.39941805601119995
vt 0.02819901704788208 0.34073835611343384
vt 0.052205976098775864 0.28455513715744019
vt 0.083001032471656799 0.23172006011009216
vt 0.12011737376451492 0.18303409218788147
vt 0.16299234330654144 0.1392352283000946
vt 0.2109760046005249 0.10098744183778763
vt 0.26334097981452942 0.068870507180690765
vt 0.31929346919059753 0.043371301144361496
vt 0.37798526883125305 0.024876359850168228
vt 0.4385266900062561 0.013666044920682907
vn 0 -1 0
vn 0 -1 0
vn 0 -1 0
vn 0 -1 0
vn 0 -1 0
vn 0 -1 0
vn 0 -1 0
vn 0 -1 0
vn 0 -1 0
vn 0 -1 0
vn 0 -1 0
vn 0 -1 0
vn 0 -1 0
vn 0 -1 0
vn 0 -1 0
vn 0 -1 0
vn 0 -1 0
vn 0 -1 0
vn 0 -1 0
vn 0 -1 0
vn 0 -1 0
vn 0 -1 0
vn 0 -1 0
vn 0 -1 0
vn 0 -1 0
vn 0 -1 0
vn 0 -1 0
vn 0 -1 0
vn 0 -1 0
vn 0 -1 0
vn 0 -1 0
vn 0 -1 0
vn 0 -1 0
vn 0 -1 0
vn 0 -1 0
vn 0 -1 0
vn 0 -1 0
vn 0 -1 0
vn 0 -1 0
vn 0 -1 0
vn 0 -1 0
vn 0 -1 0
vn 0 -1 0
vn 0 -1 0
vn 0 -1 0
vn 0 -1 0
vn 0 -1 0
vn 0 -1 0
vn 0 -1 0
vn 0 -1 0
vn 0 -1 0
f 44/44/44 42/42/42 43/43/43
f 42/42/42 44/44/44 28/28/28
f 42/42/42 40/40/40 41/41/41
f 40/40/40 42/42/42 38/38/38
f 45/45/45 46/46/46 44/44/44
f 46/46/46 47/47/47 25/25/25
f 8/8/8 47/47/47 49/49/49
f 49/49/49 47/47/47 48/48/48
f 46/46/46 25/25/25 27/27/27
f 44/44/44 46/46/46 27/27/27
f 5/5/5 49/49/49 50/50/50
f 34/34/34 37/37/37 31/31/31
f 37/37/37 38/38/38 31/31/31
f 35/35/35 36/36/36 34/34/34
f 37/37/37 34/34/34 36/36/36
f 38/38/38 39/39/39 40/40/40
f 32/32/32 33/33/33 31/31/31
f 31/31/31 33/33/33 34/34/34
f 31/31/31 42/42/42 30/30/30
f 30/30/30 42/42/42 29/29/29
f 31/31/31 38/38/38 42/42/42
f 42/42/42 28/28/28 29/29/29
f 28/28/28 44/44/44 27/27/27
f 3/3/3 50/50/50 51/51/51
f 51/51/51 2/2/2 3/3/3
f 50/50/50 3/3/3 4/4/4
f 5/5/5 6/6/6 49/49/49
f 5/5/5 50/50/50 4/4/4
f 7/7/7 49/49/49 6/6/6
f 8/8/8 23/23/23 47/47/47
f 8/8/8 9/9/9 23/23/23
f 12/12/12 10/10/10 11/11/11
f 21/21/21 10/10/10 12/12/12
f 9/9/9 10/10/10 22/22/22
f 49/49/49 7/7/7 8/8/8
f 13/13/13 20/20/20 12/12/12
f 22/22/22 10/10/10 21/21/21
f 23/23/23 9/9/9 22/22/22
f 24/24/24 47/47/47 23/23/23
f 25/25/25 47/47/47 24/24/24
f 27/27/27 25/25/25 26/26/26
f 15/15/15 16/16/16 14/14/14
f 17/17/17 14/14/14 16/16/16
f 18/18/18 19/19/19 20/20/20
f 20/20/20 17/17/17 18/18/18
f 17/17/17 20/20/20 14/14/14
f 12/12/12 20/20/20 21/21/21
f 13/13/13 14/14/14 20/20/20
f 1/1/1 2/2/2 51/51/51
